<svg xmlns="http://www.w3.org/2000/svg" width="80.358" height="54.868" viewBox="0 0 80.358 54.868"><defs><style>.a{fill:#fff;}.b{fill:#f90;}.b,.c{fill-rule:evenodd;}.d,.e{stroke:none;}.e{fill:#eaeaea;}</style></defs><g class="a" transform="translate(0 0)"><path class="d" d="M 73.21525573730469 54.36768341064453 L 7.142948150634766 54.36768341064453 C 3.48001503944397 54.36768341064453 0.5000038743019104 50.65381622314453 0.5000038743019104 46.08884811401367 L 0.5000038743019104 8.778826713562012 C 0.5000038743019104 4.213871002197266 3.48001503944397 0.5000045299530029 7.142948150634766 0.5000045299530029 L 73.21525573730469 0.5000045299530029 C 76.87818908691406 0.5000045299530029 79.85820007324219 4.213871002197266 79.85820007324219 8.778826713562012 L 79.85820007324219 46.08884811401367 C 79.85820007324219 50.65381622314453 76.87818908691406 54.36768341064453 73.21525573730469 54.36768341064453 Z"/><path class="e" d="M 7.142951965332031 0.9999923706054688 C 3.755714416503906 0.9999923706054688 1.000007629394531 4.489559173583984 1.000007629394531 8.778827667236328 L 1.000007629394531 46.08884811401367 C 1.000007629394531 50.37810516357422 3.755714416503906 53.86767196655273 7.142951965332031 53.86767196655273 L 73.21525573730469 53.86767196655273 C 76.60249328613281 53.86767196655273 79.35820007324219 50.37810516357422 79.35820007324219 46.08884811401367 L 79.35820007324219 8.778827667236328 C 79.35820007324219 4.489559173583984 76.60249328613281 0.9999923706054688 73.21525573730469 0.9999923706054688 L 7.142951965332031 0.9999923706054688 M 7.142951965332031 -7.62939453125e-06 L 73.21525573730469 -7.62939453125e-06 C 77.16020202636719 -7.62939453125e-06 80.35820007324219 3.930416107177734 80.35820007324219 8.778827667236328 L 80.35820007324219 46.08884811401367 C 80.35820007324219 50.93727111816406 77.16020202636719 54.86767196655273 73.21525573730469 54.86767196655273 L 7.142951965332031 54.86767196655273 C 3.198005676269531 54.86767196655273 7.62939453125e-06 50.93727111816406 7.62939453125e-06 46.08884811401367 L 7.62939453125e-06 8.778827667236328 C 7.62939453125e-06 3.930416107177734 3.198005676269531 -7.62939453125e-06 7.142951965332031 -7.62939453125e-06 Z"/></g><g transform="translate(13 19)"><path class="b" d="M167.334,194.677a21.158,21.158,0,0,1-11.933,3.648,21.6,21.6,0,0,1-14.578-5.563c-.3-.273-.031-.646.331-.433a29.342,29.342,0,0,0,14.586,3.868,29,29,0,0,0,11.126-2.275c.546-.232,1,.358.469.754" transform="translate(-132.878 -181.588)"/><path class="b" d="M575.927,183.271c-.411-.527-2.727-.249-3.767-.126-.317.039-.365-.237-.08-.435,1.845-1.3,4.872-.923,5.225-.488s-.092,3.472-1.825,4.92c-.266.222-.52.1-.4-.191.389-.972,1.262-3.15.849-3.68" transform="translate(-540.937 -171.717)"/><path class="c" d="M31.368,1.828V.566A.308.308,0,0,1,31.68.247H37.2a.311.311,0,0,1,.319.319V1.646a1.794,1.794,0,0,1-.416.793l-2.861,4.18a5.979,5.979,0,0,1,3.149.691.577.577,0,0,1,.293.491V9.148c0,.184-.2.4-.406.288a6.23,6.23,0,0,0-5.832.01c-.191.106-.392-.106-.392-.29V7.877a1.555,1.555,0,0,1,.2-.868l3.314-4.864H31.687a.309.309,0,0,1-.319-.317M11.23,9.7H9.551a.321.321,0,0,1-.3-.293V.587A.319.319,0,0,1,9.574.271H11.14a.32.32,0,0,1,.3.295V1.719h.031a2.292,2.292,0,0,1,4.391,0,2.454,2.454,0,0,1,4.264-.67,4.792,4.792,0,0,1,.423,2.766l0,5.568a.321.321,0,0,1-.324.319H18.551a.323.323,0,0,1-.3-.319V4.707A11.3,11.3,0,0,0,18.2,3.053a.878.878,0,0,0-.987-.759,1.117,1.117,0,0,0-1,.723,5.462,5.462,0,0,0-.156,1.69V9.383a.321.321,0,0,1-.324.319H14.053a.322.322,0,0,1-.3-.319l0-4.676c0-.984.158-2.432-1.035-2.432s-1.16,1.412-1.16,2.432V9.383a.321.321,0,0,1-.324.319M42.272.085c2.492,0,3.841,2.19,3.841,4.975,0,2.691-1.491,4.826-3.841,4.826-2.447,0-3.78-2.19-3.78-4.92,0-2.746,1.349-4.881,3.78-4.881m.014,1.8c-1.238,0-1.316,1.726-1.316,2.8s-.016,3.38,1.3,3.38c1.3,0,1.363-1.857,1.363-2.988a8.339,8.339,0,0,0-.25-2.34,1.054,1.054,0,0,0-1.1-.853M49.345,9.7H47.672a.323.323,0,0,1-.3-.319l0-8.824a.32.32,0,0,1,.324-.288h1.557a.323.323,0,0,1,.3.247V1.866h.031A2.293,2.293,0,0,1,51.868.085a2.189,2.189,0,0,1,1.961,1.04,5.724,5.724,0,0,1,.439,2.746V9.424a.325.325,0,0,1-.324.278H52.26a.321.321,0,0,1-.3-.278V4.632c0-.965.109-2.377-1.051-2.377a1.1,1.1,0,0,0-.971.706,3.986,3.986,0,0,0-.267,1.671V9.383a.326.326,0,0,1-.328.319M26.967,5.488a3.431,3.431,0,0,1-.314,1.823,1.363,1.363,0,0,1-1.162.781c-.645,0-1.023-.5-1.023-1.245,0-1.465,1.283-1.731,2.5-1.731v.372m1.694,4.19a.344.344,0,0,1-.4.041A4.166,4.166,0,0,1,27.3,8.573a3.292,3.292,0,0,1-2.769,1.25,2.412,2.412,0,0,1-2.513-2.679,2.919,2.919,0,0,1,1.791-2.809,11.4,11.4,0,0,1,3.158-.6V3.515a2.237,2.237,0,0,0-.206-1.245,1.108,1.108,0,0,0-.943-.447,1.282,1.282,0,0,0-1.349,1.032.356.356,0,0,1-.293.314L22.55,2.991a.3.3,0,0,1-.25-.36C22.673.609,24.459,0,26.056,0a3.751,3.751,0,0,1,2.53.856c.817.781.739,1.823.739,2.957V6.491a2.379,2.379,0,0,0,.633,1.593.33.33,0,0,1-.007.457c-.343.293-.952.836-1.287,1.141l0,0M4.949,5.488a3.431,3.431,0,0,1-.314,1.823,1.36,1.36,0,0,1-1.162.781c-.645,0-1.021-.5-1.021-1.245,0-1.465,1.283-1.731,2.5-1.731v.372m1.694,4.19a.344.344,0,0,1-.4.041,4.207,4.207,0,0,1-.964-1.146,3.29,3.29,0,0,1-2.769,1.25A2.413,2.413,0,0,1,0,7.144,2.922,2.922,0,0,1,1.791,4.335a11.4,11.4,0,0,1,3.158-.6V3.515a2.257,2.257,0,0,0-.2-1.245A1.114,1.114,0,0,0,3.8,1.823,1.285,1.285,0,0,0,2.452,2.855a.356.356,0,0,1-.291.314L.531,2.991a.3.3,0,0,1-.25-.36C.657.609,2.44,0,4.037,0a3.751,3.751,0,0,1,2.53.856c.817.781.739,1.823.739,2.957V6.491a2.379,2.379,0,0,0,.633,1.593.328.328,0,0,1,0,.457c-.343.293-.952.836-1.287,1.141l0,0" transform="translate(0 0)"/></g></svg>