<svg xmlns="http://www.w3.org/2000/svg" width="80.358" height="54.868" viewBox="0 0 80.358 54.868"><defs><style>.a{fill:#fff;}.b{fill:#666;}.c,.d{stroke:none;}.d{fill:#eaeaea;}</style></defs><g class="a" transform="translate(0 0)"><path class="c" d="M 73.21524810791016 54.36768341064453 L 7.142948150634766 54.36768341064453 C 3.48001503944397 54.36768341064453 0.5000038743019104 50.65381622314453 0.5000038743019104 46.08884811401367 L 0.5000038743019104 8.778826713562012 C 0.5000038743019104 4.213871002197266 3.48001503944397 0.5000045299530029 7.142948150634766 0.5000045299530029 L 73.21524810791016 0.5000045299530029 C 76.87818145751953 0.5000045299530029 79.85820007324219 4.213871002197266 79.85820007324219 8.778826713562012 L 79.85820007324219 46.08884811401367 C 79.85820007324219 50.65381622314453 76.87818145751953 54.36768341064453 73.21524810791016 54.36768341064453 Z"/><path class="d" d="M 7.142951965332031 0.9999923706054688 C 3.755714416503906 0.9999923706054688 1.000007629394531 4.489559173583984 1.000007629394531 8.778827667236328 L 1.000007629394531 46.08884811401367 C 1.000007629394531 50.37810516357422 3.755714416503906 53.86767196655273 7.142951965332031 53.86767196655273 L 73.21524810791016 53.86767196655273 C 76.60247802734375 53.86767196655273 79.35820007324219 50.37810516357422 79.35820007324219 46.08884811401367 L 79.35820007324219 8.778827667236328 C 79.35820007324219 4.489559173583984 76.60247802734375 0.9999923706054688 73.21524810791016 0.9999923706054688 L 7.142951965332031 0.9999923706054688 M 7.142951965332031 -7.62939453125e-06 L 73.21524810791016 -7.62939453125e-06 C 77.16020202636719 -7.62939453125e-06 80.35820007324219 3.930416107177734 80.35820007324219 8.778827667236328 L 80.35820007324219 46.08884811401367 C 80.35820007324219 50.93727111816406 77.16020202636719 54.86767196655273 73.21524810791016 54.86767196655273 L 7.142951965332031 54.86767196655273 C 3.198005676269531 54.86767196655273 7.62939453125e-06 50.93727111816406 7.62939453125e-06 46.08884811401367 L 7.62939453125e-06 8.778827667236328 C 7.62939453125e-06 3.930416107177734 3.198005676269531 -7.62939453125e-06 7.142951965332031 -7.62939453125e-06 Z"/></g><path class="b" d="M11.844,8.227c-1.131,0-2.882-1.286-4.726-1.239A6.978,6.978,0,0,0,1.2,10.582C-1.326,14.967.549,21.443,3.013,25.007c1.209,1.735,2.634,3.687,4.524,3.626,1.813-.077,2.495-1.178,4.695-1.178,2.185,0,2.8,1.178,4.726,1.131,1.952-.031,3.192-1.766,4.385-3.517a15.571,15.571,0,0,0,1.983-4.075A6.321,6.321,0,0,1,19.483,15.2a6.428,6.428,0,0,1,3.1-5.438,6.707,6.707,0,0,0-5.237-2.835c-2.386-.186-4.385,1.3-5.5,1.3Zm4.028-3.657A6.263,6.263,0,0,0,17.36,0a6.443,6.443,0,0,0-4.214,2.169A5.991,5.991,0,0,0,11.627,6.6a5.342,5.342,0,0,0,4.245-2.03" transform="translate(28.87 12.158)"/></svg>