<svg xmlns="http://www.w3.org/2000/svg" xmlns:xlink="http://www.w3.org/1999/xlink" width="1920" height="800"><defs><linearGradient id="b" x1=".001" y1=".502" x2=".999" y2=".502" gradientUnits="objectBoundingBox"><stop offset="0" stop-color="#8f6e1e"/><stop offset=".003" stop-color="#906f1f"/><stop offset=".117" stop-color="#b59b4e"/><stop offset=".217" stop-color="#d0bb6f"/><stop offset=".301" stop-color="#e1ce84"/><stop offset=".356" stop-color="#e7d58b"/><stop offset=".744" stop-color="#ddb930"/><stop offset="1" stop-color="#a17c22"/></linearGradient><linearGradient id="c" x1=".001" y1=".502" x2=".999" y2=".502" xlink:href="#b"/><linearGradient id="d" x1="-.001" y1=".499" x2="1.001" y2=".499" xlink:href="#b"/><linearGradient id="e" x1=".001" y1=".5" x2="1.001" y2=".5" xlink:href="#b"/><linearGradient id="f" x1="0" y1=".5" x2="1.001" y2=".5" xlink:href="#b"/><linearGradient id="g" x1="-.001" y1=".5" x2=".999" y2=".5" xlink:href="#b"/><linearGradient id="h" x1=".001" y1=".5" x2="1" y2=".5" xlink:href="#b"/><linearGradient id="i" x1="0" y1=".5" x2=".999" y2=".5" xlink:href="#b"/><linearGradient id="j" x1="0" y1=".5" x2="1" y2=".5" xlink:href="#b"/><linearGradient id="k" x1="0" y1=".5" x2="1.001" y2=".5" xlink:href="#b"/><linearGradient id="l" x1=".001" y1=".5" x2="1.001" y2=".5" xlink:href="#b"/><linearGradient id="m" x1="-.001" y1=".5" x2=".999" y2=".5" xlink:href="#b"/><linearGradient id="n" x1="0" y1=".5" x2="1" y2=".5" xlink:href="#b"/><linearGradient id="o" x1="-.001" y1=".5" x2="1.001" y2=".5" xlink:href="#b"/><linearGradient id="p" x1=".001" y1=".499" x2="1" y2=".499" xlink:href="#b"/><linearGradient id="q" x1=".001" y1=".5" x2="1" y2=".5" xlink:href="#b"/><linearGradient id="r" x1="0" y1=".5" x2="1" y2=".5" xlink:href="#b"/><linearGradient id="s" x1="0" y1=".501" x2=".999" y2=".501" xlink:href="#b"/><linearGradient id="t" x1="0" y1=".501" x2=".999" y2=".501" xlink:href="#b"/><linearGradient id="u" x1="-.001" y1=".501" x2="1" y2=".501" xlink:href="#b"/><linearGradient id="v" x1="0" y1=".5" x2="1" y2=".5" xlink:href="#b"/><linearGradient id="w" x1="0" y1=".499" x2="1" y2=".499" xlink:href="#b"/><linearGradient id="x" x1="0" y1=".499" x2="1" y2=".499" xlink:href="#b"/><linearGradient id="y" x1="-.001" y1=".5" x2="1" y2=".5" xlink:href="#b"/><linearGradient id="z" x1=".001" y1=".499" x2="1.001" y2=".499" xlink:href="#b"/><linearGradient id="aa" x1="-.001" y1=".5" x2=".999" y2=".5" xlink:href="#b"/><linearGradient id="ab" x1="0" y1=".5" x2="1" y2=".5" xlink:href="#b"/><linearGradient id="ac" x1="-.002" y1=".5" x2="1.001" y2=".5" xlink:href="#b"/><linearGradient id="ad" x1=".001" y1=".501" x2="1" y2=".501" xlink:href="#b"/><linearGradient id="ae" x1="0" y1=".5" x2=".999" y2=".5" xlink:href="#b"/><linearGradient id="af" x1="0" y1=".5" x2="1" y2=".5" xlink:href="#b"/><linearGradient id="ag" x1=".001" y1=".499" x2="1.001" y2=".499" xlink:href="#b"/><linearGradient id="ah" x1="0" y1=".501" x2="1" y2=".501" xlink:href="#b"/><linearGradient id="ai" x1="-.001" y1=".5" x2="1" y2=".5" xlink:href="#b"/><linearGradient id="aj" x1="0" y1=".5" x2="1" y2=".5" xlink:href="#b"/><linearGradient id="ak" x1="0" y1=".5" x2="1" y2=".5" xlink:href="#b"/><linearGradient id="al" x1="0" y1=".5" x2=".999" y2=".5" xlink:href="#b"/><linearGradient id="am" x1="0" y1=".5" x2="1" y2=".5" xlink:href="#b"/><linearGradient id="an" x1="0" y1=".5" x2=".999" y2=".5" xlink:href="#b"/><linearGradient id="ao" x1="0" y1=".5" x2=".999" y2=".5" xlink:href="#b"/><linearGradient id="ap" x1="0" y1=".5" x2="1" y2=".5" xlink:href="#b"/><linearGradient id="aq" x1=".006" y1=".495" x2="1.008" y2=".495" xlink:href="#b"/><linearGradient id="ar" x1="-.001" y1=".5" x2="1.001" y2=".5" xlink:href="#b"/><linearGradient id="as" x1="-.001" y1=".5" x2="1.001" y2=".5" xlink:href="#b"/><linearGradient id="at" x1=".001" y1=".5" x2="1" y2=".5" xlink:href="#b"/><linearGradient id="au" x1="0" y1=".5" x2="1.001" y2=".5" xlink:href="#b"/><linearGradient id="av" x1=".001" y1=".5" x2="1" y2=".5" xlink:href="#b"/><linearGradient id="aw" y1=".5" x2="1" y2=".5" gradientUnits="objectBoundingBox"><stop offset="0" stop-color="#8f661e"/><stop offset=".003" stop-color="#90671f"/><stop offset=".117" stop-color="#b5934e"/><stop offset=".217" stop-color="#d0b36f"/><stop offset=".301" stop-color="#e1c684"/><stop offset=".356" stop-color="#e7cd8b"/><stop offset=".744" stop-color="#ddab30"/><stop offset="1" stop-color="#a17322"/></linearGradient><linearGradient id="ax" x1=".223" y1="-.945" x2="1.215" y2="-.945" xlink:href="#b"/><linearGradient id="ay" x1="3.525" y1="-2.009" x2="4.758" y2="-2.009" xlink:href="#b"/><linearGradient id="az" x1="0" y1=".5" x2=".999" y2=".5" xlink:href="#b"/><linearGradient id="ba" x1="0" y1=".5" x2="1" y2=".5" xlink:href="#b"/><linearGradient id="bb" x1="0" y1=".5" x2="1.001" y2=".5" xlink:href="#b"/><linearGradient id="bc" x1=".003" y1=".505" x2="1.005" y2=".505" xlink:href="#b"/><linearGradient id="bd" x1=".001" y1=".5" x2="1.001" y2=".5" xlink:href="#b"/><linearGradient id="be" x1="0" y1=".5" x2="1" y2=".5" xlink:href="#b"/><linearGradient id="bf" x1="0" y1=".5" x2="1" y2=".5" xlink:href="#b"/><linearGradient id="bg" x1=".003" y1=".5" x2=".995" y2=".5" xlink:href="#b"/><linearGradient id="bh" x1=".001" y1=".5" x2="1" y2=".5" xlink:href="#b"/><linearGradient id="bi" x1="0" y1=".5" x2="1" y2=".5" xlink:href="#b"/><linearGradient id="bj" x1="0" y1=".5" x2="1" y2=".5" xlink:href="#b"/><linearGradient id="bk" x1="0" y1=".5" x2="1.002" y2=".5" xlink:href="#b"/><linearGradient id="bl" x1="0" y1=".5" x2=".999" y2=".5" xlink:href="#b"/><linearGradient id="bm" x1=".001" y1=".5" x2=".999" y2=".5" xlink:href="#b"/><linearGradient id="bn" x1="0" y1=".499" x2="1" y2=".499" xlink:href="#b"/><linearGradient id="bo" x1="-.001" y1=".5" x2="1" y2=".5" xlink:href="#b"/><linearGradient id="bp" x1=".002" y1=".5" x2=".999" y2=".5" xlink:href="#b"/><linearGradient id="bq" x1="-.001" y1=".499" x2=".999" y2=".499" xlink:href="#b"/><linearGradient id="br" x1="-.001" y1=".499" x2=".998" y2=".499" xlink:href="#b"/><linearGradient id="bs" x1="0" y1=".5" x2=".999" y2=".5" xlink:href="#b"/><linearGradient id="bt" x1=".001" y1=".5" x2="1" y2=".5" xlink:href="#b"/><linearGradient id="bu" x1=".002" y1=".5" x2=".999" y2=".5" xlink:href="#b"/><linearGradient id="bv" x1="0" y1=".5" x2="1" y2=".5" xlink:href="#b"/><linearGradient id="bw" x1="-.001" y1=".5" x2=".999" y2=".5" xlink:href="#b"/><linearGradient id="bx" x1="0" y1=".499" x2="1" y2=".499" xlink:href="#b"/><linearGradient id="by" x1="0" y1=".5" x2=".999" y2=".5" xlink:href="#b"/><linearGradient id="bz" x1="0" y1=".5" x2="1" y2=".5" xlink:href="#b"/><linearGradient id="ca" x1="-.001" y1=".5" x2="1" y2=".5" xlink:href="#b"/><linearGradient id="cb" x1="-.001" y1=".5" x2="1" y2=".5" xlink:href="#b"/><linearGradient id="cc" x1="-.001" y1=".5" x2="1.002" y2=".5" xlink:href="#b"/><linearGradient id="cd" x1=".001" y1=".5" x2="1.001" y2=".5" xlink:href="#b"/><linearGradient id="ce" x1="-.001" y1=".5" x2="1" y2=".5" xlink:href="#b"/><linearGradient id="cf" x1="0" y1=".5" x2="1" y2=".5" xlink:href="#b"/><linearGradient id="cg" x1="0" y1=".5" x2="1" y2=".5" xlink:href="#b"/><linearGradient id="ch" x1="0" y1=".499" x2="1.001" y2=".499" xlink:href="#b"/><linearGradient id="ci" x1="0" y1=".501" x2="1" y2=".501" xlink:href="#b"/><linearGradient id="cj" x1=".001" y1=".501" x2="1" y2=".501" xlink:href="#b"/><linearGradient id="ck" x1="0" y1=".5" x2="1" y2=".5" xlink:href="#b"/><linearGradient id="cl" x1="-.003" y1=".5" x2="1" y2=".5" xlink:href="#b"/><linearGradient id="cm" x1="-.001" y1=".5" x2="1" y2=".5" xlink:href="#b"/><linearGradient id="cn" x1="-.001" y1=".5" x2="1.001" y2=".5" xlink:href="#b"/><linearGradient id="co" x1=".001" y1=".5" x2="1.001" y2=".5" xlink:href="#b"/><linearGradient id="cp" x1="0" y1=".499" x2=".998" y2=".499" xlink:href="#b"/><linearGradient id="cq" x1="0" y1=".5" x2="1" y2=".5" xlink:href="#b"/><linearGradient id="cr" x1=".001" y1=".499" x2="1.001" y2=".499" xlink:href="#b"/><linearGradient id="cs" x1="0" y1=".499" x2="1" y2=".499" xlink:href="#b"/><linearGradient id="ct" x1="0" y1=".5" x2="1.001" y2=".5" xlink:href="#b"/><linearGradient id="cu" x1=".001" y1=".5" x2="1.001" y2=".5" xlink:href="#b"/><linearGradient id="cv" x1=".001" y1=".5" x2="1.001" y2=".5" xlink:href="#b"/><linearGradient id="cw" x1="-.001" y1=".5" x2="1.003" y2=".5" xlink:href="#b"/><linearGradient id="cx" x1="0" y1=".5" x2="1" y2=".5" xlink:href="#b"/><linearGradient id="cy" x1="0" y1=".501" x2="1" y2=".501" xlink:href="#b"/><linearGradient id="cz" x1="-.001" y1=".501" x2="1" y2=".501" xlink:href="#b"/><linearGradient id="da" x1="0" y1=".5" x2="1" y2=".5" xlink:href="#b"/><linearGradient id="db" x1="0" y1=".5" x2="1" y2=".5" xlink:href="#b"/><linearGradient id="dc" x1="0" y1=".501" x2="1" y2=".501" xlink:href="#b"/><linearGradient id="de" x1=".001" y1=".5" x2="1.001" y2=".5" xlink:href="#b"/><linearGradient id="df" x1="0" y1=".5" x2="1" y2=".5" xlink:href="#b"/><linearGradient id="dg" x1="-.002" y1=".5" x2="1.001" y2=".5" xlink:href="#b"/><linearGradient id="dh" x1="0" y1=".5" x2="1.001" y2=".5" xlink:href="#b"/><linearGradient id="di" x1="-.002" y1=".501" x2=".998" y2=".501" xlink:href="#b"/><linearGradient id="dj" x1=".001" y1=".501" x2="1" y2=".501" xlink:href="#b"/><linearGradient id="dk" x1=".002" y1=".5" x2=".998" y2=".5" xlink:href="#b"/><linearGradient id="dl" x1=".001" y1=".499" x2="1" y2=".499" xlink:href="#b"/><linearGradient id="dm" x1="-2.593" y1="1.935" x2="-.808" y2="1.935" xlink:href="#b"/><linearGradient id="dn" x1="0" y1=".501" x2="1" y2=".501" xlink:href="#b"/><linearGradient id="do" x1="-.001" y1=".501" x2="1.002" y2=".501" xlink:href="#b"/><linearGradient id="dp" x1="0" y1=".501" x2="1" y2=".501" xlink:href="#b"/><linearGradient id="dq" x1="-.001" y1=".499" x2=".999" y2=".499" xlink:href="#b"/><linearGradient id="dr" x1="-.001" y1=".5" x2="1" y2=".5" xlink:href="#b"/><linearGradient id="ds" x1="-.001" y1=".5" x2="1" y2=".5" xlink:href="#b"/><linearGradient id="dt" x1=".001" y1=".501" x2="1.001" y2=".501" xlink:href="#b"/><linearGradient id="du" x1="0" y1=".501" x2="1" y2=".501" xlink:href="#b"/><linearGradient id="dv" x1="-.002" y1=".498" x2=".991" y2=".498" xlink:href="#b"/><linearGradient id="dw" x1=".001" y1=".499" x2="1.001" y2=".499" xlink:href="#b"/><linearGradient id="dx" x1="0" y1=".499" x2="1" y2=".499" xlink:href="#b"/><linearGradient id="dy" x1="-.001" y1=".5" x2="1.003" y2=".5" xlink:href="#b"/><linearGradient id="dz" x1="-.002" y1=".5" x2="1.002" y2=".5" xlink:href="#b"/><linearGradient id="ea" x1="0" y1=".5" x2="1.001" y2=".5" xlink:href="#b"/><linearGradient id="eb" x1=".001" y1=".5" x2=".999" y2=".5" xlink:href="#b"/><linearGradient id="ec" x1=".001" y1=".5" x2="1" y2=".5" xlink:href="#b"/><linearGradient id="ed" x1=".001" y1=".499" x2=".999" y2=".499" xlink:href="#b"/><linearGradient id="ee" x1="0" y1=".5" x2="1" y2=".5" xlink:href="#b"/><linearGradient id="ef" x1="0" y1=".5" x2="1" y2=".5" xlink:href="#b"/><linearGradient id="eg" x1="-.001" y1=".5" x2="1" y2=".5" xlink:href="#b"/><linearGradient id="eh" x1="-.001" y1=".5" x2="1.001" y2=".5" xlink:href="#b"/><linearGradient id="ei" x1="0" y1=".5" x2="1" y2=".5" xlink:href="#b"/><linearGradient id="ej" x1="0" y1=".5" x2="1.001" y2=".5" xlink:href="#b"/><linearGradient id="ek" x1="0" y1=".499" x2="1" y2=".499" xlink:href="#b"/><linearGradient id="el" x1="-.001" y1=".5" x2=".999" y2=".5" xlink:href="#b"/><linearGradient id="em" x1="0" y1=".501" x2=".999" y2=".501" xlink:href="#b"/><linearGradient id="en" x1="-.001" y1=".5" x2=".999" y2=".5" xlink:href="#b"/><linearGradient id="eo" x1="0" y1=".5" x2="1" y2=".5" xlink:href="#b"/><linearGradient id="ep" x1="0" y1=".501" x2="1" y2=".501" xlink:href="#b"/><linearGradient id="er" x1="0" y1=".5" x2="1.001" y2=".5" xlink:href="#b"/><linearGradient id="es" x1=".001" y1=".501" x2="1" y2=".501" xlink:href="#b"/><linearGradient id="et" x1="0" y1=".499" x2="1" y2=".499" xlink:href="#b"/><linearGradient id="eu" x1=".001" y1=".5" x2="1" y2=".5" xlink:href="#b"/><linearGradient id="ev" x1=".002" y1=".5" x2="1.001" y2=".5" xlink:href="#b"/><linearGradient id="ew" x1="0" y1=".501" x2="1" y2=".501" xlink:href="#b"/><linearGradient id="ex" x1="0" y1=".501" x2="1" y2=".501" xlink:href="#b"/><linearGradient id="ey" x1="0" y1=".5" x2=".999" y2=".5" xlink:href="#b"/><linearGradient id="ez" x1="-.001" y1=".501" x2=".999" y2=".501" xlink:href="#b"/><linearGradient id="fa" x1=".002" y1=".5" x2=".999" y2=".5" xlink:href="#b"/><linearGradient id="fb" x1="0" y1=".5" x2="1.001" y2=".5" xlink:href="#b"/><linearGradient id="fc" x1="-.001" y1=".5" x2="1.001" y2=".5" xlink:href="#b"/><linearGradient id="fd" x1="0" y1=".5" x2="1" y2=".5" xlink:href="#b"/><linearGradient id="fe" x1="0" y1=".5" x2=".999" y2=".5" xlink:href="#b"/><linearGradient id="ff" x1="-.001" y1=".5" x2="1" y2=".5" xlink:href="#b"/><linearGradient id="fg" x1="-.001" y1=".501" x2="1" y2=".501" xlink:href="#b"/><linearGradient id="fh" x1="0" y1=".5" x2="1" y2=".5" xlink:href="#b"/><linearGradient id="fi" x1=".001" y1=".499" x2="1" y2=".499" xlink:href="#b"/><linearGradient id="fj" x1=".001" y1=".5" x2="1.002" y2=".5" xlink:href="#b"/><linearGradient id="fk" x1="-.001" y1=".5" x2="1" y2=".5" xlink:href="#b"/><linearGradient id="fl" x1="-.001" y1=".5" x2=".999" y2=".5" xlink:href="#b"/><linearGradient id="fm" x1="0" y1=".501" x2="1" y2=".501" xlink:href="#b"/><linearGradient id="fn" x1="0" y1=".5" x2="1" y2=".5" xlink:href="#b"/><linearGradient id="fo" x1="0" y1=".5" x2="1" y2=".5" xlink:href="#b"/><linearGradient id="fp" x1="-.001" y1=".5" x2=".999" y2=".5" xlink:href="#b"/><linearGradient id="fq" x1="0" y1=".5" x2="1" y2=".5" xlink:href="#b"/><linearGradient id="fr" x1="0" y1=".5" x2=".999" y2=".5" xlink:href="#b"/><linearGradient id="fs" x1="0" y1=".499" x2="1" y2=".499" xlink:href="#b"/><linearGradient id="ft" x1="-.001" y1=".5" x2=".999" y2=".5" xlink:href="#b"/><linearGradient id="fu" x1="-.001" y1=".5" x2=".999" y2=".5" xlink:href="#b"/><linearGradient id="fw" x1=".001" y1=".499" x2="1" y2=".499" xlink:href="#b"/><linearGradient id="fx" x1="0" y1=".5" x2="1.001" y2=".5" xlink:href="#b"/><linearGradient id="fy" x1="0" y1=".5" x2="1" y2=".5" xlink:href="#b"/><linearGradient id="fz" x1="0" y1=".5" x2="1" y2=".5" xlink:href="#b"/><linearGradient id="ga" x1="0" y1=".5" x2="1" y2=".5" xlink:href="#b"/><linearGradient id="gb" x1="0" y1=".5" x2="1" y2=".5" xlink:href="#b"/><linearGradient id="gc" x1="0" y1=".5" x2="1" y2=".5" xlink:href="#b"/><linearGradient id="gd" x1="0" y1=".5" x2="1" y2=".5" xlink:href="#b"/><linearGradient id="ge" x1="0" y1=".5" x2="1" y2=".5" xlink:href="#b"/><linearGradient id="gf" x1=".5" x2=".5" y2="1" gradientUnits="objectBoundingBox"><stop offset="0" stop-color="#e2c760"/><stop offset="1" stop-color="#716430"/></linearGradient><linearGradient id="gr" x1="114.878" y1="4.242" x2="116.455" y2="4.242" xlink:href="#b"/><linearGradient id="gs" x1="0" y1=".5" x2="1.002" y2=".5" xlink:href="#b"/><linearGradient id="gt" x1=".001" y1=".498" x2=".999" y2=".498" xlink:href="#b"/><linearGradient id="gu" x1=".001" y1=".498" x2=".999" y2=".498" xlink:href="#b"/><linearGradient id="gv" x1="-.001" y1=".501" x2="1.001" y2=".501" xlink:href="#b"/><linearGradient id="gw" x1=".001" y1=".5" x2="1.001" y2=".5" xlink:href="#b"/><linearGradient id="gx" x1="0" y1=".5" x2="1.001" y2=".5" xlink:href="#b"/><linearGradient id="gy" x1="-.001" y1=".5" x2=".999" y2=".5" xlink:href="#b"/><linearGradient id="gz" x1=".001" y1=".5" x2="1" y2=".5" xlink:href="#b"/><linearGradient id="hb" x1="0" y1=".5" x2="1" y2=".5" xlink:href="#b"/><linearGradient id="he" x1="0" y1=".501" x2=".999" y2=".501" xlink:href="#b"/><linearGradient id="hf" x1=".001" y1=".501" x2="1" y2=".501" xlink:href="#b"/><linearGradient id="hg" x1=".001" y1=".5" x2="1" y2=".5" xlink:href="#b"/><linearGradient id="hh" x1="0" y1=".499" x2=".999" y2=".499" xlink:href="#b"/><linearGradient id="hi" x1="0" y1=".499" x2=".999" y2=".499" xlink:href="#b"/><linearGradient id="hj" x1="-.001" y1=".499" x2="1" y2=".499" xlink:href="#b"/><linearGradient id="hk" x1="0" y1=".5" x2="1" y2=".5" xlink:href="#b"/><linearGradient id="hl" x1="0" y1=".501" x2="1" y2=".501" xlink:href="#b"/><linearGradient id="hm" x1="0" y1=".501" x2="1" y2=".501" xlink:href="#b"/><linearGradient id="hn" x1="-.001" y1=".5" x2="1" y2=".5" xlink:href="#b"/><linearGradient id="ho" x1=".001" y1=".501" x2="1.001" y2=".501" xlink:href="#b"/><linearGradient id="hp" x1="-.001" y1=".5" x2=".999" y2=".5" xlink:href="#b"/><linearGradient id="hq" x1="0" y1=".5" x2="1" y2=".5" xlink:href="#b"/><linearGradient id="hr" x1="-.002" y1=".5" x2="1.001" y2=".5" xlink:href="#b"/><linearGradient id="hs" x1=".001" y1=".499" x2="1" y2=".499" xlink:href="#b"/><linearGradient id="ht" x1="-.001" y1=".499" x2="1.002" y2=".499" xlink:href="#b"/><linearGradient id="hv" x1="-.001" y1=".5" x2="1" y2=".5" xlink:href="#b"/><linearGradient id="hw" x1="0" y1=".5" x2="1" y2=".5" xlink:href="#b"/><linearGradient id="hx" x1="0" y1=".5" x2="1" y2=".5" xlink:href="#b"/><linearGradient id="hz" x1=".006" y1=".505" x2="1.008" y2=".505" xlink:href="#b"/><linearGradient id="ia" x1="-.001" y1=".5" x2="1.001" y2=".5" xlink:href="#b"/><linearGradient id="ic" x1=".001" y1=".5" x2="1" y2=".5" xlink:href="#b"/><linearGradient id="id" x1="0" y1=".5" x2="1.001" y2=".5" xlink:href="#b"/><linearGradient id="ie" x1="3.525" y1="3.009" x2="4.758" y2="3.009" xlink:href="#b"/><linearGradient id="if" x1="0" y1=".5" x2=".999" y2=".5" xlink:href="#b"/><linearGradient id="ig" x1="0" y1=".5" x2="1" y2=".5" xlink:href="#b"/><linearGradient id="ih" x1=".003" y1=".495" x2="1.005" y2=".495" xlink:href="#b"/><linearGradient id="ii" x1=".001" y1=".5" x2="1.001" y2=".5" xlink:href="#b"/><linearGradient id="ij" x1="0" y1=".5" x2="1" y2=".5" xlink:href="#b"/><linearGradient id="ik" x1="0" y1=".5" x2="1" y2=".5" xlink:href="#b"/><linearGradient id="im" x1=".001" y1=".5" x2="1" y2=".5" xlink:href="#b"/><linearGradient id="in" x1="0" y1=".5" x2="1" y2=".5" xlink:href="#b"/><linearGradient id="io" x1="0" y1=".5" x2="1" y2=".5" xlink:href="#b"/><linearGradient id="ip" x1="0" y1=".5" x2="1.002" y2=".5" xlink:href="#b"/><linearGradient id="iq" x1="0" y1=".501" x2="1" y2=".501" xlink:href="#b"/><linearGradient id="ir" x1="-.001" y1=".501" x2=".999" y2=".501" xlink:href="#b"/><linearGradient id="is" x1="-.001" y1=".501" x2=".998" y2=".501" xlink:href="#b"/><linearGradient id="it" x1=".001" y1=".5" x2="1" y2=".5" xlink:href="#b"/><linearGradient id="iu" x1=".002" y1=".5" x2=".999" y2=".5" xlink:href="#b"/><linearGradient id="iw" x1="-.001" y1=".501" x2=".999" y2=".501" xlink:href="#b"/><linearGradient id="iy" x1="0" y1=".5" x2="1" y2=".5" xlink:href="#b"/><linearGradient id="ja" x1="-.001" y1=".5" x2="1.002" y2=".5" xlink:href="#b"/><linearGradient id="jb" x1="0" y1=".5" x2="1" y2=".5" xlink:href="#b"/><linearGradient id="jc" x1="0" y1=".501" x2="1.001" y2=".501" xlink:href="#b"/><linearGradient id="je" x1=".001" y1=".499" x2="1" y2=".499" xlink:href="#b"/><linearGradient id="jf" x1="0" y1=".5" x2="1" y2=".5" xlink:href="#b"/><linearGradient id="jg" x1="0" y1=".502" x2=".999" y2=".502" xlink:href="#b"/><linearGradient id="ji" x1=".001" y1=".501" x2="1.001" y2=".501" xlink:href="#b"/><linearGradient id="jj" x1="0" y1=".501" x2="1" y2=".501" xlink:href="#b"/><linearGradient id="jk" x1="0" y1=".5" x2="1.001" y2=".5" xlink:href="#b"/><linearGradient id="jm" x1="-.001" y1=".5" x2="1.003" y2=".5" xlink:href="#b"/><linearGradient id="jn" x1="0" y1=".499" x2="1" y2=".499" xlink:href="#b"/><linearGradient id="jo" x1="-.001" y1=".499" x2="1" y2=".499" xlink:href="#b"/><linearGradient id="jq" x1="0" y1=".499" x2="1" y2=".499" xlink:href="#b"/><linearGradient id="jr" x1=".001" y1=".5" x2="1.001" y2=".5" xlink:href="#b"/><linearGradient id="js" x1="0" y1=".5" x2="1" y2=".5" xlink:href="#b"/><linearGradient id="jt" x1="-.002" y1=".499" x2=".998" y2=".499" xlink:href="#b"/><linearGradient id="ju" x1=".001" y1=".499" x2="1" y2=".499" xlink:href="#b"/><linearGradient id="jv" x1=".002" y1=".5" x2=".998" y2=".5" xlink:href="#b"/><linearGradient id="jw" x1=".001" y1=".501" x2="1" y2=".501" xlink:href="#b"/><linearGradient id="jx" x1="0" y1=".499" x2="1" y2=".499" xlink:href="#b"/><linearGradient id="jy" x1="-.001" y1=".501" x2=".999" y2=".501" xlink:href="#b"/><linearGradient id="kb" x1=".001" y1=".499" x2="1.001" y2=".499" xlink:href="#b"/><linearGradient id="kc" x1="0" y1=".499" x2="1" y2=".499" xlink:href="#b"/><linearGradient id="kd" x1="-.002" y1=".502" x2=".991" y2=".502" xlink:href="#b"/><linearGradient id="ke" x1=".001" y1=".501" x2="1.001" y2=".501" xlink:href="#b"/><linearGradient id="kf" x1="0" y1=".5" x2="1" y2=".5" xlink:href="#b"/><linearGradient id="kg" x1="0" y1=".501" x2="1" y2=".501" xlink:href="#b"/><linearGradient id="kh" x1="-.001" y1=".499" x2=".999" y2=".499" xlink:href="#b"/><linearGradient id="ki" x1="-.002" y1=".5" x2="1.002" y2=".5" xlink:href="#b"/><linearGradient id="kj" x1=".001" y1=".5" x2="1" y2=".5" xlink:href="#b"/><linearGradient id="kk" x1="0" y1=".5" x2="1" y2=".5" xlink:href="#b"/><linearGradient id="kl" x1="-.001" y1=".5" x2="1.001" y2=".5" xlink:href="#b"/><linearGradient id="km" x1="0" y1=".5" x2="1.001" y2=".5" xlink:href="#b"/><linearGradient id="kn" x1="0" y1=".499" x2=".999" y2=".499" xlink:href="#b"/><linearGradient id="ko" x1="-.001" y1=".5" x2=".999" y2=".5" xlink:href="#b"/><linearGradient id="kp" x1="0" y1=".5" x2="1" y2=".5" xlink:href="#b"/><linearGradient id="kq" x1="0" y1=".5" x2="1.001" y2=".5" xlink:href="#b"/><linearGradient id="kr" x1="0" y1=".5" x2="1.001" y2=".5" xlink:href="#b"/><linearGradient id="ks" x1="0" y1=".501" x2=".999" y2=".501" xlink:href="#b"/><linearGradient id="ku" x1="0" y1=".499" x2="1" y2=".499" xlink:href="#b"/><linearGradient id="kv" x1="0" y1=".499" x2="1" y2=".499" xlink:href="#b"/><linearGradient id="kw" x1="-.001" y1=".499" x2=".999" y2=".499" xlink:href="#b"/><linearGradient id="kx" x1="0" y1=".5" x2="1.001" y2=".5" xlink:href="#b"/><linearGradient id="ky" x1="-.001" y1=".5" x2="1.001" y2=".5" xlink:href="#b"/><linearGradient id="kz" x1="0" y1=".5" x2=".999" y2=".5" xlink:href="#b"/><linearGradient id="la" x1="-.001" y1=".5" x2="1" y2=".5" xlink:href="#b"/><linearGradient id="lc" x1=".001" y1=".5" x2="1.002" y2=".5" xlink:href="#b"/><linearGradient id="ld" x1="-.001" y1=".5" x2=".999" y2=".5" xlink:href="#b"/><linearGradient id="lf" x1="-.001" y1=".5" x2=".999" y2=".5" xlink:href="#b"/><linearGradient id="lh" x1="0" y1=".501" x2="1" y2=".501" xlink:href="#b"/><linearGradient id="lk" x1="0" y1=".5" x2="1" y2=".5" xlink:href="#b"/><linearGradient id="ll" x1="0" y1=".5" x2="1" y2=".5" xlink:href="#b"/><linearGradient id="lm" x1="0" y1=".5" x2="1" y2=".5" xlink:href="#b"/><linearGradient id="ln" x1="0" y1=".5" x2="1" y2=".5" xlink:href="#b"/><linearGradient id="lo" x1="0" y1=".5" x2="1" y2=".5" xlink:href="#b"/><linearGradient id="lp" x1="0" y1=".5" x2="1" y2=".5" xlink:href="#b"/><linearGradient id="lq" x1="0" y1=".5" x2="1" y2=".5" xlink:href="#b"/><linearGradient id="lr" x1="0" y1=".5" x2="1" y2=".5" xlink:href="#b"/><linearGradient id="ls" x1=".5" x2=".5" y2="1" gradientUnits="objectBoundingBox"><stop offset="0" stop-color="#e3ca67"/><stop offset="1" stop-color="#726534"/></linearGradient><linearGradient id="me" x1=".5" x2=".5" y2="1" gradientUnits="objectBoundingBox"><stop offset="0" stop-color="#e0c352"/><stop offset="1" stop-color="#706229"/></linearGradient><linearGradient id="mq" x1="-10.085" y1="4.02" x2="-9.029" y2="4.02" xlink:href="#b"/><clipPath id="a"><path style="fill:#0b6bbb" d="M0 0h1920v800H0z"/></clipPath><style>.d{fill:transparent;stroke:#2a5bd5;stroke-linecap:round;stroke-linejoin:round;stroke-miterlimit:10;stroke-width:.405px}.cl,.cm,.fj,.fr,.gc,.ge,.go,.w{opacity:.4}.w{fill:url(#i)}.cl{fill:url(#bx)}.cm{fill:url(#by)}.fj{fill:url(#ev)}.fr{fill:url(#fd)}.gc{fill:url(#fo)}.ge{fill:url(#fq)}.gt{fill:#e5cf78}.gu{fill:url(#gf)}.ln{fill:url(#ls)}.lo{fill:url(#me)}</style></defs><path d="M0 0h1920v800H0Z" style="fill:#4c7aec"/><g style="clip-path:url(#a)"><path class="d" d="M1908.162 108c-34.471 60.794-75.719 118.71-130.826 158.575-74.627 53.989-183.406 70.427-261.167 9.38-89.531-70.293-146.85-146.044-269.394-134.583-86.407 8.083-181.266 63.412-214.758 150.116-19.871 51.448-26.038 108.032-40.691 161.6-35.138 128.467-123.9 173.862-244.305 131-57.509-20.474-122.717-44.364-174.546-13.951-67.958 39.873-76.71 154.22-149.435 183.7-39.737 16.111-84.646.431-126.994-9.171-100.824-22.859-124.942 72-212.077 76.679-21.871 1.176-43.4-7.885-65.32-9.826-22.629-2-63.972 11.862-50.835 43.622"/><path class="d" d="M1908.984 135.59c-34.268 60.5-77.065 115.867-132.938 152.821-40.038 26.583-89.076 42.574-137.593 42.7-42.827.089-85.382-12.012-121.68-39.767-66.695-51.072-116.636-105.512-188-126.106-23.683-6.854-49.766-9.9-79.565-8.058-86.019 5.308-180.108 55.337-216.851 138.744-22 49.943-30.238 106.021-45.666 159.672-7.877 27.57-17.972 51.639-30.183 72.036-43.715 72.756-114.274 93.628-208.512 70.657-29.838-7.273-62.128-18.964-93.6-26.179-40.86-9.336-82.136-8.081-117.685 12.561-64.158 37.587-74.529 143.616-143.126 172.357-37.422 15.657-79.586 2.475-119.41-5.53-94.31-18.97-118.91 68.043-201.01 71.834-20.653.944-41-7.524-61.728-9.641-21.408-2.19-59.847 9.918-48.773 38.142"/><path class="d" d="M1909.783 163.189c-34.062 60.21-78.406 113.021-135.042 147.069-40.413 24.469-89.172 38.364-137.033 37.126-42.306-1.129-84.18-13.741-120.346-40.646-66.086-49.307-116.874-102.268-187.321-123.809-23.486-7.22-49.251-10.792-78.41-9.94-85.647 2.5-178.994 47.26-218.94 127.375-24.151 48.434-34.436 104-50.641 157.739-8.136 27.265-18.175 51.44-30.145 72.235-42.5 73.339-110 96.74-202.947 82.16-35.207-5.524-73.116-19.6-110.038-28.564-47.517-11.49-96.4-8.87-137.994 15.279-60.471 35.1-72.343 133.007-136.81 161.01-35.108 15.208-74.519 4.523-111.825-1.888-87.786-15.086-112.883 64.1-189.944 67-19.433.714-38.61-7.159-58.139-9.452-20.184-2.375-55.717 7.967-46.7 32.653"/><path class="d" d="M1910.562 190.786c-33.857 59.924-79.811 110.058-137.144 141.322-40.833 22.263-89.267 34.146-136.474 31.546-41.785-2.347-82.976-15.468-119.009-41.527-65.48-47.543-117.116-99.022-186.646-121.511-23.29-7.583-48.741-11.7-77.25-11.825-85.287-.364-177.924 39.184-221.023 116-26.329 46.927-38.632 101.989-55.612 155.811-8.392 26.962-18.332 51.257-30.1 72.43-41.142 74-106.354 101.461-197.385 93.666-40.8-3.494-84.107-20.238-126.478-30.948-54.172-13.641-110.621-9.582-158.3 18-56.688 32.783-70.15 122.4-130.489 149.656-32.791 14.756-69.442 6.561-104.239 1.755-81.239-11.221-106.844 60.147-178.869 62.153-18.217.482-36.216-6.8-54.545-9.265-18.962-2.561-51.588 6.019-44.635 27.167"/><path class="d" d="M1911.33 218.386c-33.653 59.629-81.152 107.18-139.239 135.557-41.205 20.132-89.359 29.931-135.907 25.969-41.262-3.565-81.77-17.195-117.671-42.4-64.876-45.776-117.36-95.772-185.972-119.2-23.1-7.951-48.235-12.637-76.093-13.709-84.935-3.274-176.895 31.085-223.094 104.613-28.536 45.411-42.948 99.935-60.58 153.877-8.705 26.634-18.523 51.058-30.057 72.625-39.9 74.59-102.968 107.31-191.82 105.172-46.51-1.12-95.1-20.872-142.918-33.334-60.827-15.8-124.836-10.286-178.614 20.711-52.886 30.485-67.949 111.776-124.151 138.293-30.478 14.3-64.36 8.594-96.654 5.4-74.675-7.381-100.8 56.193-167.788 57.306-17 .248-33.824-6.435-50.952-9.075-17.74-2.75-47.454 4.072-42.56 21.676"/><path class="d" d="M1912.096 245.996c-33.444 59.34-82.482 104.312-141.332 129.8-41.574 18-89.448 25.713-135.338 20.388a259.476 259.476 0 0 1-116.335-43.284c-64.268-44.012-117.6-92.523-185.3-116.9a277.959 277.959 0 0 0-74.934-15.594c-84.587-6.242-175.908 22.967-225.162 93.227-30.765 43.886-47.153 97.913-65.545 151.941-8.963 26.331-18.716 50.856-30.017 72.823-38.675 75.174-99.638 113.959-186.253 116.685-52.241 1.641-106.088-21.511-159.36-35.722-67.482-17.952-139.048-10.977-198.926 23.431-49.075 28.2-65.743 101.158-117.813 126.927-28.16 13.853-59.263 10.611-89.066 9.047-68.085-3.574-94.763 52.235-156.7 52.455-15.779.018-31.426-6.071-47.356-8.886-16.515-2.937-43.32 2.121-40.485 16.18"/><path class="d" d="M1912.838 273.618c-33.239 59.045-83.808 101.452-143.423 124.031-41.937 15.879-89.533 21.495-134.766 14.809a284.616 284.616 0 0 1-115-44.165c-63.664-42.239-117.848-89.269-184.622-114.6a296.286 296.286 0 0 0-73.773-17.48c-84.237-9.271-174.964 14.821-227.228 81.835-33.023 42.344-51.342 95.892-70.51 150-9.22 26.02-18.913 50.651-29.974 73.014-37.459 75.756-99.248 103.85-180.69 128.2-55.886 16.707-117.081-22.145-175.8-38.108-74.143-20.1-153.254-11.654-219.245 26.152-45.255 25.926-63.536 90.528-111.471 115.562-25.841 13.4-54.153 12.608-81.477 12.692-61.468.183-88.717 48.279-145.614 47.608-14.56-.216-29.032-5.713-43.762-8.7-15.29-3.122-39.186.171-38.408 10.688"/><path class="d" d="M1913.58 301.248c-33.029 58.754-85.128 98.609-145.511 118.267a279.182 279.182 0 0 1-134.197 9.224 316.487 316.487 0 0 1-113.66-45.045c-63.06-40.473-118.094-86.017-183.948-112.3a318.707 318.707 0 0 0-72.611-19.365c-83.875-12.364-174.053 6.641-229.289 70.441-35.307 40.778-55.528 93.87-75.479 148.068-9.466 25.715-19.113 50.448-29.927 73.209-36.261 76.327-95.778 114.225-175.127 139.713-61.2 19.656-128.074-22.78-192.245-40.5-80.8-22.261-167.451-12.32-239.566 28.874-41.429 23.663-61.323 79.9-105.124 104.188-23.522 12.95-49.036 14.581-73.891 16.339-54.83 3.877-82.666 44.321-134.521 42.757-13.34-.447-26.636-5.351-40.168-8.516-14.067-3.309-35.049-1.778-36.327 5.193"/><path class="d" d="M1914.308 328.892c-32.82 58.461-86.442 95.776-147.6 112.5a286.128 286.128 0 0 1-133.614 3.638c-39.17-8.447-76.942-24.116-112.322-45.928-62.458-38.7-118.342-82.763-183.275-109.989a346.566 346.566 0 0 0-71.45-21.253c-83.495-15.517-173.175-1.576-231.345 59.043-37.609 39.19-59.594 91.891-80.44 146.13-9.661 25.428-19.363 50.22-29.882 73.4-35.217 76.83-91.734 125.335-169.565 151.233-66.69 22.188-139.072-23.417-208.689-42.883-87.459-24.421-181.632-12.96-259.885 31.591-37.6 21.405-59.11 69.27-98.772 92.812-21.2 12.5-43.91 16.513-66.3 19.985-48.179 7.475-76.617 40.363-123.428 37.9-12.12-.677-24.238-4.987-36.573-8.327-12.843-3.492-30.911-3.73-34.246-.3"/><path class="d" d="M1914.967 356.471c-32.6 58.158-87.717 93.044-149.654 106.708-42.991 9.641-89.784 8.829-133.031-1.944-38.645-9.667-75.733-25.841-110.981-46.8-61.856-36.924-118.6-79.492-182.61-107.662a381.741 381.741 0 0 0-70.284-23.136c-83.088-18.735-172.308-9.838-233.377 47.635-39.92 37.567-63.768 89.851-85.376 144.161-9.909 25.119-19.55 50.008-29.824 73.588-33.989 77.4-87.117 136.926-163.973 162.724-72.363 24.291-150.057-24.049-225.123-45.259-94.114-26.575-195.792-13.568-280.188 34.306-33.753 19.147-56.877 58.62-92.393 81.416-18.881 12.043-38.789 18.385-58.706 23.63-41.543 10.943-70.553 36.4-112.318 33.041-10.9-.909-21.842-4.623-32.975-8.136-11.617-3.682-26.773-5.681-32.161-5.8"/><path class="d" d="M1915.62 384.053c-32.378 57.855-89.023 90.172-151.713 100.917-43.355 7.519-89.859 4.609-132.447-7.529-38.118-10.884-74.521-27.564-109.641-47.671-61.254-35.151-118.848-76.223-181.937-105.335a427.01 427.01 0 0 0-69.123-25.015c-82.644-22.023-171.46-18.141-235.409 36.222-42.245 35.915-67.937 87.815-90.308 142.2-10.157 24.808-19.739 49.795-29.765 73.769-32.756 77.962-80.824 152.807-158.374 174.216-79.392 21.916-161.048-24.68-241.562-47.641-100.767-28.725-209.838-13.979-300.482 37.024-29.882 16.943-54.646 47.974-86.019 70.022-16.558 11.587-33.7 20.177-51.109 27.275-34.983 14.264-64.49 32.425-101.208 28.18-9.681-1.139-19.445-4.259-29.379-7.947-10.391-3.866-22.633-7.631-30.077-11.3"/><path class="d" d="M1916.253 411.635c-54.318 97.209-182.869 115.1-285.627 82.012S1439.09 389.494 1341.05 342.1s-219.571-67.98-305.4-2.081c-64.634 49.626-93.42 135.643-124.944 214.173s-76.354 161-152.77 185.706c-84.223 27.226-172.036-25.312-258-50.021-107.422-30.873-224.019-14.63-320.775 39.737-80.435 45.2-163.54 166.927-267.03 88.317"/><path class="d" d="M1916.485 427.912c-61.84 103.348-200.712 122.371-311.293 83.706-98.733-34.524-184.856-103.076-280.336-147.818-98.347-46.087-217.685-59.175-300.733 8.927-63.031 52.093-93.522 136.261-130.44 206.847-36.539 69.874-82.061 140.563-157.113 159.057-82.27 20.274-168.346-31.176-253.222-53.659-104.4-27.659-216.14-8.815-309.493 44.781-78.119 44.954-168.558 171.7-267.36 86.9"/><path class="d" d="M1916.713 444.19c-69.371 109.49-218.57 129.844-336.963 85.392-94.807-35.6-178.2-101.951-271.1-144.092-98.674-44.754-216.048-50.643-296.071 19.945-61.609 54.355-93.388 136.667-135.922 199.519C835.348 666 788.952 725.086 715.226 737.342c-80.257 13.343-164.63-37.074-248.434-57.312-101.359-24.476-208.264-2.992-298.206 49.833-75.8 44.708-173.571 176.478-267.678 85.48"/><path class="d" d="M1916.838 460.317c-76.864 115.6-236.408 137.485-362.576 87.06-90.968-36.359-171.568-100.751-261.866-140.307-99.024-43.375-214.25-41.881-291.372 30.969-60.069 56.741-92.879 136.864-141.338 192.109-45.706 52.107-93.256 99.681-165.684 105.654-78.19 6.448-160.89-42.987-243.636-60.937-98.292-21.324-200.364 2.835-286.871 54.872-73.456 44.451-178.524 181.2-267.947 84.038"/><path class="d" d="M1916.958 476.445c-84.359 121.71-254.314 145.34-388.189 88.724-87.213-36.885-164.964-99.508-252.634-136.517-99.394-41.958-212.432-33.082-286.674 41.988-58.5 59.157-91.956 137.05-146.748 184.705-49.683 43.207-98.77 79.278-169.929 78.914-76.085-.393-157.133-48.934-238.838-64.565-95.208-18.212-192.465 8.669-275.538 59.916-71.115 44.2-183.471 185.921-268.209 82.587"/><path class="d" d="M1917.068 492.576c-91.854 127.818-272.315 153.436-413.8 90.384-83.535-37.223-158.382-98.219-243.406-132.724-99.789-40.5-210.587-24.251-281.978 53.016-56.911 61.6-90.62 137.414-152.154 177.291-53.264 34.514-104.263 58.939-174.173 52.168-73.958-7.159-153.364-54.918-234.038-68.192-92.106-15.151-184.565 14.5-264.2 64.956-68.776 43.931-188.424 190.641-268.475 81.14"/><path class="d" d="M1917.198 508.708c-99.349 133.928-290.433 161.779-439.416 92.047-79.927-37.41-151.818-96.886-234.174-128.933-100.206-38.99-208.71-15.385-277.28 64.046-55.3 64.063-88.972 138.151-157.56 169.874-56.57 26.166-109.752 38.666-178.415 25.417-71.826-13.851-149.578-60.951-229.238-71.82-88.988-12.141-176.763 20.183-252.862 70C81.738 772.885-45.11 924.7-120.479 809.032"/><path class="d" d="M1917.292 524.845c-106.842 140.036-308.693 170.4-465.029 93.709-76.381-37.47-145.275-95.509-224.942-125.134-100.645-37.43-206.8-6.5-272.583 75.076-53.663 66.549-87.194 139.389-162.964 162.449-59.763 18.2-115.255 18.454-182.645-1.336-69.719-20.471-145.784-67.028-224.436-75.445-85.866-9.191-168.861 26.024-241.521 75.042-64.171 43.288-198.309 200.077-268.995 78.241"/><path class="d" d="M1917.402 540.985c-114.338 146.146-327.127 179.315-490.643 95.373-72.91-37.432-138.749-94.085-215.712-121.342-101.107-35.805-204.864 2.418-267.885 86.108-51.991 69.046-86.908 133.869-168.365 155.032-61.96 16.1-120.8-1.694-186.877-28.1-67.651-27.029-141.987-73.162-219.632-79.069-82.738-6.293-160.865 32-230.186 80.088-61.739 43.156-203.251 204.794-269.25 76.791"/><path class="d" d="M1917.237 557.383c-121.763 152.179-345.666 188.47-516.15 97-69.5-37.29-132.25-92.558-206.5-117.472-101.589-34.087-202.856 11.347-263.117 97.1-50.264 71.527-83.92 143.195-173.687 147.539-66.509 3.22-126.388-21.779-191.1-54.824-65.638-33.526-138.194-79.324-214.826-82.649-79.6-3.456-152.933 37.825-218.786 85.089-59.371 42.877-208.1 209.409-269.45 75.31"/><path class="d" d="M1917.093 573.784c-129.181 158.211-364.427 197.983-541.647 98.625-66.145-37.08-125.766-90.989-197.276-113.607-102.1-32.294-200.654 20.382-258.346 108.079-48.369 74.1-82.637 145.519-179.018 140.054-70.211-3.982-132.043-41.809-195.339-81.534-63.692-39.973-134.41-85.541-210.025-86.218-76.468-.687-144.991 43.642-207.383 90.095-57 42.595-212.935 214.02-269.643 73.834"/><path class="d" d="M1916.935 590.19c-136.594 164.24-383.465 207.88-567.141 100.252-62.857-36.832-119.284-89.377-188.059-109.761-102.618-30.411-198.724 29.218-253.564 119.055-46.709 76.518-81.628 147.976-184.347 132.58-74.149-11.115-137.778-61.813-199.591-108.221s-130.649-91.842-205.227-89.8c-73.348 2.012-137.056 49.457-195.983 95.1-54.639 42.315-217.769 218.641-269.838 72.352"/><path d="M2050.241 786.223c-79.12 93.906-197.748 151.9-316.615 157.387-90.457 4.174-182.34-14.461-260.979-49.85-18.9-8.506-37.154-17.972-55.081-27.309-41.4-21.564-80.824-43.522-126.411-51.406a187 187 0 0 0-40.518-2.646c-82.783 3.783-161.126 59.856-212.657 132.643-13.383 18.779-26.179 36.948-39.405 53.36-37.329 46.315-78.847 78.355-154.233 66.017-51.739-8.622-98.886-35.049-143.919-65.924-20.27-13.894-40.119-28.691-59.791-43.17-63.044-46.447-132.3-92.589-206.789-95.531a212.814 212.814 0 0 0-59.671 6.657c-31.819 7.959-62.055 22.212-91.5 39.658a528.768 528.768 0 0 0-47.831 32.484c-23.529 17.693-61.986 57.16-102.828 88.85C69.6 1075.866-1 1109.249-36.689 1027.089" transform="translate(-107 -223.941)" style="stroke-width:.41px;fill:transparent;stroke:#2a5bd5;stroke-linecap:round;stroke-linejoin:round;stroke-miterlimit:10"/><path d="M2074.953 772.507c-80.061 93.817-203.031 155.24-322.843 157.036-92.828 1.393-186.312-17.474-265.21-42.21-18.783-5.888-36.859-12.228-54.444-18.248-40.306-13.8-77.281-27.859-120.492-29.394a193.372 193.372 0 0 0-38.5 2.343c-79.51 13.139-158.215 70.474-214.291 138.6-14.563 17.691-28.823 34.422-43.345 49.465-40.591 42.053-84.841 70.175-159.576 56.7-52.368-9.441-100.5-35.943-146.581-66.763-20.748-13.878-41.089-28.652-61.252-43.211-64.28-46.49-133.926-93.544-208.35-101.267a233.85 233.85 0 0 0-59.511 1.841c-32.018 4.849-62.657 15.395-92.918 30.161a328.588 328.588 0 0 0-49.574 30.482c-25.3 18.513-63.187 59.342-102.545 92.172-60.9 50.8-130.616 88.813-170.68 12.486" transform="translate(-105.414 -238.122)" style="stroke-width:.416px;fill:transparent;stroke:#2a5bd5;stroke-linecap:round;stroke-linejoin:round;stroke-miterlimit:10"/><path d="M2099.327 758.691c-80.938 93.664-208.209 158.413-328.933 156.592-95.192-1.434-190.093-20.532-269.416-34.532-18.625-3.285-36.473-6.486-53.812-9.177-39.017-6.055-73.7-12.191-114.569-7.353a218.711 218.711 0 0 0-36.468 7.336c-76.266 22.568-155.392 80.971-215.824 144.482-15.769 16.57-31.43 31.88-47.256 45.54-43.76 37.782-90.762 61.823-164.86 47.354-52.978-10.342-102.107-36.812-149.246-67.561-21.228-13.845-42.07-28.589-62.722-43.219-65.519-46.5-135.567-94.3-209.916-106.938a266.969 266.969 0 0 0-59.346-2.972 300.432 300.432 0 0 0-94.3 20.638c-17.935 7-35.022 16.853-51.3 28.467-27.061 19.31-64.34 61.512-102.2 95.44C79.808 1085.97 11 1128.559-33.469 1058.116" transform="translate(-103.671 -252.407)" style="stroke-width:.421px;fill:transparent;stroke:#2a5bd5;stroke-linecap:round;stroke-linejoin:round;stroke-miterlimit:10"/><path d="M2123.642 744.889c-81.817 93.512-213.39 161.518-335.016 156.149-97.561-4.31-193.73-23.734-273.616-26.856-18.429-.72-35.994-.805-53.175-.108-37.53 1.523-70.081 3.423-108.634 14.681a281.088 281.088 0 0 0-34.438 12.33c-73.034 32.077-152.587 91.441-217.346 150.346a564.477 564.477 0 0 1-51.161 41.616c-46.874 33.541-96.681 53.448-170.146 38.006-53.58-11.264-103.716-37.677-151.908-68.346-21.71-13.814-43.046-28.53-64.193-43.227-66.762-46.506-137.207-95.019-211.486-112.6a315.483 315.483 0 0 0-59.175-7.786c-32.427-1.43-63.939 1.625-95.68 11.122-18.714 5.6-36.346 14.832-53.018 26.451-28.834 20.093-65.475 63.7-101.852 98.7-57.77 55.595-125.698 102.721-174.565 38.164" transform="translate(-101.912 -266.677)" style="stroke-width:.427px;fill:transparent;stroke:#2a5bd5;stroke-linecap:round;stroke-linejoin:round;stroke-miterlimit:10"/><path d="M2147.934 731.1c-82.7 93.355-218.566 164.557-341.1 155.7-99.927-7.222-197.285-27.122-277.806-19.18a370.447 370.447 0 0 0-52.534 8.956c-35.95 8.841-66.454 18.979-102.693 36.7-10.573 5.168-21.458 10.778-32.4 17.315-69.788 41.673-149.8 101.888-218.859 156.208a492.814 492.814 0 0 1-55.067 37.693c-49.939 29.344-102.593 45.056-175.43 28.662-54.184-12.193-105.327-38.541-154.577-69.135-22.19-13.782-44.02-28.465-65.661-43.231C603.8 994.28 532.95 945.083 458.748 922.535a387.4 387.4 0 0 0-59.012-12.594c-32.638-4.595-64.624-5.325-97.063 1.611-19.509 4.172-37.676 12.806-54.743 24.438-30.61 20.864-66.591 65.9-101.495 101.955-56.167 58.028-123.217 109.661-176.5 50.988" transform="translate(-100.149 -280.93)" style="stroke-width:.432px;fill:transparent;stroke:#2a5bd5;stroke-linecap:round;stroke-linejoin:round;stroke-miterlimit:10"/><path d="M2172.176 717.333c-83.574 93.2-223.718 167.537-347.159 155.244-102.288-10.188-200.848-30.731-281.994-11.514a272.066 272.066 0 0 0-51.89 18.015c-34.428 15.905-62.842 34.475-96.74 58.707-9.812 7.013-20.032 14.321-30.369 22.3-66.485 51.338-147.031 112.305-220.364 162.067a445.983 445.983 0 0 1-58.976 33.767c-52.974 25.2-108.5 36.649-180.713 19.33-54.782-13.141-106.938-39.409-157.241-69.923-22.67-13.751-45-28.4-67.13-43.239-69.247-46.516-140.51-96.374-214.632-123.907a495.991 495.991 0 0 0-58.846-17.4c-32.852-7.78-65.322-12.317-98.452-7.893-20.309 2.711-39.007 10.768-56.462 22.422-32.4 21.621-67.688 68.112-101.136 105.211-54.535 60.487-120.741 116.6-178.42 63.8" transform="translate(-98.377 -295.168)" style="stroke-width:.438px;fill:transparent;stroke:#2a5bd5;stroke-linecap:round;stroke-linejoin:round;stroke-miterlimit:10"/><path d="M2196.41 703.565c-84.449 93.042-228.872 170.472-353.234 154.8-104.644-13.188-204.5-34.526-286.174-3.85a234.682 234.682 0 0 0-51.239 27.07c-33.07 22.815-59.266 49.927-90.782 80.7-9.059 8.85-18.592 17.866-28.329 27.287-63.113 61.046-144.271 122.689-221.863 167.921a415.926 415.926 0 0 1-62.883 29.848c-56 21.116-114.406 28.223-186 9.993-55.376-14.1-108.545-40.268-159.9-70.707-23.152-13.721-45.975-28.345-68.6-43.247-70.49-46.522-142.176-97.02-216.207-129.557-19.786-8.7-39.405-15.8-58.687-22.2-33.057-10.987-66.023-19.361-99.841-17.4-21.108 1.227-40.345 8.734-58.187 20.408-34.186 22.373-68.763 70.346-100.771 108.463-52.874 62.973-118.261 123.533-180.333 76.616" transform="translate(-96.597 -309.403)" style="stroke-width:.444px;fill:transparent;stroke:#2a5bd5;stroke-linecap:round;stroke-linejoin:round;stroke-miterlimit:10"/><path d="M2220.6 689.8c-85.3 92.885-233.987 173.354-359.283 154.347-106.991-16.231-208.294-38.449-290.349 3.808-17.646 9.086-34.239 20.9-50.588 36.12-31.888 29.691-55.728 65.364-84.809 102.683-8.321 10.68-17.144 21.415-26.291 32.268-59.665 70.777-141.509 133.037-223.358 173.777a397.919 397.919 0 0 1-66.79 25.929c-59.015 17.087-120.3 19.784-191.289.665-55.966-15.076-110.156-41.134-162.568-71.5-23.632-13.692-46.953-28.282-70.075-43.254-71.727-46.528-143.85-97.649-217.777-135.207-19.668-9.99-39.234-18.771-58.528-27.01-33.253-14.2-66.711-26.439-101.239-26.895-21.9-.287-41.683 6.694-59.905 18.4-35.986 23.109-69.821 72.585-100.408 111.716-51.179 65.476-115.776 130.468-182.241 89.424" transform="translate(-94.812 -323.634)" style="stroke-width:.449px;fill:transparent;stroke:#2a5bd5;stroke-linecap:round;stroke-linejoin:round;stroke-miterlimit:10"/><path d="M2244.781 676.039c-86.177 92.731-239.1 176.2-365.348 153.9-109.322-19.315-212.243-42.439-294.519 11.461-17.512 11.473-33.983 26.244-49.927 45.165-30.843 36.6-52.219 80.808-78.829 124.659q-11.386 18.766-24.248 37.244c-56.147 80.5-138.746 143.357-224.851 179.626a388.784 388.784 0 0 1-70.7 22.017c-62.051 13.1-126.2 11.333-196.585-8.66-56.549-16.064-111.762-42-165.228-72.286-24.114-13.658-47.928-28.223-71.541-43.262-72.969-46.54-145.548-98.265-219.359-140.86-19.554-11.282-39.058-21.743-58.372-31.811-33.43-17.425-67.382-33.546-102.634-36.387-22.68-1.827-43.028 4.651-61.626 16.385-37.788 23.836-70.858 74.836-100.044 114.966-49.448 67.992-113.288 137.394-184.139 102.221" transform="translate(-93.022 -337.863)" style="stroke-width:.455px;fill:transparent;stroke:#2a5bd5;stroke-linecap:round;stroke-linejoin:round;stroke-miterlimit:10"/><path d="M2268.939 662.279c-87.052 92.576-244.149 178.774-371.412 153.448-111.593-22.629-216.331-46.435-298.68 19.109-17.41 13.853-33.769 31.613-49.264 54.206-29.882 43.577-48.827 96.211-72.839 146.624-6.9 14.333-14.207 28.5-22.206 42.22-52.573 90.2-136.013 153.527-226.338 185.472a389.007 389.007 0 0 1-74.609 18.1c-65.1 9.157-132.063 2.776-201.874-17.984-57.1-17.144-113.373-42.861-167.891-73.075-24.594-13.629-48.9-28.162-73.012-43.27-74.212-46.547-147.315-98.784-220.942-146.506q-29.188-18.821-58.213-36.609c-33.566-20.712-68.039-40.681-104.04-45.875-23.445-3.384-44.388 2.579-63.349 14.374-39.623 24.5-71.871 77.092-99.671 118.216-47.68 70.529-110.794 144.326-186.035 115.015" transform="translate(-91.227 -352.09)" style="stroke-width:.46px;fill:transparent;stroke:#2a5bd5;stroke-linecap:round;stroke-linejoin:round;stroke-miterlimit:10"/><path d="M2293.017 648.518c-87.906 92.438-249.23 181.821-377.432 153.069-137.933-30.93-265.1-60.78-351.418 90.066-37.213 65.029-53.444 147.376-86.959 215.784-62.163 126.9-181.26 195.93-306.3 205.569s-255.52-34.831-377.739-101.086-238.02-153.982-355.107-236.767c-33.763-23.874-68.68-47.818-105.453-55.341-75.963-15.541-125.562 72.056-164.349 133.861-45.86 73.077-108.273 151.265-187.9 127.836" transform="translate(-89.372 -366.318)" style="stroke-width:.466px;fill:transparent;stroke:#2a5bd5;stroke-linecap:round;stroke-linejoin:round;stroke-miterlimit:10"/></g><path d="m0 .751 2.892 2.237L5.72 1.822 1.055 0Z" transform="rotate(90 -169.994 542.124)" style="fill:url(#b);opacity:.4"/><path d="M2.892 2.988 5.72 1.822 1.055 0 0 .751Z" transform="rotate(90 -103.658 485.949)" style="fill:url(#c);opacity:.4"/><path d="m0 .751 2.876 2.237L5.7 1.822 1.039 0Z" transform="rotate(90 -128.76 465.704)" style="fill:url(#d)"/><path d="M10.37 5.88 6.2 1.965 0 0l4.186 3.915Z" transform="rotate(90 -146.889 473.462)" style="fill:url(#e)"/><path d="M2.029 11.76 6.04 6.5 4.011 0 0 5.241Z" transform="rotate(90 -202.902 572.905)" style="fill:url(#f);opacity:.4"/><path d="m1.917 4.378 5.114 3.308-1.918-4.378L0 0Z" transform="rotate(90 -126.548 514.048)" style="fill:url(#g);opacity:.4"/><path d="M1.342 7.766 3.995 4.3 2.652 0 0 3.467Z" transform="rotate(90 -181.163 597.984)" style="fill:url(#h);opacity:.4"/><path class="w" d="m400.906 756.937.511-6.455-2.109-4.634-.511 6.439Z"/><path d="M11.089 5.081 4.075 0 0 6.248l7.015 5.081Z" transform="rotate(90 -118.136 490.343)" style="fill:url(#j);opacity:.4"/><path d="M10.242 4.043 3.164 0 0 6.264l7.079 4.043Z" transform="rotate(90 -234.548 526.847)" style="fill:url(#k)"/><path d="M7.462 8.676 7.622 0 .176.24 0 8.9Z" transform="rotate(90 -151.483 494.69)" style="fill:url(#l)"/><path d="M11.089 5.081 4.059 0 0 6.248l7.015 5.081Z" transform="rotate(90 -127.53 445.924)" style="fill:url(#m);opacity:.4"/><path d="m0 6.248 7.015 5.081 4.075-6.248L4.075 0Z" transform="rotate(90 -80.737 467.741)" style="fill:url(#n);opacity:.4"/><path d="M7.67 8.117 6.951 0 0 .975l.719 8.117Z" transform="rotate(90 -103.802 504.454)" style="fill:url(#o);opacity:.4"/><path d="M8.581 3.356 4.25 0 0 1.758 7 4.49Z" transform="rotate(90 -139.755 524.426)" style="fill:url(#p);opacity:.4"/><path d="m2.013 11.648 3.979-5.209L3.979 0 0 5.193Z" transform="rotate(90 -201.423 549.856)" style="fill:url(#q)"/><path d="m3.755 21.763 7.43-9.715L7.43 0 0 9.715Z" transform="rotate(90 -152.225 409.132)" style="fill:url(#r);opacity:.4"/><path d="m3.659 7.366.7-.911L2.349 0 0 3.084l1.486 2.109Z" transform="rotate(90 -214.303 514.112)" style="fill:url(#s)"/><path d="m2 11.648 3.992-5.193L3.979 0 0 5.209Z" transform="rotate(90 -185.334 547.492)" style="fill:url(#t);opacity:.4"/><path d="M5.7 2.237 2.828 0 0 1.166l4.666 1.822Z" transform="rotate(90 -193.402 560.705)" style="fill:url(#u);opacity:.4"/><path d="M9.044 3.691 15.563.735 6.519 0 0 2.972Z" transform="rotate(90 -177.2 502.543)" style="fill:url(#v)"/><path d="M6.184 1.965 0 0l4.186 3.915L10.37 5.9Z" transform="rotate(90 -53.03 465.584)" style="fill:url(#w);opacity:.4"/><path d="M10.786 1.534 3.8 0 0 3.707l6.983 1.534Z" transform="rotate(90 -148.631 558.005)" style="fill:url(#x);opacity:.4"/><path d="M1.071 10.434 4.554 7.27 3.467 0 0 3.148Z" transform="rotate(90 -217.122 535.435)" style="fill:url(#y)"/><path d="m.863 4.618 6.759 2.924-.863-4.634L0 0Z" transform="rotate(90 -156.844 519.72)" style="fill:url(#z);opacity:.4"/><path d="m.847 4.618 6.775 2.924-.863-4.634L0 0Z" transform="rotate(90 -168.293 465.082)" style="fill:url(#aa)"/><path d="M6.184 1.965 0 0l4.186 3.915L10.37 5.9Z" transform="rotate(90 -206.089 482.57)" style="fill:url(#ab)"/><path d="M2.652 0 0 3.467l1.326 4.3L3.979 4.3Z" transform="rotate(90 -188.985 517.011)" style="fill:url(#ac)"/><path d="m6.439 2.621 4.65-2.11L4.65 0 0 2.109Z" transform="rotate(90 -177.313 528.749)" style="fill:url(#ad)"/><path d="M1.869 0 0 3.132 1.486 5.8 2.748.943Z" transform="rotate(90 143.324 218.098)" style="fill:url(#ae);opacity:.4"/><path d="m4.618 0-3.4 4.618L0 10.993l3.4-4.617Z" transform="rotate(90 150.091 258.597)" style="fill:url(#af);opacity:.4"/><path d="M4.123 0 0 1.838l3.755 2.221 4.107-1.838Z" transform="rotate(90 66.059 201.617)" style="fill:url(#ag)"/><path d="M7.862 2.221 4.107 0 0 1.838l3.755 2.221Z" transform="rotate(90 88.501 203.318)" style="fill:url(#ah)"/><path d="M3.164 0 0 7.51l6.583 2.4 3.18-7.51Z" transform="rotate(90 -280.718 445.347)" style="fill:url(#ai)"/><path d="M5.944 0 0 14.093 12.368 18.6l5.944-14.094Z" transform="rotate(90 23.852 126.573)" style="fill:url(#aj)"/><path d="M3.164 0 0 7.51l6.6 2.4L9.763 2.4Z" transform="rotate(90 -47.734 87.074)" style="fill:url(#ak)"/><path d="M3.18 0 0 7.51l6.6 2.413 3.18-7.51Z" transform="rotate(90 102.516 232.272)" style="fill:url(#al)"/><path d="M9.763 2.4 3.164 0 0 7.51l6.6 2.413Z" transform="rotate(90 91.057 269.07)" style="fill:url(#am);opacity:.4"/><path d="M3.18 0 0 7.51l6.6 2.4L9.779 2.4Z" transform="rotate(90 6.986 162.694)" style="fill:url(#an)"/><path d="M10.37 2.4 3.356 0 0 7.51l7 2.4Z" transform="rotate(90 82.229 94.847)" style="fill:url(#ao)"/><path d="M9.779 6.775 7.973 0 0 1.678l1.79 6.791Z" transform="rotate(90 -82.91 171.162)" style="fill:url(#ap)"/><path d="M1.039.623 0 0l.256.975Z" transform="rotate(90 -125.302 273.584)" style="fill:url(#aq)"/><path d="m0 10.993 3.387-4.618L4.6 0 1.214 4.618Z" transform="rotate(90 -132.347 289.26)" style="fill:url(#ar)"/><path d="M9.571 1.694 1.087 0 0 7.382l8.5 1.694Z" transform="rotate(90 -143.892 299.239)" style="fill:url(#as)"/><path d="m9.779 6.791-.591-2.205L5.944 6.04 2.269 3.851 6.3 2.045l2.632 1.566L7.989 0 0 1.694l1.806 6.775Z" transform="rotate(90 -119.03 270.924)" style="fill:url(#at)"/><path d="m0 1.806 3.675 2.189 3.244-1.454-.256-.975L4.027 0Z" transform="rotate(90 -121.188 271.036)" style="fill:url(#au)"/><path d="m0 10.993 3.4-4.618L4.618 0 1.23 4.618Z" transform="rotate(90 116.712 142.752)" style="fill:url(#av)"/><path d="m8.5 9.076 1.087-7.382L1.087 0 0 7.382Z" transform="rotate(90 105.168 152.73)" style="fill:url(#aw)"/><path d="m6.232 5.656.24-.719.928-2.652L1.71 0 0 4.985 5.672 7.27Z" transform="rotate(90 107.86 127.093)" style="fill:url(#ax)"/><path d="M7.973 10.4 3.276 0 0 8.868Z" transform="rotate(90 -52.934 134.586)" style="fill:url(#ay)"/><path d="m0 10.993 4.3-3.5L4.618 0l-3.4 4.618Z" transform="rotate(90 -21.424 149.032)" style="fill:url(#az)"/><path d="M9.587 1.694 1.087 0 0 7.382 8.5 9.06Z" transform="rotate(90 -32.968 159.01)" style="fill:url(#ba)"/><path d="m9.188 4.57-.256-.959L7.973 0 0 1.678l1.79 6.791 7.973-1.678Z" transform="rotate(90 -7.786 129.881)" style="fill:url(#bb)"/><path d="M1.039.623 0 0l.256.975Z" transform="rotate(90 -269.709 478.696)" style="fill:url(#bc)"/><path d="m0 10.993 3.4-4.617L4.618 0 1.23 4.618Z" transform="rotate(90 -276.755 494.355)" style="fill:url(#bd)"/><path d="M5.944 6.04 2.269 3.867 6.3 2.061l2.637 1.55L7.973 0 0 1.694l1.806 6.791 7.973-1.694-.591-2.205Z" transform="rotate(90 -263.436 476.035)" style="fill:url(#be)"/><path d="m0 1.806 3.675 2.173 3.244-1.454-.256-.975L4.027 0Z" transform="rotate(90 -265.603 476.138)" style="fill:url(#bf)"/><path d="M.192.895 1.007 0 0 .064Z" transform="rotate(90 -259.075 387.674)" style="fill:url(#bg)"/><path d="m3.883 4.218 6.024 2.429-3.883-4.218L0 0Z" transform="rotate(90 -267.136 373.907)" style="fill:url(#bh)"/><path d="M3.292 0 0 8.021l7.031 2.493 3.292-8.021Z" transform="rotate(90 -275.18 360.445)" style="fill:url(#bi)"/><path d="M0 .447.128 8.6 2.4 8.453l-.8-3.468 2.844-3.2.989 4.315L3.4 8.389l3.723-.24L7.015 0Z" transform="rotate(90 -253.683 390.668)" style="fill:url(#bj)"/><path d="M2.844 0 0 3.2l.8 3.463L1.806 6.6l2.029-2.286Z" transform="rotate(90 -255.376 390.574)" style="fill:url(#bk)"/><path d="M9.779 6.791 7.973 0 0 1.694l1.79 6.775Z" transform="rotate(90 51.861 218.098)" style="fill:url(#bl);opacity:.4"/><path d="M11.808 3.324 6.168 0 0 2.748l5.64 3.34Z" transform="rotate(90 135.998 183.194)" style="fill:url(#bm)"/><path d="M6.168 0 0 2.748l5.624 3.34 6.168-2.764Z" transform="rotate(90 30.826 100.678)" style="fill:url(#bn)"/><path d="m0 3.371 3.6 3.2L7.941 3.2 4.346 0Z" transform="rotate(90 90.507 279.002)" style="fill:url(#bo);opacity:.4"/><path d="m.272 6.455 2.812 4.362-.272-6.455L0 0Z" transform="rotate(90 137.565 148.52)" style="fill:url(#bp)"/><path d="M1.246 0 0 4.842l.863.958 1.885-3.132Z" transform="rotate(90 101.98 203.646)" style="fill:url(#bq)"/><path d="M1.23 0 0 4.746l.847.943L2.7 2.62Z" transform="rotate(90 84.801 258.1)" style="fill:url(#br);opacity:.4"/><path d="M.687 0 0 7.111l4.122 3.34.7-7.111Z" transform="rotate(90 124.589 234.149)" style="fill:url(#bs);opacity:.4"/><path d="m10.37 2.4-7-2.4L0 7.51l7.015 2.413Z" transform="rotate(90 -120.188 386.124)" style="fill:url(#bt);opacity:.4"/><path d="m.272 6.455 2.812 4.362-.272-6.455L0 0Z" transform="rotate(90 -142.487 399.665)" style="fill:url(#bu);opacity:.4"/><path d="m0 1.933 3.771 3.084 7.542-1.933L7.542 0Z" transform="rotate(90 -183.624 424.104)" style="fill:url(#bv)"/><path d="m4.618 0-3.4 4.618L0 10.993l3.387-4.617Z" transform="rotate(90 34.758 218.139)" style="fill:url(#bw);opacity:.4"/><path class="cl" d="m323.632 189.98 1.838 4.107 2.221-3.755-1.838-4.107Z"/><path class="cm" d="m285.587 177.886-1.838-4.107-2.221 3.755 1.838 4.107Z"/><path d="M4.107 0 0 1.838l3.755 2.221 4.107-1.838Z" transform="rotate(90 168.308 193.644)" style="fill:url(#bz);opacity:.4"/><path d="m0 1.806 3.675 2.189L7.7 2.189 4.027 0Z" transform="rotate(90 139.346 269.853)" style="fill:url(#ca);opacity:.4"/><path d="M7.7 2.189 4.027 0 0 1.806l3.675 2.189Z" transform="rotate(90 72.412 178.073)" style="fill:url(#cb)"/><path d="M4.6 0 1.214 4.618 0 11.009l3.387-4.634Z" transform="rotate(90 -207.272 423.416)" style="fill:url(#cc)"/><path d="M1.087 0 0 7.382l8.5 1.694 1.087-7.382Z" transform="rotate(90 -206.185 450.166)" style="fill:url(#cd)"/><path d="m0 7.51 6.583 2.4 3.18-7.51L3.164 0Z" transform="rotate(90 -225.84 417.28)" style="fill:url(#ce)"/><path d="M3.164 0 0 7.51l6.6 2.4L9.763 2.4Z" transform="rotate(90 -307.922 386.745)" style="fill:url(#cf)"/><path d="M3.164 0 0 7.51l6.6 2.4L9.763 2.4Z" transform="rotate(90 -215.837 367.907)" style="fill:url(#cg)"/><path d="m0 3.356 3.611 3.211L7.941 3.2 4.346 0Z" transform="rotate(90 -237.84 464.003)" style="fill:url(#ch)"/><path d="M4.107 0 0 1.838l3.755 2.221 4.106-1.838Z" transform="rotate(90 -252.291 453.625)" style="fill:url(#ci)"/><path d="M2.7 2.62 1.23 0 0 4.762l.863.927Z" transform="rotate(90 -243.536 443.11)" style="fill:url(#cj)"/><path d="M4.107 0 0 1.838l3.755 2.221 4.107-1.838Z" transform="rotate(90 -215.669 448.607)" style="fill:url(#ck)"/><path d="M2.636 4.346 0 0l.24 6.455L2.892 10.8Z" transform="rotate(90 155.381 209.431)" style="fill:url(#cl);opacity:.4"/><path d="M2.876 6.455 3.34 0 .463 5.417 0 11.872Z" transform="rotate(90 69.878 228.254)" style="fill:url(#cm);opacity:.4"/><path d="M4.107 0 0 1.838l3.739 2.221 4.107-1.838Z" transform="rotate(90 82.542 129.305)" style="fill:url(#cn)"/><path d="m0 1.854 3.755 2.221 4.107-1.854L4.122 0Z" transform="rotate(90 72.378 143.398)" style="fill:url(#co)"/><path d="m2.908 10.818-.256-6.456L0 0l.256 6.455Z" transform="rotate(90 83.069 151.036)" style="fill:url(#cp)"/><path d="M9.779 6.791 7.973 0 0 1.694l1.806 6.791Z" transform="rotate(90 35.74 158.178)" style="fill:url(#cq)"/><path d="M1.262 0 0 4.842l.879.958 1.87-3.132Z" transform="rotate(90 85.857 143.727)" style="fill:url(#cr)"/><path d="M7.7 2.173 4.027 0 0 1.79l3.675 2.189Z" transform="rotate(90 56.28 118.144)" style="fill:url(#cs)"/><path d="M2.876 6.455 3.34 0 .463 5.4 0 11.856Z" transform="rotate(90 53.747 168.324)" style="fill:url(#ct)"/><path d="M4.122 0 0 1.854l3.755 2.221 4.107-1.838Z" transform="rotate(90 -16.44 195.864)" style="fill:url(#cu)"/><path d="M4.107 0 0 1.838l3.755 2.221 4.107-1.838Z" transform="rotate(90 -26.618 209.957)" style="fill:url(#cv)"/><path d="m2.892 10.818-.24-6.455L0 0l.24 6.455Z" transform="rotate(90 -15.92 217.603)" style="fill:url(#cw)"/><path d="m0 1.678 1.79 6.791 7.989-1.678L7.973 0Z" transform="rotate(90 -63.256 224.737)" style="fill:url(#cx)"/><path d="M1.246 0 0 4.858l.863.942 1.885-3.116Z" transform="rotate(90 -13.132 210.293)" style="fill:url(#cy)"/><path d="M4.027 0 0 1.806l3.675 2.173L7.7 2.189Z" transform="rotate(90 -42.708 184.712)" style="fill:url(#cz)"/><path d="M2.876 6.455 3.34 0 .463 5.4 0 11.856Z" transform="rotate(90 -45.24 234.893)" style="fill:url(#da)"/><path d="M4.107 0 0 1.838l3.755 2.221 4.107-1.838Z" transform="rotate(90 -202.391 248.154)" style="fill:url(#db)"/><path d="m0 1.838 3.755 2.221 4.107-1.838L4.107 0Z" transform="rotate(90 -25.539 98.515)" style="fill:url(#dc)"/><path d="M4.107 0 0 1.853l3.739 2.222 4.107-1.838Z" transform="rotate(90 15.271 191.654)" style="fill:url(#cn);opacity:.4"/><path d="M4.122 0 0 1.854l3.755 2.221 4.107-1.838Z" transform="rotate(90 -209.709 316.176)" style="fill:url(#de)"/><path d="m0 1.838 3.755 2.221 4.107-1.838L4.107 0Z" transform="rotate(90 -157.426 338.674)" style="fill:url(#df)"/><path d="m0 0 .24 6.455 2.652 4.362-.256-6.455Z" transform="rotate(90 -146.729 346.32)" style="fill:url(#dg)"/><path d="m0 1.678 1.79 6.791 7.973-1.678L7.973 0Z" transform="rotate(90 -194.067 353.455)" style="fill:url(#dh)"/><path d="M2.748 2.668 1.246 0 0 4.858l.863.942Z" transform="rotate(90 -143.94 339.01)" style="fill:url(#di)"/><path d="M4.043 0 0 1.806l3.691 2.173 4.027-1.79Z" transform="rotate(90 -173.51 313.419)" style="fill:url(#dj)"/><path d="M2.876 6.455 3.356 0 .479 5.4 0 11.856Z" transform="rotate(90 -176.042 363.599)" style="fill:url(#dk)"/><path d="M4.122 0 0 1.838l3.755 2.221 4.107-1.838Z" transform="rotate(90 -118.998 212.602)" style="fill:url(#dl)"/><path d="M11.169 6.216 0 0l1.342 12.3L12.5 18.519Z" transform="rotate(90 -112.007 130.528)" style="fill:url(#dm)"/><path d="m0 1.838 3.755 2.221 4.107-1.838L4.107 0Z" transform="rotate(90 -129.169 226.703)" style="fill:url(#dn)"/><path d="m0 0 .24 6.455 2.652 4.362-.24-6.455Z" transform="rotate(90 -118.471 234.348)" style="fill:url(#do)"/><path d="m0 1.694 1.79 6.775 7.989-1.678L7.973 0Z" transform="rotate(90 -165.807 241.483)" style="fill:url(#dp)"/><path d="M1.246 0 0 4.842l.863.958 1.885-3.132Z" transform="rotate(90 -115.69 227.032)" style="fill:url(#dq)"/><path d="M4.027 0 0 1.806l3.675 2.189L7.7 2.189Z" transform="rotate(90 -145.259 201.458)" style="fill:url(#dr)"/><path d="M2.876 6.471 3.34 0 .463 5.417 0 11.872Z" transform="rotate(90 -147.791 251.638)" style="fill:url(#ds)"/><path d="M3.148 0 0 1.854l.048 3.052 3.4-3.659Z" transform="rotate(90 -11.956 319.883)" style="fill:url(#dt);opacity:.4"/><path d="M3.148 0 0 1.87l.032 3.051 3.419-3.659Z" transform="rotate(90 15.783 402.27)" style="fill:url(#du);opacity:.4"/><path d="M.863 1.039.24 0 0 .975Z" transform="rotate(90 -24.62 338.555)" style="fill:url(#dv);opacity:.4"/><path d="m0 7.462 5.193-2.445L9.3 0 4.122 2.429Z" transform="rotate(90 -36.876 345.361)" style="fill:url(#dw);opacity:.4"/><path d="M6.727 4.091 4.49.336 0 0l2.237 3.739Z" transform="rotate(90 -38.114 273.16)" style="fill:url(#dx);opacity:.4"/><path d="m1.438 9.411.783-3.675L.783 0 0 3.675Z" transform="rotate(90 -70.192 305.334)" style="fill:url(#dy);opacity:.4"/><path d="m0 3.675 1.438 5.736.783-3.691L.783 0Z" transform="rotate(90 -76.087 424.583)" style="fill:url(#dz);opacity:.4"/><path d="M6.727 4.091 4.49.352 0 0l2.237 3.739Z" transform="rotate(90 -53.773 280.703)" style="fill:url(#ea);opacity:.4"/><path d="M3.116 5.1 2.86 0 0 5.784l.256 5.1Z" transform="rotate(90 -46.215 292.336)" style="fill:url(#eb);opacity:.4"/><path d="m0 8.836 5.113-3.387L8.6 0 3.5 3.387Z" transform="rotate(90 -21.408 393.298)" style="fill:url(#ec);opacity:.4"/><path d="M11.153 5.529 4.49 0 0 5.96l6.679 5.54Z" transform="rotate(90 -51.8 350.33)" style="fill:url(#ed);opacity:.4"/><path d="M11.025 5.257 6.375 0 0 5.081l4.666 5.257Z" transform="rotate(90 -30.852 374.107)" style="fill:url(#ee);opacity:.4"/><path d="M11.025 5.241 6.36 0 0 5.081l4.65 5.257Z" transform="rotate(90 -53.86 311.534)" style="fill:url(#ef);opacity:.4"/><path d="m4.65 10.338 6.36-5.081L6.359 0 0 5.081Z" transform="rotate(90 -81.473 338.427)" style="fill:url(#eg)"/><path d="m4.65 10.338 6.36-5.1L6.359 0 0 5.081Z" transform="rotate(90 31.241 262.368)" style="fill:url(#eh);opacity:.4"/><path d="M6.807 10.546 10.37 4.49 3.563 0 0 6.04Z" transform="rotate(90 -81.137 260.706)" style="fill:url(#ei)"/><path d="M7.366 5.257 2.716 0 0 4.666l1.007 5.688Z" transform="rotate(90 -62.45 271.116)" style="fill:url(#ej);opacity:.4"/><path d="M8.357 6.919 4.81 6.647 2.621 2.972l4.394.336L8.6 5.944l.879-3.627L1.662 0 0 6.807 7.814 9.14Z" transform="rotate(90 -17.469 337.348)" style="fill:url(#ek);opacity:.4"/><path d="m0 0 2.189 3.675 3.547.272.24-.975L4.394.336Z" transform="rotate(90 -20.266 337.172)" style="fill:url(#el);opacity:.4"/><path d="m7.814 9.14 1.661-6.823L1.662 0 0 6.823Z" transform="rotate(90 -92.17 275.51)" style="fill:url(#em)"/><path d="M9.475 2.317 1.646 0 0 6.823 7.814 9.14Z" transform="rotate(90 -88.335 391.58)" style="fill:url(#en);opacity:.4"/><path d="M6.359 0 0 5.081l4.65 5.273 6.375-5.1Z" transform="rotate(90 -13.819 256.44)" style="fill:url(#eo);opacity:.4"/><path d="M14.6 0 7.446.256 0 5.561 7.174 5.3Z" transform="rotate(90 -8.209 406.272)" style="fill:url(#ep);opacity:.4"/><path d="M5.113 0 0 5.5l.463 1.882L5.177 4.6Z" transform="rotate(90 -5.03 353.255)" style="fill:url(#bb);opacity:.4"/><path d="M10.083 6.136 6.727.511 0 0l3.355 5.625Z" transform="rotate(90 -2.617 285.041)" style="fill:url(#er);opacity:.4"/><path d="M10.1 6.136 6.743.527 0 0l3.372 5.624Z" transform="rotate(90 35.827 287.31)" style="fill:url(#es);opacity:.4"/><path d="M9.891 6.008 6.6.5 0 0l3.292 5.5Z" transform="rotate(90 -96.045 355.939)" style="fill:url(#et)"/><path d="M7.079 4.538 5.433 0 0 .895l1.646 4.538Z" transform="rotate(90 -87.943 347.597)" style="fill:url(#eu)"/><path class="fj" d="m267.198 238.508-5.1.256 5.784 2.86 5.1-.256Z"/><path d="m.3 4.905 3.151-1.853L3.419 0 0 3.659Z" transform="rotate(90 -40.854 287.215)" style="fill:url(#ew);opacity:.4"/><path d="M6.727 4.075 4.49.336 0 0l2.237 3.739Z" transform="rotate(90 -95.846 332.17)" style="fill:url(#ex)"/><path d="m0 8.149.352 7.142 4.026-8.133L4.011 0Z" transform="rotate(90 29.364 326.738)" style="fill:url(#ey);opacity:.4"/><path d="M.3 4.826 3.387 3 3.34 0 0 3.6Z" transform="rotate(90 -81.926 326.93)" style="fill:url(#ez);opacity:.4"/><path d="M1.055 0 0 5.609 2.061 9.3l1.055-5.609Z" transform="rotate(90 -57.185 325.755)" style="fill:url(#fa);opacity:.4"/><path d="M8.708 0 3.6 3.244 0 8.66 5.129 5.4Z" transform="rotate(90 -45.48 393.976)" style="fill:url(#fb)"/><path d="M6.024 4.905 3.995 0 0 5.912l2.029 4.905Z" transform="rotate(90 -66.86 390.396)" style="fill:url(#fc)"/><path class="fr" d="m284.647 365.283 4.905-2.045-5.912-3.995-4.905 2.045Z"/><path d="M9.827.911 5.209 0 0 5.209l4.618.911Z" transform="rotate(90 -52.575 415.18)" style="fill:url(#fe);opacity:.4"/><path d="m0 5.209 4.6.911L9.811.911 5.193 0Z" transform="rotate(90 -80.673 398.41)" style="fill:url(#ff);opacity:.4"/><path d="M1.646 4.41 8.82 6.088 7.158 1.694 0 0Z" transform="rotate(90 16.062 276.717)" style="fill:url(#fg);opacity:.4"/><path d="M9.827.911 5.209 0 0 5.209l4.618.911Z" transform="rotate(90 7.313 337.698)" style="fill:url(#fh);opacity:.4"/><path d="M9.827.911 5.209 0 0 5.209l4.618.911Z" transform="rotate(90 62.327 347.223)" style="fill:url(#fi);opacity:.4"/><path d="M0 3.579.32 4.81l3.067-1.822L3.356 0Z" transform="rotate(90 -85.699 422.163)" style="fill:url(#fj);opacity:.4"/><path d="M9.3 0 4.107 2.445 0 7.478l5.177-2.445Z" transform="rotate(90 -106.191 265.643)" style="fill:url(#fk)"/><path d="m0 7.478 5.193-2.445L9.3 0 4.107 2.445Z" transform="rotate(90 59.3 305.446)" style="fill:url(#fl);opacity:.4"/><path d="m0 0 2.237 3.755 4.49.336L4.49.352Z" transform="rotate(90 -94.958 319.396)" style="fill:url(#fm);opacity:.4"/><path d="M6.727 4.075 4.49.336 0 0l2.237 3.739Z" transform="rotate(90 -94.998 288.341)" style="fill:url(#fn)"/><path class="gc" d="m327.148 295.983 3.739-2.237.352-4.49-3.739 2.237Z"/><path d="M9.731 0 4.953.16 0 3.691l4.762-.16Z" transform="rotate(90 -102.06 390.589)" style="fill:url(#fp);opacity:.4"/><path class="ge" d="m318.663 410.839 3.659-2.206.336-4.394-3.659 2.189Z"/><path d="m0 0 2.189 3.675 4.41.336L4.394.336Z" transform="rotate(90 -55.874 250.863)" style="fill:url(#fr)"/><path d="M6.727 4.091 4.49.336 0 0l2.237 3.739Z" transform="rotate(90 -70.559 280.823)" style="fill:url(#fs);opacity:.4"/><path d="M6.727 4.075 4.474.336 0 0l2.237 3.739Z" transform="rotate(90 -61.267 345.225)" style="fill:url(#ft);opacity:.4"/><path d="M6.727 4.091 4.474.352 0 0l2.237 3.739Z" transform="rotate(90 -90.476 373.827)" style="fill:url(#fu)"/><path class="fj" d="m315.901 313.863-5.1.256 5.784 2.86 5.1-.256Z"/><path d="m0 8.836 5.113-3.387L8.6 0 3.5 3.388Z" transform="rotate(90 -79.627 291.361)" style="fill:url(#fw);opacity:.4"/><path d="M4.714 0 0 6.759l6.583 2.972L11.3 2.972Z" transform="rotate(90 -142.423 430.759)" style="fill:url(#fx);opacity:.4"/><path d="M1.081 28.154a27.613 27.613 0 0 1 1.454-7.67C5.027 12.831 10.476 2.141 11.227 0L7.616 1.39S-3.425 21.028 1.081 28.154Z" transform="rotate(90 -105.667 360.831)" style="fill:url(#fy);opacity:.4"/><path d="M26.509 0a34.358 34.358 0 0 1-5.129 4.538C14.077 9.875 2.093 16.011 0 17.465l4.2 1.1s18.3-8.453 22.642-17A4.32 4.32 0 0 0 26.509 0Z" transform="rotate(144 -86.053 370.547)" style="fill:url(#fz)"/><path d="M23.025 26.413c-1.119-3.34-7.462-10.594-7.462-10.594L7.638 7.846l-1.39-1.39L5.3 5.113 1.694 0S-1.422 1.965.8 5.656s7.526 8.836 7.526 8.836l9.6 9.763a35.721 35.721 0 0 1 3.675 6.3 4.318 4.318 0 0 1 .336 1.566v.176a6.385 6.385 0 0 0 1.088-5.884Z" transform="rotate(144 -83.544 386.612)" style="fill:url(#ga)"/><g class="go"><path d="M26.509 0a34.354 34.354 0 0 1-5.129 4.538C14.077 9.875 2.093 16.011 0 17.465l4.2 1.1s18.3-8.453 22.642-17A4.319 4.319 0 0 0 26.509 0Z" transform="rotate(135.97 76.276 212.165)" style="fill:url(#gb)"/><path d="M23.025 26.413c-1.118-3.34-7.462-10.594-7.462-10.594L7.638 7.845l-1.39-1.39L5.3 5.113 1.694 0S-1.422 1.965.8 5.656s7.526 8.836 7.526 8.836l9.6 9.763a35.727 35.727 0 0 1 3.675 6.3 4.319 4.319 0 0 1 .336 1.566v.176a6.385 6.385 0 0 0 1.088-5.884Z" transform="rotate(135.97 79.996 228.424)" style="fill:url(#gc)"/></g><path d="M21.188.082C1.6-1.611 0 23.379 0 23.379l12.959 8.549C8.628 15.821 30.775 9.366 30.775 9.366Z" transform="rotate(90 32.306 217.605)" style="fill:url(#gd);opacity:.4"/><path d="m19.941 14.472 1.134-8.9C14.093-5.645 0 3.543 0 3.543l.623 10.418c6.935-8.821 19.318.511 19.318.511Z" transform="rotate(90 -174.982 398.728)" style="fill:url(#ge)"/><path class="gt" d="M60.001 87.803c-.29-2.795 1.912-10.173 1.912-10.173l3.672-9.904 1.063-5.694a13.609 13.609 0 0 1 2.052.657 3.574 3.574 0 0 1 .583 2.643 46.916 46.916 0 0 1-2.535 8.921l-3.746 10.28s-.995 4.87-.413 6.758c-.682-.296-1.053-.504-1.132-.54A4.577 4.577 0 0 1 60 87.803ZM53.439 46.4a1.823 1.823 0 0 1 .305.983 17.467 17.467 0 0 1-1.953 8.008c-1.785 3.182-3.634 6.779-3.634 6.779s-1.117 2.37-1.546 3.355a23.473 23.473 0 0 1-3.498.945c.002-.15-.05-3.492 3.034-8.226.139-.206.272-.449.409-.674.294-.49.589-1 .877-1.524 2.053-3.818 3.554-8.278 3.673-10.625a9.729 9.729 0 0 1 2.333.978Z"/><path class="gt" d="M68.721 62.714a.124.124 0 0 0-.043-.026 13.61 13.61 0 0 0-2.05-.653 5.141 5.141 0 0 0-2.861-.03c-1.77.693-8.508 3.098-11.127 4.93s-7.025 2.466-7.025 2.466l-2.525-2.929a.056.056 0 0 0 .035-.009 22.486 22.486 0 0 0 3.498-.944 14.768 14.768 0 0 0 3.367-1.656c2.852-1.954 9.326-4.28 9.326-4.28s4.308-1.564 6.42-.181a8.546 8.546 0 0 1 2.985 3.312ZM47.513 40.923a5.652 5.652 0 0 1-.258 1.431 20.713 20.713 0 0 0-4.536 1.382c1.133-1.472 2.042-4.76 2.336-5.885a10.934 10.934 0 0 1 1.39.38 3.463 3.463 0 0 1 1.068 2.692ZM37.063 53.988l-.47-.565a1.556 1.556 0 0 1 .397-.811 9.619 9.619 0 0 1 .749-.842 28.911 28.911 0 0 1 5.937-4.4c.375-.177.807-.362 1.262-.545a29.734 29.734 0 0 1-3.867 4.588c-2.75 2.56-4.008 2.575-4.008 2.575Z"/><path class="gt" d="m50.785 42.884 2.708 3.553a.123.123 0 0 0-.04-.028 9.355 9.355 0 0 0-2.348-.966 3.908 3.908 0 0 0-1.772-.09 24.734 24.734 0 0 0-4.383 1.488c-.454.183-.877.38-1.261.546a29.587 29.587 0 0 0-5.936 4.399 8.773 8.773 0 0 0-.75.842 1.844 1.844 0 0 0-.397.811l-2.494-3.04a9.66 9.66 0 0 1 5.183-5.119 72.854 72.854 0 0 1 3.435-1.503 20.713 20.713 0 0 1 4.536-1.382c.174-.02.353-.052.514-.066a2.333 2.333 0 0 1 .392-.012 4.775 4.775 0 0 1 2.546.562c.046-.02.067.005.067.005ZM40.263 33.654a3.8 3.8 0 0 1 .143 1.04 15.031 15.031 0 0 0-3.06.84c-.488.17-.977.362-1.478.565a3.118 3.118 0 0 0 .437-.422c.112-.14.225-.302.326-.453a7.3 7.3 0 0 0 .72-1.705 10.613 10.613 0 0 1 2.88.146l-.013-.014c.022.002.035-.009.045.003ZM35.38 42.408a4.644 4.644 0 0 1-3.786 1.64l-2.729-3.09s1.766 1.91 2.703 2.987a11.206 11.206 0 0 1 4.318-3.586 41.552 41.552 0 0 1 2.733-1.338 26.364 26.364 0 0 1-1.644 1.811c-.573.583-1.131 1.11-1.594 1.576Z"/><path class="gt" d="M46.488 38.257a.049.049 0 0 0-.033-.013 14.249 14.249 0 0 0-1.391-.381 6.813 6.813 0 0 0-3.277-.07c-.247.081-.604.206-1.023.358a53.02 53.02 0 0 0-2.132.86 29.12 29.12 0 0 0-2.733 1.337c-1.849 1.015-3.577 2.241-4.317 3.583a410.6 410.6 0 0 0-2.702-2.987 9.627 9.627 0 0 1 3.853-3.482c.726-.334 1.57-.702 2.42-1.066.245-.107.482-.207.734-.299.502-.202.991-.395 1.478-.565a15.036 15.036 0 0 1 3.06-.84c.08-.005.162-.008.217-.018a11.151 11.151 0 0 1 3.505.622ZM37.49 30.707l2.74 2.933.011.012a10.613 10.613 0 0 0-2.88-.147 6.4 6.4 0 0 0-4.4 2.05c-.95-.677-3.142-2.372-3.142-2.372a13.633 13.633 0 0 1 4.667-2.425c2.655-.721 3.005-.05 3.005-.05ZM87.21 95.867l-2.015 1.645s-20.226-.075-23.788-6.754l.01.012a5.019 5.019 0 0 0 1.293.95 1.174 1.174 0 0 1-.163-.407 26.993 26.993 0 0 0 5.486 1.708c5.87 1.201 14.293 1.734 18.12 2.092.777.065 1.37.141 1.718.2Z"/><path class="gt" d="M62.729 91.72a5.019 5.019 0 0 1-1.296-.948c.07.026.45.244 1.132.54a2.584 2.584 0 0 0 .164.409Z"/><g class="go"><path class="gu" d="M295.196 550.191c2.063-1.907 9.296-4.56 9.296-4.56l10.13-2.997 5.186-2.544a15.773 15.773 0 0 1 .715 2.026 3.55 3.55 0 0 1-1.772 2.043 47.047 47.047 0 0 1-8.661 3.305l-10.478 3.173s-4.508 2.11-5.669 3.718a11.349 11.349 0 0 1-.234-1.228 4.661 4.661 0 0 1 1.487-2.936ZM324.432 520.149a1.678 1.678 0 0 1-.607.835 17.459 17.459 0 0 1-7.578 3.232c-3.613.469-7.597 1.157-7.597 1.157s-2.557.523-3.628.769a21.533 21.533 0 0 1-2.846-2.236c.124-.097 2.775-2.126 8.402-2.502.265-.022.515-.052.78-.073q.86-.086 1.742-.215c4.29-.652 8.75-2.1 10.698-3.417a10.075 10.075 0 0 1 .634 2.45Z"/><path class="gu" d="m320.509 542.145-.013-.043a13.98 13.98 0 0 0-.715-2.026 5.338 5.338 0 0 0-1.7-2.313c-1.604-.997-7.567-4.96-10.602-5.958s-6.186-4.154-6.186-4.154l.827-3.776a.123.123 0 0 1 .034.037 21.151 21.151 0 0 0 2.85 2.237 14.815 14.815 0 0 0 3.346 1.705c3.281 1.11 9.005 4.91 9.005 4.91s3.834 2.524 4.003 5.039a8.338 8.338 0 0 1-.849 4.342ZM325.272 512.13a5.735 5.735 0 0 1-1.311.662 20.314 20.314 0 0 0-3.812-2.802c1.848.022 5.04-1.212 6.108-1.658a13.91 13.91 0 0 1 .53 1.349 3.5 3.5 0 0 1-1.515 2.449ZM308.553 511.591l.173-.7a1.66 1.66 0 0 1 .88-.165 7.213 7.213 0 0 1 1.128.092 29.888 29.888 0 0 1 7.077 2.109c.367.194.765.424 1.191.687a28.345 28.345 0 0 1-5.98-.355c-3.709-.68-4.469-1.668-4.469-1.668Z"/><path class="gu" d="m325.65 515.915-1.214 4.294a.2.2 0 0 1-.006-.058 9.774 9.774 0 0 0-.619-2.446 4.167 4.167 0 0 0-.985-1.482 25.956 25.956 0 0 0-3.815-2.623c-.434-.248-.831-.478-1.19-.686a28.995 28.995 0 0 0-7.074-2.111 7.219 7.219 0 0 0-1.127-.093 1.94 1.94 0 0 0-.88.166l.936-3.806a9.674 9.674 0 0 1 7.202 1.075c1.27.674 2.34 1.28 3.269 1.85a20.027 20.027 0 0 1 3.813 2.797 4.475 4.475 0 0 1 .367.376 3.644 3.644 0 0 1 .25.313 4.735 4.735 0 0 1 1.066 2.376.2.2 0 0 0 .006.058ZM326.735 501.982a4.924 4.924 0 0 1-.737.749 13.849 13.849 0 0 0-2.5-1.942c-.429-.283-.88-.558-1.343-.84a5.95 5.95 0 0 0 .598.1c.179.004.365-.006.55-.016a6.918 6.918 0 0 0 1.812-.448 10.098 10.098 0 0 1 1.606 2.39l.008-.014c.007-.014.014.007.006.021ZM316.818 503.319a4.652 4.652 0 0 1-3.58-2.047l.843-4.039s-.471 2.556-.763 3.955a11.052 11.052 0 0 1 5.45 1.32c.944.43 1.878.926 2.695 1.396a22.741 22.741 0 0 1-2.445-.231 50.53 50.53 0 0 0-2.2-.354Z"/><path class="gu" d="m326.787 509.718-.013-.044c-.052-.14-.23-.688-.529-1.348a6.729 6.729 0 0 0-1.903-2.657c-.21-.148-.52-.349-.898-.59a52.877 52.877 0 0 0-1.971-1.192 32.283 32.283 0 0 0-2.696-1.396 11.277 11.277 0 0 0-5.452-1.317c.283-1.386.762-3.954.762-3.954a9.71 9.71 0 0 1 5.105 1.013c.707.375 1.503.816 2.298 1.293.222.137.459.263.679.394.45.276.916.56 1.344.841a13.683 13.683 0 0 1 2.497 1.941c.042.058.105.11.146.168a11.351 11.351 0 0 1 1.608 3.17ZM327.448 497.984l-.719 3.942-.007.014a10.726 10.726 0 0 0-1.607-2.39 6.367 6.367 0 0 0-4.276-2.308c-.026-1.172.027-3.929.027-3.929a13.56 13.56 0 0 1 4.74 2.282c2.166 1.711 1.842 2.39 1.842 2.39ZM305.04 576.82l-2.53-.62s-12.035-16.233-8.827-23.086a.016.016 0 0 0 .007.022 4.99 4.99 0 0 0 .018 1.601 2.167 2.167 0 0 1 .223-.387 27.384 27.384 0 0 0 1.932 5.422c2.559 5.435 7.168 12.49 9.175 15.763.403.666.712 1.173.855 1.484Z"/><path class="gu" d="M293.705 554.736a4.993 4.993 0 0 1-.018-1.602c.013.08.074.51.234 1.229a.993.993 0 0 0-.216.373Z"/></g><path d="m0 9.108 4.826-4.282L6.519 0 1.694 4.3Z" transform="rotate(90 46.836 231.29)" style="fill:url(#gr);opacity:.4"/><path d="m3.116 9.667.879-8.309L2.333 0 0 5.624Z" transform="rotate(90 110.216 274.537)" style="fill:url(#gs);opacity:.4"/><path d="M0 2.237 2.892 0 5.72 1.166 1.055 2.988Z" transform="rotate(90 -146.103 566.014)" style="fill:url(#gt);opacity:.4"/><path d="M2.892 0 5.72 1.166 1.055 2.988 0 2.237Z" transform="rotate(90 -89.929 499.679)" style="fill:url(#gu);opacity:.4"/><path d="M0 2.237 2.876 0 5.7 1.166 1.039 2.988Z" transform="rotate(90 -69.685 524.78)" style="fill:url(#gv);opacity:.4"/><path d="M10.37 0 6.2 3.915 0 5.88l4.186-3.915Z" transform="rotate(90 -75.997 544.355)" style="fill:url(#gw);opacity:.4"/><path d="M2.029 0 6.04 5.257l-2.029 6.5L0 6.519Z" transform="rotate(90 -172.499 603.309)" style="fill:url(#gx);opacity:.4"/><path d="M1.917 3.308 7.031 0 5.113 4.378 0 7.686Z" transform="rotate(90 -115.679 524.917)" style="fill:url(#gy);opacity:.4"/><path d="m1.342 0 2.653 3.467-1.342 4.3L0 4.3Z" transform="rotate(90 -199.575 579.573)" style="fill:url(#gz);opacity:.4"/><path class="w" d="m388.146 756.937-.511-6.455 2.109-4.634.511 6.439Z"/><path d="m11.089 6.248-7.014 5.081L0 5.081 7.015 0Z" transform="rotate(90 -90.154 518.326)" style="fill:url(#hb);opacity:.4"/><path d="m10.242 6.264-7.078 4.042L0 4.043 7.079 0Z" transform="rotate(90 -127.167 634.228)" style="fill:url(#k);opacity:.4"/><path d="m7.462.224.16 8.676-7.446-.24L0 0Z" transform="rotate(90 -95.714 550.459)" style="fill:url(#l);opacity:.4"/><path d="m6.951 9.092-2.269-.3-.991-.144L0 8.117.719 0l6.967.975Z" transform="rotate(90 -144.017 551.37)" style="fill:url(#he);opacity:.4"/><path d="M8.581 1.134 4.25 4.49 0 2.732 7 0Z" transform="rotate(90 -127.655 536.526)" style="fill:url(#hf);opacity:.4"/><path d="m2.013 0 3.979 5.209-2.013 6.439L0 6.455Z" transform="rotate(90 -149.505 601.774)" style="fill:url(#hg);opacity:.4"/><path d="m3.659 0 .7.911-2.01 6.455L0 4.282l1.486-2.109Z" transform="rotate(90 -115.903 612.511)" style="fill:url(#hh);opacity:.4"/><path d="m2 0 3.992 5.193-2.013 6.455L0 6.439Z" transform="rotate(90 -147.142 585.684)" style="fill:url(#hi);opacity:.4"/><path d="M5.7.751 2.828 2.988 0 1.822 4.666 0Z" transform="rotate(90 -164.685 589.422)" style="fill:url(#hj);opacity:.4"/><path d="m9.044 0 6.519 2.956-9.044.735L0 .719Z" transform="rotate(90 -106.171 573.572)" style="fill:url(#hk);opacity:.4"/><path d="M6.184 3.931 0 5.9l4.186-3.919L10.37 0Z" transform="rotate(90 -68.11 450.505)" style="fill:url(#hl);opacity:.4"/><path d="M10.786 3.707 3.8 5.241 0 1.534 6.983 0Z" transform="rotate(90 -160.859 545.777)" style="fill:url(#hm);opacity:.4"/><path d="m1.071 0 3.483 3.164-1.087 7.27L0 7.286Z" transform="rotate(90 -135.691 616.866)" style="fill:url(#hn);opacity:.4"/><path d="M.863 2.924 7.622 0l-.863 4.634L0 7.542Z" transform="rotate(90 -121.424 555.14)" style="fill:url(#ho);opacity:.4"/><path d="M.847 2.924 7.622 0l-.863 4.634L0 7.542Z" transform="rotate(90 -66.785 566.589)" style="fill:url(#hp);opacity:.4"/><path d="M6.184 3.931 0 5.9l4.186-3.919L10.37 0Z" transform="rotate(90 -85.095 603.564)" style="fill:url(#hq);opacity:.4"/><path d="M2.652 7.766 0 4.3 1.326 0l2.653 3.467Z" transform="rotate(90 -118.602 587.394)" style="fill:url(#hr);opacity:.4"/><path d="m6.439 0 4.65 2.109-6.439.512L0 .511Z" transform="rotate(90 -132.911 573.15)" style="fill:url(#hs);opacity:.4"/><path d="m2.892 0-.24 6.455L0 10.818l.24-6.456Z" transform="rotate(90 188.97 300.736)" style="fill:url(#ht);opacity:.4"/><path class="ge" d="m386.947 152.463 7.382-1.087 1.694 8.5-7.382 1.087Z"/><path d="M3.164 9.907 0 2.4 6.583 0l3.18 7.51Z" transform="rotate(90 -45.868 680.198)" style="fill:url(#hv);opacity:.4"/><path d="M3.164 9.907 0 2.4 6.6 0l3.163 7.51Z" transform="rotate(90 312.405 447.213)" style="fill:url(#hw);opacity:.4"/><path d="m9.763 7.526-6.6 2.4L0 2.413 6.6 0Z" transform="rotate(90 130.417 308.43)" style="fill:url(#hx);opacity:.4"/><path d="M9.779 1.694 7.973 8.469 0 6.791 1.79 0Z" transform="rotate(90 227.6 481.672)" style="fill:url(#ap);opacity:.4"/><path d="M1.039.352 0 .975.256 0Z" transform="rotate(90 121.429 520.314)" style="fill:url(#hz);opacity:.4"/><path d="m0 0 3.387 4.618L4.6 10.993 1.214 6.376Z" transform="rotate(90 110.764 532.371)" style="fill:url(#ia);opacity:.4"/><path d="M9.571 7.382 1.087 9.076 0 1.694 8.5 0Z" transform="rotate(90 99.827 542.957)" style="fill:url(#as);opacity:.4"/><path d="m9.779 1.678-.591 2.205-3.244-1.454-3.675 2.189L6.3 6.423l2.632-1.565-.943 3.611L0 6.775 1.806 0Z" transform="rotate(90 127.837 517.791)" style="fill:url(#ic);opacity:.4"/><path d="M0 2.189 3.675 0l3.244 1.454-.256.975-2.636 1.566Z" transform="rotate(90 125.488 517.712)" style="fill:url(#id);opacity:.4"/><path d="m7.973 0-4.7 10.4L0 1.534Z" transform="rotate(90 265.141 452.66)" style="fill:url(#ie);opacity:.4"/><path d="m0 0 4.3 3.5.32 7.494-3.4-4.618Z" transform="rotate(90 250.992 421.448)" style="fill:url(#if);opacity:.4"/><path d="m9.587 7.366-8.5 1.694L0 1.678 8.5 0Z" transform="rotate(90 240.048 432.025)" style="fill:url(#ig);opacity:.4"/><path d="M1.039.352 0 .975.256 0Z" transform="rotate(90 -83.682 664.724)" style="fill:url(#ih);opacity:.4"/><path d="m0 0 3.4 4.618 1.214 6.376L1.23 6.376Z" transform="rotate(90 -94.331 676.778)" style="fill:url(#ii);opacity:.4"/><path d="M5.944 2.445 2.269 4.618 6.3 6.423l2.637-1.55-.964 3.612L0 6.791 1.806 0l7.973 1.694L9.188 3.9Z" transform="rotate(90 -77.267 662.205)" style="fill:url(#ij);opacity:.4"/><path d="M0 2.173 3.675 0l3.244 1.454-.256.975-2.636 1.55Z" transform="rotate(90 -79.623 662.119)" style="fill:url(#ik);opacity:.4"/><path d="m.192 0 .815.895L0 .831Z" transform="rotate(90 7.3 654.048)" style="fill:url(#bg);opacity:.4"/><path d="M3.883 2.429 9.907 0 6.024 4.218 0 6.647Z" transform="rotate(90 23.943 664.986)" style="fill:url(#im);opacity:.4"/><path d="M3.292 10.514 0 2.493 7.031 0l3.292 8.021Z" transform="rotate(90 39.339 674.964)" style="fill:url(#in);opacity:.4"/><path d="M0 8.149.128 0 2.4.144l-.8 3.467 2.844 3.2.991-4.314L3.4.208l3.723.24L7.015 8.6Z" transform="rotate(90 8.155 652.506)" style="fill:url(#io);opacity:.4"/><path d="M2.844 6.663 0 3.467.8 0l1.006.064 2.029 2.285Z" transform="rotate(90 7.284 653.234)" style="fill:url(#ip);opacity:.4"/><path d="M6.168 6.088 0 3.34 5.624 0l6.168 2.764Z" transform="rotate(90 296.891 366.743)" style="fill:url(#iq);opacity:.4"/><path d="M1.246 5.8 0 .959.863 0l1.885 3.132Z" transform="rotate(90 193.781 295.448)" style="fill:url(#ir);opacity:.4"/><path d="M1.23 5.688 0 .943.847 0 2.7 3.068Z" transform="rotate(90 139.268 312.568)" style="fill:url(#is);opacity:.4"/><path d="m10.37 7.526-7 2.4L0 2.413 7.015 0Z" transform="rotate(90 13.365 519.676)" style="fill:url(#it);opacity:.4"/><path d="M.272 4.362 3.084 0l-.272 6.455L0 10.818Z" transform="rotate(90 .27 542.422)" style="fill:url(#iu);opacity:.4"/><path d="M0 3.084 3.771 0l7.542 1.933-3.771 3.084Z" transform="rotate(90 -27.069 580.659)" style="fill:url(#bv);opacity:.4"/><path d="M2.093 7.063 0 0l4.49 1.406 2.093 7.063Z" transform="rotate(90 172.193 229.615)" style="fill:url(#iw);opacity:.4"/><path class="cm" d="m503.464 177.886 1.838-4.107 2.221 3.755-1.838 4.107Z"/><path d="M4.107 4.059 0 2.221 3.755 0l4.107 1.838Z" transform="rotate(90 202.912 228.248)" style="fill:url(#iy);opacity:.4"/><path d="M7.7 1.806 4.027 3.995 0 2.189 3.675 0Z" transform="rotate(90 218.45 324.111)" style="fill:url(#cb);opacity:.4"/><path d="M4.6 11.009 1.214 6.392 0 0l3.387 4.634Z" transform="rotate(90 -23.386 607.302)" style="fill:url(#ja);opacity:.4"/><path d="M3.164 9.907 0 2.4 6.6 0l3.163 7.51Z" transform="rotate(90 12.734 707.402)" style="fill:url(#jb);opacity:.4"/><path d="M0 3.212 3.611 0l4.33 3.371-3.6 3.2Z" transform="rotate(90 -66.194 635.65)" style="fill:url(#jc);opacity:.4"/><path class="cl" d="m587.72 710.023 1.838-4.107 2.221 3.755-1.838 4.106Z"/><path d="m2.7 3.068-1.47 2.62L0 .927.863 0Z" transform="rotate(90 -45.739 640.906)" style="fill:url(#je);opacity:.4"/><path d="M4.107 4.059 0 2.221 3.755 0l4.107 1.838Z" transform="rotate(90 -52.052 612.224)" style="fill:url(#jf);opacity:.4"/><path d="M4.107 4.059 0 2.221 3.755 0l4.107 1.838Z" transform="rotate(90 93.89 295.935)" style="fill:url(#jg);opacity:.4"/><path d="M9.779 1.694 7.973 8.485 0 6.791 1.806 0Z" transform="rotate(90 240.591 363.029)" style="fill:url(#cq);opacity:.4"/><path d="M1.262 5.8 0 .959.879 0l1.87 3.132Z" transform="rotate(90 253.7 311.57)" style="fill:url(#ji);opacity:.4"/><path d="M7.7 1.806 4.027 3.979 0 2.189 3.675 0Z" transform="rotate(90 278.371 340.236)" style="fill:url(#jj);opacity:.4"/><path d="m2.876 5.4.463 6.455-2.876-5.4L0 0Z" transform="rotate(90 232.13 346.707)" style="fill:url(#jk);opacity:.4"/><path d="M4.122 4.075 0 2.221 3.755 0l4.107 1.838Z" transform="rotate(90 200.7 413.003)" style="fill:url(#cu);opacity:.4"/><path d="m2.892 0-.24 6.455L0 10.818l.24-6.456Z" transform="rotate(90 182.332 415.854)" style="fill:url(#jm);opacity:.4"/><path d="M1.246 5.8 0 .943.863 0l1.885 3.116Z" transform="rotate(90 187.132 410.558)" style="fill:url(#jn);opacity:.4"/><path d="M4.027 3.979 0 2.173 3.675 0 7.7 1.79Z" transform="rotate(90 211.804 439.224)" style="fill:url(#jo);opacity:.4"/><path d="M4.107 4.059 0 2.221 3.755 0l4.107 1.838Z" transform="rotate(90 148.402 598.947)" style="fill:url(#db);opacity:.4"/><path d="M0 2.221 3.755 0l4.107 1.838-3.755 2.221Z" transform="rotate(90 298.042 422.095)" style="fill:url(#jq);opacity:.4"/><path d="M4.122 4.075 0 2.221 3.755 0l4.107 1.838Z" transform="rotate(90 80.388 606.273)" style="fill:url(#jr);opacity:.4"/><path d="M0 2.221 3.755 0l4.107 1.838-3.755 2.221Z" transform="rotate(90 57.882 553.983)" style="fill:url(#js);opacity:.4"/><path d="M2.748 3.132 1.246 5.8 0 .943.863 0Z" transform="rotate(90 58.417 541.368)" style="fill:url(#jt);opacity:.4"/><path d="M4.043 3.979 0 2.173 3.691 0l4.027 1.79Z" transform="rotate(90 83.095 570.025)" style="fill:url(#ju);opacity:.4"/><path d="m2.876 5.4.479 6.455-2.876-5.4L0 0Z" transform="rotate(90 36.854 576.496)" style="fill:url(#jv);opacity:.4"/><path d="M4.122 4.059 0 2.221 3.755 0l4.107 1.838Z" transform="rotate(90 183.953 515.554)" style="fill:url(#jw);opacity:.4"/><path d="M0 6.775 1.79 0l7.989 1.678-1.806 6.791Z" transform="rotate(90 157.278 564.568)" style="fill:url(#jx);opacity:.4"/><path d="M1.246 5.8 0 .959.863 0l1.885 3.132Z" transform="rotate(90 170.395 513.117)" style="fill:url(#jy);opacity:.4"/><path d="M4.027 3.995 0 2.189 3.675 0 7.7 1.806Z" transform="rotate(90 195.066 541.783)" style="fill:url(#dr);opacity:.4"/><path d="m2.876 5.4.463 6.471L.463 6.455 0 0Z" transform="rotate(90 148.824 548.254)" style="fill:url(#ds);opacity:.4"/><path d="M3.148 4.906 0 3.052.048 0l3.4 3.659Z" transform="rotate(90 77.096 408.935)" style="fill:url(#kb);opacity:.4"/><path d="M3.148 4.921 0 3.052.032 0l3.419 3.659Z" transform="rotate(90 -5.282 381.205)" style="fill:url(#kc);opacity:.4"/><path d="M.863 0 .24 1.039 0 .064Z" transform="rotate(90 56.49 419.665)" style="fill:url(#kd);opacity:.4"/><path d="m0 0 5.193 2.445L9.3 7.462 4.122 5.033Z" transform="rotate(90 52.897 435.134)" style="fill:url(#ke);opacity:.4"/><path d="M9.3 7.462 4.107 5.017 0 0l5.193 2.445Z" transform="rotate(90 34.432 352.339)" style="fill:url(#kf);opacity:.4"/><path d="M6.727 0 4.49 3.755 0 4.091 2.237.352Z" transform="rotate(90 123.41 434.684)" style="fill:url(#kg);opacity:.4"/><path d="m9.731 3.707-4.778-.176L0 0l4.762.16Z" transform="rotate(90 28.824 395.465)" style="fill:url(#kh);opacity:.4"/><path d="M0 5.736 1.438 0l.783 3.691-1.438 5.72Z" transform="rotate(90 -25.35 475.319)" style="fill:url(#ki);opacity:.4"/><path d="m0 0 5.113 3.387L8.6 8.836 3.5 5.449Z" transform="rotate(90 5.647 420.352)" style="fill:url(#kj);opacity:.4"/><path d="M11.025 5.1 6.36 10.338 0 5.257 4.65 0Z" transform="rotate(90 88.161 453.555)" style="fill:url(#kk);opacity:.4"/><path d="m4.65 0 6.36 5.1-4.65 5.241L0 5.257Z" transform="rotate(90 137.328 368.455)" style="fill:url(#kl);opacity:.4"/><path d="m7.366 5.1-4.65 5.257L0 5.688 1.007 0Z" transform="rotate(90 128.587 462.153)" style="fill:url(#km);opacity:.4"/><path d="m7.814 0 1.661 6.823L1.662 9.14 0 2.317Z" transform="rotate(90 123.585 491.266)" style="fill:url(#kn);opacity:.4"/><path d="M9.475 6.823 1.646 9.14 0 2.317 7.814 0Z" transform="rotate(90 7.517 487.431)" style="fill:url(#ko);opacity:.4"/><path d="M6.359 10.354 0 5.273 4.65 0l6.375 5.1Z" transform="rotate(90 143.264 413.522)" style="fill:url(#kp);opacity:.4"/><path d="M5.113 7.382 0 1.885.463 0l4.714 2.78Z" transform="rotate(90 44.962 403.247)" style="fill:url(#kq);opacity:.4"/><path d="M10.083 0 6.727 5.625 0 6.136 3.355.511Z" transform="rotate(90 112.552 400.21)" style="fill:url(#kr);opacity:.4"/><path d="M10.1 0 6.727 5.625 0 6.136 3.356.527Z" transform="rotate(90 96.726 403.943)" style="fill:url(#ks);opacity:.4"/><path class="fj" d="m521.853 238.508 5.1.256-5.784 2.86-5.1-.256Z"/><path d="m.3 0 3.151 1.854-.032 3.051L0 1.246Z" transform="rotate(90 109.764 437.834)" style="fill:url(#ku);opacity:.4"/><path d="M6.727 0 4.49 3.739 0 4.075 2.237.336Z" transform="rotate(90 64.392 492.408)" style="fill:url(#kv);opacity:.4"/><path d="m.3 0 3.087 1.822-.048 3L0 1.23Z" transform="rotate(90 70.01 478.866)" style="fill:url(#kw);opacity:.4"/><path d="M8.708 8.66 3.6 5.417 0 0l5.129 3.26Z" transform="rotate(90 4.881 444.336)" style="fill:url(#kx);opacity:.4"/><path d="m6.024 5.912-2.029 4.906L0 4.905 2.029 0Z" transform="rotate(90 9.539 466.794)" style="fill:url(#ky);opacity:.4"/><path d="m9.827 5.209-4.618.911L0 .911 4.618 0Z" transform="rotate(90 -17.595 450.16)" style="fill:url(#kz);opacity:.4"/><path d="M0 .911 4.6 0l5.211 5.209-4.618.911Z" transform="rotate(90 -.825 478.259)" style="fill:url(#la);opacity:.4"/><path class="fr" d="m444.951 340.212-.911-4.618 5.209-5.209.911 4.618Z"/><path d="M0 1.23.32 0l3.067 1.822-.031 2.988Z" transform="rotate(90 -25.232 482.63)" style="fill:url(#lc);opacity:.4"/><path d="m0 0 5.193 2.445L9.3 7.478 4.107 5.033Z" transform="rotate(90 92.819 338.964)" style="fill:url(#ld);opacity:.4"/><path class="gc" d="m461.903 295.983-3.739-2.237-.352-4.49 3.739 2.237Z"/><path d="m9.731 3.691-4.778-.16L0 0l4.762.16Z" transform="rotate(90 5.783 498.433)" style="fill:url(#lf);opacity:.4"/><path class="ge" d="m470.389 410.839-3.659-2.206-.336-4.394 3.659 2.189Z"/><path d="M6.727 0 4.49 3.755 0 4.091 2.237.352Z" transform="rotate(90 115.748 467.13)" style="fill:url(#lh);opacity:.4"/><path d="M6.727 0 4.474 3.739 0 4.091 2.237.352Z" transform="rotate(90 22.745 487.048)" style="fill:url(#fu);opacity:.4"/><path class="fj" d="m473.151 313.863 5.1.256-5.784 2.86-5.1-.256Z"/><path d="M1.081 0a27.613 27.613 0 0 0 1.454 7.67c2.493 7.654 7.941 18.344 8.692 20.485l-3.611-1.39S-3.425 7.126 1.081 0Z" transform="rotate(90 47.772 514.27)" style="fill:url(#lk);opacity:.4"/><g class="go"><path d="M26.509 18.567a34.358 34.358 0 0 0-5.129-4.538C14.077 8.692 2.093 2.557 0 1.1L4.2 0s18.3 8.453 22.644 17a4.32 4.32 0 0 1-.335 1.567Z" style="fill:url(#ll)" transform="rotate(36 -814.17 1184.11)"/><path d="M23.025 5.88c-1.119 3.34-7.462 10.594-7.462 10.594l-7.925 7.973-1.39 1.39L5.3 27.18l-3.606 5.113S-1.422 30.328.8 26.636 8.325 17.8 8.325 17.8l9.6-9.763a35.721 35.721 0 0 0 3.675-6.3 4.318 4.318 0 0 0 .338-1.561V0a6.385 6.385 0 0 1 1.087 5.88Z" transform="rotate(36 -842.484 1183.247)" style="fill:url(#lm)"/></g><g class="go"><path d="M26.509 18.567a34.354 34.354 0 0 0-5.129-4.538C14.077 8.692 2.093 2.557 0 1.1L4.2 0s18.3 8.453 22.644 17a4.319 4.319 0 0 1-.335 1.567Z" style="fill:url(#ln)" transform="rotate(90 87.17 404.853)"/><path d="M23.025 5.88c-1.118 3.34-7.462 10.594-7.462 10.594l-7.925 7.973-1.39 1.39L5.3 27.18l-3.606 5.113S-1.422 30.328.8 26.636 8.325 17.8 8.325 17.8l9.6-9.763a35.727 35.727 0 0 0 3.675-6.3 4.319 4.319 0 0 0 .339-1.561V0a6.385 6.385 0 0 1 1.086 5.88Z" transform="rotate(90 76.313 398.9)" style="fill:url(#lo)"/></g><path d="M21.188 31.846C1.6 33.539 0 8.549 0 8.549L12.959 0C8.628 16.107 30.775 22.562 30.775 22.562Z" transform="rotate(90 192.886 378.185)" style="fill:url(#lp);opacity:.4"/><path d="m19.941 0 1.134 8.9C14.093 20.117 0 10.929 0 10.929L.623.511C7.558 9.332 19.941 0 19.941 0Z" transform="rotate(90 3.035 576.744)" style="fill:url(#lq);opacity:.4"/><path d="M0 10.929.623.511C7.558 9.332 19.941 0 19.941 0l1.134 8.9C14.093 20.133 0 10.929 0 10.929Z" transform="rotate(90 -33.388 444.72)" style="fill:url(#lr);opacity:.4"/><g><path class="ln" d="M53.547 552.955c-.138-3.807-4.477-13.297-4.477-13.297l-6.766-12.592-2.5-7.42a21.838 21.838 0 0 0-2.624 1.25 4.775 4.775 0 0 0-.275 3.653c1.166 4.513 5.085 11.481 5.085 11.481l6.954 13.095s2.262 6.35 1.841 8.992a16.328 16.328 0 0 0 1.408-.934 6.575 6.575 0 0 0 1.354-4.228ZM54.547 496.187a2.352 2.352 0 0 0-.227 1.377 23.786 23.786 0 0 0 4.132 10.365c2.996 3.929 6.153 8.4 6.153 8.4s1.934 2.952 2.711 4.22a30.014 30.014 0 0 0 4.867.607c-.02-.204-.599-4.684-5.608-10.467-.228-.267-.45-.54-.67-.817-.5-.61-.975-1.23-1.45-1.876-3.483-4.738-6.344-10.43-6.927-13.552a13.05 13.05 0 0 0-2.98 1.743Z"/><path class="ln" d="M37.12 520.93a.2.2 0 0 0 .054-.022 17.441 17.441 0 0 1 2.622-1.248 7.16 7.16 0 0 1 3.842-.574c2.495.59 11.994 2.549 15.844 4.515 3.86 1.955 9.884 1.98 9.884 1.98l2.843-4.406a.2.2 0 0 1-.058 0 30.89 30.89 0 0 1-4.867-.606 20.266 20.266 0 0 1-4.834-1.597c-4.188-2.092-13.314-3.977-13.314-3.977s-6.076-1.279-8.663.95a11.511 11.511 0 0 0-3.352 4.986ZM61.45 487.722a7.537 7.537 0 0 0 .622 1.89 27.457 27.457 0 0 1 6.348.998c-1.793-1.75-3.63-5.994-4.238-7.436a15.498 15.498 0 0 0-1.799.775 4.647 4.647 0 0 0-.932 3.773ZM77.928 503.274l.513-.849a2.292 2.292 0 0 0-.677-1.012 9.555 9.555 0 0 0-1.17-.988 39.584 39.584 0 0 0-8.791-4.777 64.397 64.397 0 0 0-1.796-.493 39.379 39.379 0 0 0 6.053 5.413c4.181 2.925 5.868 2.706 5.868 2.706Z"/><path class="ln" d="m57.447 490.96-2.962 5.263a.668.668 0 0 0 .07-.05 12.82 12.82 0 0 1 2.96-1.738 5.746 5.746 0 0 1 2.362-.466 35.48 35.48 0 0 1 6.164 1.163c.636.165 1.25.335 1.793.498a40.274 40.274 0 0 1 8.792 4.777c.457.354.851.687 1.17.989a2.293 2.293 0 0 1 .676 1.011l2.754-4.534s-1.994-4.085-7.906-5.904c-1.865-.564-3.453-1.023-4.88-1.38a27.035 27.035 0 0 0-6.349-.997 7.46 7.46 0 0 0-.714.014 4.75 4.75 0 0 0-.531.056 6.673 6.673 0 0 0-3.31 1.22.5.5 0 0 1-.089.078ZM69.807 476.628a5.697 5.697 0 0 0-.01 1.425 19.554 19.554 0 0 1 4.254.55 42.32 42.32 0 0 1 2.09.481 5.52 5.52 0 0 1-.671-.493 9.316 9.316 0 0 1-.52-.548 8.182 8.182 0 0 1-1.282-2.166 13.795 13.795 0 0 0-3.83.733l.016-.026c-.008.012-.03.017-.047.044ZM77.997 487.438c2.953 2.262 5.378 1.492 5.378 1.492l3.079-4.652s-2.01 2.888-3.064 4.51c-1.254-1.65-3.787-2.974-6.464-3.989a45.835 45.835 0 0 0-3.923-1.266 26.698 26.698 0 0 0 2.553 2.116c.892.65 1.76 1.252 2.44 1.79Z"/><path class="ln" d="M62.34 483.958a.2.2 0 0 0 .052-.023 15.498 15.498 0 0 1 1.8-.775 9.085 9.085 0 0 1 4.366-.709c.338.067.845.168 1.44.307.835.184 1.885.443 3.029.766 1.24.349 2.59.767 3.922 1.27 2.663 1.006 5.21 2.336 6.464 3.989 1.058-1.6 3.063-4.51 3.063-4.51a13.106 13.106 0 0 0-5.841-3.947 87.602 87.602 0 0 0-3.444-.978l-1.027-.268c-.707-.173-1.4-.338-2.09-.48a20.01 20.01 0 0 0-4.254-.553c-.102.01-.209-.002-.297.017a14.772 14.772 0 0 0-4.572 1.49ZM72.968 472.143l-3.114 4.44-.017.027a13.797 13.797 0 0 1 3.83-.732 8.681 8.681 0 0 1 6.303 1.919c1.144-1.087 3.764-3.77 3.764-3.77a18.227 18.227 0 0 0-6.71-2.376c-3.718-.47-4.056.492-4.056.492ZM18.566 568.892l3.003 1.831s27.09-3.904 30.623-13.54a.049.049 0 0 1-.03.019 7.043 7.043 0 0 1-1.559 1.522 2.117 2.117 0 0 0 .144-.573 37.833 37.833 0 0 1-7.047 3.334c-7.661 2.724-18.843 5.03-23.906 6.222-1.035.242-1.813.442-2.254.593Z"/><path class="ln" d="M50.61 558.71a7.044 7.044 0 0 0 1.56-1.522 16.328 16.328 0 0 1-1.408.935 1.87 1.87 0 0 1-.152.587Z"/></g><g class="go"><path class="lo" d="M467.967 554.9c1.131-2.572 1.28-10.277 1.28-10.277l-.468-10.555.714-5.733a15.776 15.776 0 0 0-2.148-.016 3.551 3.551 0 0 0-1.355 2.343 47.055 47.055 0 0 0-.3 9.267l.415 10.941s-.528 4.948-1.67 6.57a11.351 11.351 0 0 0 1.238-.178 4.662 4.662 0 0 0 2.294-2.362ZM486.84 517.464a1.678 1.678 0 0 0-.592.845 17.462 17.462 0 0 0-.584 8.217c.735 3.57 1.383 7.56 1.383 7.56s.34 2.59.456 3.682a21.537 21.537 0 0 0 3.042 1.963c.051-.15 1.105-3.318-.374-8.76-.065-.259-.119-.505-.185-.763q-.199-.84-.365-1.717c-.781-4.269-.865-8.958-.255-11.229a10.077 10.077 0 0 0-2.526.202Z"/><path class="lo" d="m467.322 528.342.045-.001a13.982 13.982 0 0 1 2.15.015 5.339 5.339 0 0 1 2.74.852c1.466 1.192 7.158 5.539 9.09 8.083s5.945 4.495 5.945 4.495l3.3-2.013a.123.123 0 0 0-.045-.02 21.155 21.155 0 0 1-3.045-1.966 14.818 14.818 0 0 1-2.7-2.605c-2.12-2.741-7.576-6.916-7.576-6.916s-3.636-2.802-6.07-2.142a8.339 8.339 0 0 0-3.834 2.218ZM494.15 514.053a5.736 5.736 0 0 0-.2 1.456 20.318 20.318 0 0 1 3.894 2.689c-.624-1.74-.497-5.16-.424-6.316a13.912 13.912 0 0 0-1.448-.06 3.5 3.5 0 0 0-1.823 2.231ZM500.11 529.684l.607-.392a1.66 1.66 0 0 0-.131-.886 7.214 7.214 0 0 0-.455-1.036 29.892 29.892 0 0 0-4.302-6.004c-.303-.283-.65-.585-1.037-.902a28.35 28.35 0 0 0 2.285 5.54c1.856 3.28 3.033 3.68 3.033 3.68Z"/><path class="lo" d="m490.449 514.929-3.665 2.548a.2.2 0 0 0 .056-.013 9.776 9.776 0 0 1 2.514-.213 4.168 4.168 0 0 1 1.723.449 25.961 25.961 0 0 1 3.724 2.752c.376.329.723.63 1.037.901a29 29 0 0 1 4.302 6 7.22 7.22 0 0 1 .455 1.036 1.941 1.941 0 0 1 .13.886l3.294-2.125a9.676 9.676 0 0 0-3.364-6.46 60.571 60.571 0 0 0-2.814-2.489 20.031 20.031 0 0 0-3.89-2.692 4.476 4.476 0 0 0-.474-.224 3.645 3.645 0 0 0-.379-.134 4.736 4.736 0 0 0-2.593-.235.2.2 0 0 1-.056.013ZM503.267 509.36a4.925 4.925 0 0 0-.467.941 13.851 13.851 0 0 1 2.65 1.728c.409.316.816.652 1.234.999a5.951 5.951 0 0 1-.29-.533 7.022 7.022 0 0 1-.164-.526 6.919 6.919 0 0 1-.166-1.858 10.1 10.1 0 0 0-2.785-.74l.011-.012c.01-.011-.012-.01-.023.001ZM505.237 519.173a4.653 4.653 0 0 0 3.102 2.717l3.545-2.113s-2.262 1.278-3.491 2.01a11.054 11.054 0 0 0-3.025-4.721 34.518 34.518 0 0 0-2.199-2.094 22.745 22.745 0 0 0 1.016 2.237c.399.72.773 1.397 1.052 1.964Z"/><path class="lo" d="m495.937 511.832.045-.001c.15.003.727-.007 1.448.06a6.73 6.73 0 0 1 3.132.934c.209.15.499.378.851.657.5.4 1.108.897 1.77 1.475.723.63 1.484 1.34 2.198 2.094a11.279 11.279 0 0 1 3.024 4.725c1.218-.72 3.491-2.012 3.491-2.012a9.711 9.711 0 0 0-2.62-4.494 51.525 51.525 0 0 0-1.971-1.751c-.204-.168-.4-.351-.601-.511a39.78 39.78 0 0 0-1.23-1 13.685 13.685 0 0 0-2.65-1.727c-.068-.02-.137-.063-.206-.084a11.353 11.353 0 0 0-3.521-.487ZM506.816 507.382l-3.493 1.965-.01.012a10.728 10.728 0 0 1 2.784.74 6.368 6.368 0 0 1 3.576 3.29c1.116-.358 3.706-1.306 3.706-1.306a13.563 13.563 0 0 0-3.703-3.738c-2.325-1.49-2.86-.963-2.86-.963ZM439.58 554.274l1.411 2.189s19.273 6.087 24.706.82a.016.016 0 0 1-.022 0 4.991 4.991 0 0 1-1.52.506 2.167 2.167 0 0 0 .292-.339 27.389 27.389 0 0 1-5.756-.059c-5.973-.647-14.148-2.705-17.896-3.536-.764-.165-1.342-.294-1.685-.325Z"/><path class="lo" d="M464.157 557.79a4.994 4.994 0 0 0 1.52-.504c-.079.014-.506.096-1.238.179a.993.993 0 0 1-.282.326Z"/></g><path d="M9.731 5.529 3.547 3.675 0 0l6.184 1.87Z" transform="rotate(90 -94.339 588.328)" style="fill:url(#mq);opacity:.4"/></svg>