<svg xmlns="http://www.w3.org/2000/svg" xmlns:xlink="http://www.w3.org/1999/xlink" width="134" height="134" viewBox="0 0 134 134"><defs><style>.a,.d{fill:none;}.a{stroke:#87a2fd;stroke-width:3px;opacity:0.896;}.b{fill:url(#a);}.c{stroke:none;}</style><linearGradient id="a" x1="0.5" x2="0.5" y2="1" gradientUnits="objectBoundingBox"><stop offset="0" stop-color="#4c7aec"/><stop offset="1" stop-color="#4255b4"/></linearGradient></defs><g class="a"><circle class="c" cx="67" cy="67" r="67"/><circle class="d" cx="67" cy="67" r="65.5"/></g><g transform="translate(31.762 40.545)"><path class="b" d="M49.494-228.407c-17.085.462-29.674,4.753-31.883,10.919-.488,1.362-.334,3.211.565,6.32.719,2.492,1.464,3.494,2.9,3.905a50.224,50.224,0,0,0,10.02,0c1.336-.385,2.03-1.182,3.289-3.777,1.31-2.749,1.875-3.289,4.779-4.445A34.935,34.935,0,0,1,52.86-217.8a32.952,32.952,0,0,1,14.079,2.646c2.132,1,2.749,1.67,4.059,4.547,1.028,2.261,2.055,3.237,3.623,3.468a50.332,50.332,0,0,0,5.344.077c5.678-.1,5.96-.283,7.065-4.239,1.336-4.907,1.053-6.577-1.542-9.172-2.338-2.338-6.706-4.47-11.921-5.781C67.607-227.764,57.972-228.638,49.494-228.407Z" transform="translate(-17.338 228.443)"/><path class="b" d="M61.271-159.64c-2,.719-2.749,1.413-4.239,3.957-3.006,5.164-3.828,6.063-10.559,11.741-5.344,4.5-5.472,4.8-5.472,11.87,0,4.573.051,5.087.514,5.858,1,1.619-.36,1.541,28.646,1.541s27.644.077,28.646-1.541c.462-.771.514-1.285.514-5.935,0-5.113,0-5.113-.745-6.654-.822-1.721-1.259-2.158-6.063-6.166-4.111-3.417-6.243-5.626-7.219-7.451-1.464-2.775-3.34-5.575-4.111-6.166C79.486-159.9,78.613-160,70.057-160,64.3-159.974,61.939-159.9,61.271-159.64Z" transform="translate(-34.921 177.584)"/></g></svg>