<svg xmlns="http://www.w3.org/2000/svg" width="80.358" height="54.868" viewBox="0 0 80.358 54.868"><defs><style>.a{fill:#fff;}.b{fill:#ea4335;}.c{fill:#fbbc05;}.d{fill:#4285f4;}.e{fill:#34a853;}.f,.g{stroke:none;}.g{fill:#eaeaea;}</style></defs><g class="a" transform="translate(0)"><path class="f" d="M 73.21525573730469 54.36768341064453 L 7.142948150634766 54.36768341064453 C 3.48001503944397 54.36768341064453 0.5000038743019104 50.65380477905273 0.5000038743019104 46.08883666992188 L 0.5000038743019104 8.778826713562012 C 0.5000038743019104 4.213871002197266 3.48001503944397 0.5000045299530029 7.142948150634766 0.5000045299530029 L 73.21525573730469 0.5000045299530029 C 76.87818908691406 0.5000045299530029 79.85820007324219 4.213871002197266 79.85820007324219 8.778826713562012 L 79.85820007324219 46.08883666992188 C 79.85820007324219 50.65380477905273 76.87818908691406 54.36768341064453 73.21525573730469 54.36768341064453 Z"/><path class="g" d="M 7.142951965332031 0.9999923706054688 C 3.755714416503906 0.9999923706054688 1.000007629394531 4.489559173583984 1.000007629394531 8.778827667236328 L 1.000007629394531 46.08883666992188 C 1.000007629394531 50.37810516357422 3.755714416503906 53.86767196655273 7.142951965332031 53.86767196655273 L 73.21525573730469 53.86767196655273 C 76.60249328613281 53.86767196655273 79.35820007324219 50.37810516357422 79.35820007324219 46.08883666992188 L 79.35820007324219 8.778827667236328 C 79.35820007324219 4.489559173583984 76.60249328613281 0.9999923706054688 73.21525573730469 0.9999923706054688 L 7.142951965332031 0.9999923706054688 M 7.142951965332031 -7.62939453125e-06 L 73.21525573730469 -7.62939453125e-06 C 77.16020202636719 -7.62939453125e-06 80.35820007324219 3.930416107177734 80.35820007324219 8.778827667236328 L 80.35820007324219 46.08883666992188 C 80.35820007324219 50.93725967407227 77.16020202636719 54.86767196655273 73.21525573730469 54.86767196655273 L 7.142951965332031 54.86767196655273 C 3.198005676269531 54.86767196655273 7.62939453125e-06 50.93725967407227 7.62939453125e-06 46.08883666992188 L 7.62939453125e-06 8.778827667236328 C 7.62939453125e-06 3.930416107177734 3.198005676269531 -7.62939453125e-06 7.142951965332031 -7.62939453125e-06 Z"/></g><g transform="translate(12 18)"><path class="b" d="M80.239,29.19a4.675,4.675,0,1,1-4.675-4.66A4.6,4.6,0,0,1,80.239,29.19Zm-2.046,0a2.635,2.635,0,1,0-2.628,2.824A2.684,2.684,0,0,0,78.193,29.19Z" transform="translate(-55.996 -19.376)"/><path class="c" d="M128.239,29.19a4.675,4.675,0,1,1-4.675-4.66A4.6,4.6,0,0,1,128.239,29.19Zm-2.046,0a2.635,2.635,0,1,0-2.628,2.824A2.684,2.684,0,0,0,126.193,29.19Z" transform="translate(-93.912 -19.376)"/><path class="d" d="M175.8,24.812v8.366c0,3.441-2.03,4.847-4.429,4.847a4.437,4.437,0,0,1-4.13-2.746l1.782-.742a2.574,2.574,0,0,0,2.347,1.653c1.536,0,2.488-.948,2.488-2.731v-.67h-.071a3.173,3.173,0,0,1-2.454,1.059,4.663,4.663,0,0,1,0-9.318,3.229,3.229,0,0,1,2.454,1.042h.071v-.758H175.8Zm-1.8,4.4a2.625,2.625,0,0,0-2.488-2.84,2.834,2.834,0,0,0,0,5.647A2.6,2.6,0,0,0,174,29.207Z" transform="translate(-131.811 -19.376)"/><path class="e" d="M217.136,2.53V16.186h-2V2.53Z" transform="translate(-169.94 -1.998)"/><path class="b" d="M235.649,30.716l1.588,1.059a4.638,4.638,0,0,1-3.883,2.065,4.559,4.559,0,0,1-4.624-4.66,4.428,4.428,0,0,1,4.4-4.66,4.328,4.328,0,0,1,3.988,2.964l.212.529-6.229,2.58a2.372,2.372,0,0,0,2.259,1.412A2.66,2.66,0,0,0,235.649,30.716Zm-4.889-1.677,4.164-1.729a1.8,1.8,0,0,0-1.729-.987A2.556,2.556,0,0,0,230.76,29.039Z" transform="translate(-180.675 -19.369)"/><path class="d" d="M7.339,8.6V6.624H14a6.551,6.551,0,0,1,.1,1.193,6.529,6.529,0,0,1-1.712,4.624,6.617,6.617,0,0,1-5.046,2.029A7.337,7.337,0,0,1,0,7.236,7.337,7.337,0,0,1,7.341,0,6.9,6.9,0,0,1,12.3,1.994l-1.4,1.4A5.039,5.039,0,0,0,7.339,1.977,5.19,5.19,0,0,0,2.149,7.236a5.19,5.19,0,0,0,5.189,5.259,4.841,4.841,0,0,0,3.654-1.448A4.1,4.1,0,0,0,12.064,8.6Z" transform="translate(0)"/></g></svg>