<svg xmlns="http://www.w3.org/2000/svg" width="71.194" height="65.954" viewBox="0 0 71.194 65.954"><defs><style>.a{fill:#fcdd62;}</style></defs><g transform="translate(-9.297 15.433) rotate(-40)"><path class="a" d="M7.591,16.86A10.207,10.207,0,0,0,8.665,7.5,13.746,13.746,0,0,0,2.1,0S-1.337,4.669.584,9.968A11.836,11.836,0,0,0,7.591,16.86Z" transform="translate(3.164 10.692)"/><path class="a" d="M.695,15.234a11.837,11.837,0,0,0,8.356-5.176C12.093,5.31,9.768,0,9.768,0A13.747,13.747,0,0,0,1.71,5.876,10.176,10.176,0,0,0,.695,15.234Z" transform="translate(18.497 15.102)"/><path class="a" d="M1.041,6.871a10.191,10.191,0,0,0,.213,9.416,11.848,11.848,0,0,0,7.612-6.219C11.256,4.96,8.258,0,8.258,0A13.721,13.721,0,0,0,1.041,6.871Z" transform="translate(18.69 29.742)"/><path class="a" d="M7.2,0A13.744,13.744,0,0,0,.654,7.519a10.192,10.192,0,0,0,1.094,9.354A11.847,11.847,0,0,0,8.739,9.965C10.643,4.658,7.2,0,7.2,0Z" transform="translate(24.544 40.832)"/><path class="a" d="M3.758,17.727A11.856,11.856,0,0,0,8.468,9.1C8.763,3.465,4.115,0,4.115,0a13.739,13.739,0,0,0-4.1,9.087A10.208,10.208,0,0,0,3.758,17.727Z" transform="translate(31.801 51.752)"/><path class="a" d="M2.322,17.069A10.191,10.191,0,0,0,8.4,9.883,13.732,13.732,0,0,0,7.114,0S1.667,1.976.319,7.454A11.833,11.833,0,0,0,2.322,17.069Z" transform="translate(15.21 0)"/><path class="a" d="M10.752,14.493A10.207,10.207,0,0,0,9.017,5.238,13.749,13.749,0,0,0,.534,0S-1.373,5.475,2.022,9.975A11.827,11.827,0,0,0,10.752,14.493Z" transform="translate(0 25.002)"/><path class="a" d="M13.217,11.882A10.214,10.214,0,0,0,9.467,3.244,13.726,13.726,0,0,0,.034.023S-.611,5.786,3.7,9.419A11.863,11.863,0,0,0,13.217,11.882Z" transform="translate(1.433 39.859)"/><path class="a" d="M16.15,8.138A10.178,10.178,0,0,0,9.965,1.044,13.718,13.718,0,0,0,0,.828S1.132,6.515,6.339,8.676A11.847,11.847,0,0,0,16.15,8.138Z" transform="translate(4.434 53.729)"/><path class="a" d="M9.92.506A13.744,13.744,0,0,0,0,1.484S1.8,6.992,7.228,8.512a11.832,11.832,0,0,0,9.68-1.7A10.173,10.173,0,0,0,9.92.506Z" transform="translate(13.257 65.564)"/><path class="a" d="M4.784,1.218,2.307,0c-.13.271-12.87,27.332,22.928,57.933l1.791-2.1C-7.057,26.7,4.283,2.243,4.784,1.218Z" transform="translate(13.327 19.199)"/></g></svg>