<svg xmlns="http://www.w3.org/2000/svg" xmlns:xlink="http://www.w3.org/1999/xlink" width="60" height="60" viewBox="0 0 60 60"><defs><style>.a{fill:none;}.b{fill:url(#a);}</style><linearGradient id="a" x1="0.5" x2="0.5" y2="1" gradientUnits="objectBoundingBox"><stop offset="0" stop-color="#769dff"/><stop offset="1" stop-color="#2f65eb"/></linearGradient></defs><rect class="a" width="60" height="60"/><g transform="translate(3 3)"><path class="b" d="M211,245.764A4.764,4.764,0,1,0,215.764,241,4.769,4.769,0,0,0,211,245.764Zm0,0" transform="translate(-188.662 -215.486)"/><path class="b" d="M175.528,361A9.538,9.538,0,0,0,166,370.528v6.458h19.056v-6.458A9.538,9.538,0,0,0,175.528,361Zm0,0" transform="translate(-148.426 -322.783)"/><path class="b" d="M55.528,275.764a4.764,4.764,0,1,0-4.764,4.764A4.769,4.769,0,0,0,55.528,275.764Zm0,0" transform="translate(-41.13 -242.31)"/><path class="b" d="M385.528,275.764a4.764,4.764,0,1,0-4.764,4.764A4.769,4.769,0,0,0,385.528,275.764Zm0,0" transform="translate(-336.195 -242.31)"/><path class="b" d="M8.046,0,5.63,5.7,0,6.49l4.061,3.857-.934,5.639,4.919-2.571,4.919,2.571-.934-5.639L15.986,6.49,10.521,5.7Zm0,0"/><path class="b" d="M191.415,5.7,188.94,0l-2.416,5.7L181,6.49l3.955,3.857-.934,5.639,4.919-2.571,4.919,2.571-.934-5.639L196.88,6.49Zm0,0" transform="translate(-161.838)"/><path class="b" d="M368.94,0l-2.416,5.7L361,6.49l3.955,3.857-.934,5.639,4.919-2.571,4.919,2.571-.934-5.639,4.061-3.857L371.415,5.7Zm0,0" transform="translate(-322.783)"/><path class="b" d="M373.523,391a9.449,9.449,0,0,0-5.621,1.87,12.576,12.576,0,0,1,.857,4.482v6.458h14.4v-3.282A9.619,9.619,0,0,0,373.523,391Zm0,0" transform="translate(-328.954 -349.607)"/><path class="b" d="M0,400.528v3.282H14.4v-6.458a12.576,12.576,0,0,1,.857-4.482A9.448,9.448,0,0,0,9.634,391,9.619,9.619,0,0,0,0,400.528Zm0,0" transform="translate(0 -349.607)"/></g></svg>