<svg xmlns="http://www.w3.org/2000/svg" xmlns:xlink="http://www.w3.org/1999/xlink" width="60" height="60" viewBox="0 0 60 60"><defs><style>.a{fill:none;}.b{fill:url(#a);}</style><linearGradient id="a" x1="0.5" x2="0.5" y2="1" gradientUnits="objectBoundingBox"><stop offset="0" stop-color="#769dff"/><stop offset="1" stop-color="#2f65eb"/></linearGradient></defs><rect class="a" width="60" height="60"/><g transform="translate(0 12.456)"><path class="b" d="M0,0V16.005c0,3.479,7.634,6.3,17.051,6.3S34.1,19.484,34.1,16.005V0Z" transform="translate(12.949 9.956)"/><path class="b" d="M0,0V9.368c0,3.479,7.634,6.3,17.051,6.3S34.1,12.847,34.1,9.368V0Z" transform="translate(12.949 9.956)"/><path class="b" d="M30,0,0,9.956l30,9.956L60,9.956Z" transform="translate(0 0)"/><path class="b" d="M0,18.228V8.83a1.018,1.018,0,0,1,.34-.767L9.266.228a.9.9,0,0,1,1.32.134,1.036,1.036,0,0,1-.126,1.4L1.875,9.3v8.928Z" transform="translate(20.137 8.12)"/><path class="b" d="M4.688,0H2.812L0,8.74H7.5Z" transform="translate(17.324 26.348)"/></g></svg>