<svg xmlns="http://www.w3.org/2000/svg" xmlns:xlink="http://www.w3.org/1999/xlink" width="60" height="60" viewBox="0 0 60 60"><defs><style>.a{fill:none;}.b{fill:url(#a);}</style><linearGradient id="a" x1="0.5" x2="0.5" y2="1" gradientUnits="objectBoundingBox"><stop offset="0" stop-color="#769dff"/><stop offset="1" stop-color="#2f65eb"/></linearGradient></defs><rect class="a" width="60" height="60"/><g transform="translate(7 3)"><g transform="translate(0 6.702)"><path class="b" d="M133.515,186.127a16.271,16.271,0,0,1-16.227-16.288v-4.472a1.932,1.932,0,0,1,1.932-1.932h.005l11.709.026a1.323,1.323,0,0,1,0,2.645h0l-10.995-.024v3.757a13.614,13.614,0,0,0,15.748,13.468l.411-.069a1.323,1.323,0,1,1,.456,2.605l-.444.075A16.158,16.158,0,0,1,133.515,186.127Z" transform="translate(-117.288 -163.435)"/><path class="b" d="M279.92,186.128a16.184,16.184,0,0,1-2.589-.209l-.444-.075a1.323,1.323,0,1,1,.456-2.605q.207.036.411.069A13.614,13.614,0,0,0,293.5,169.84v-3.757l-10.995.024h0a1.323,1.323,0,0,1,0-2.645l11.709-.026h.005a1.932,1.932,0,0,1,1.931,1.932v4.472a16.271,16.271,0,0,1-16.227,16.288Z" transform="translate(-248.662 -163.436)"/></g><path class="b" d="M205.2,300h17.391c-7.2-9.136-6.452-22.3-6.452-22.3h-4.487S212.4,290.863,205.2,300Z" transform="translate(-190.149 -251.438)"/><path class="b" d="M245.9,277.7h-4.487a36.263,36.263,0,0,1-.183,5.08,23.994,23.994,0,0,0,4.252,16.352q.315.44.653.869h6.217C245.152,290.864,245.9,277.7,245.9,277.7Z" transform="translate(-219.918 -251.439)"/><path class="b" d="M179.353,141.293v11.538a21.482,21.482,0,0,0,8.74,17.3h0a7.383,7.383,0,0,0,8.758,0h0a21.482,21.482,0,0,0,8.74-17.3V141.293Z" transform="translate(-168.73 -138.381)"/><path class="b" d="M247.748,141.293v11.538a21.482,21.482,0,0,1-8.74,17.3h0a7.38,7.38,0,0,1-1.256.746,7.383,7.383,0,0,0,7.5-.746h0a21.482,21.482,0,0,0,8.74-17.3V141.293Z" transform="translate(-217.133 -138.381)"/><path class="b" d="M198.264,128.993H170.146a.767.767,0,0,1-.767-.767v-3.18a.767.767,0,0,1,.767-.767h28.118a.767.767,0,0,1,.767.767v3.18A.768.768,0,0,1,198.264,128.993Z" transform="translate(-160.463 -124.279)"/><path class="b" d="M311.605,124.28h-5.479v4.714h5.479a.767.767,0,0,0,.767-.767v-3.18A.767.767,0,0,0,311.605,124.28Z" transform="translate(-273.804 -124.28)"/><path class="b" d="M196.245,405.615h-29.72a.619.619,0,0,1-.581-.833l2.207-5.98a.619.619,0,0,1,.581-.4h25.306a.619.619,0,0,1,.581.4l2.207,5.98A.619.619,0,0,1,196.245,405.615Z" transform="translate(-157.584 -351.479)"/><path class="b" d="M303.827,404.782l-2.207-5.98a.619.619,0,0,0-.581-.4H295l2.664,7.218h5.579A.619.619,0,0,0,303.827,404.782Z" transform="translate(-264.585 -351.479)"/></g></svg>