<svg xmlns="http://www.w3.org/2000/svg" xmlns:xlink="http://www.w3.org/1999/xlink" width="60" height="60" viewBox="0 0 60 60"><defs><style>.a{fill:none;}.b{fill:url(#a);}.c{fill:url(#d);}.d{fill:#fcfcfc;}</style><linearGradient id="a" x1="0.5" x2="0.5" y2="1" gradientUnits="objectBoundingBox"><stop offset="0" stop-color="#769dff"/><stop offset="1" stop-color="#2f65eb"/></linearGradient><linearGradient id="d" x1="0.5" x2="0.5" y2="1" gradientUnits="objectBoundingBox"><stop offset="0" stop-color="#c3d4ff"/><stop offset="1" stop-color="#96b4ff"/></linearGradient></defs><rect class="a" width="60" height="60"/><g transform="translate(1 3)"><path class="b" d="M194.105,397.907a2.8,2.8,0,0,0,2.8,2.8h3.73a2.8,2.8,0,0,0,2.8-2.8v-5.595h-9.325Zm0,0" transform="translate(-171.698 -346.59)"/><path class="b" d="M11.395,193.146a10.524,10.524,0,0,1-1.436-1.112,2.909,2.909,0,1,1-2.811-3.642c.089,0,.175.018.26.026a10.484,10.484,0,0,1-.837-4.106H5.828l-.4,1.916a.583.583,0,0,1-.9.36l-1.61-1.11-1.748,1.748,1.107,1.61a.583.583,0,0,1-.36.9l-1.913.4v2.331l1.915.4a.583.583,0,0,1,.36.9l-1.11,1.61,1.748,1.748,1.61-1.108a.583.583,0,0,1,.9.36l.4,1.913H8.16l.4-1.916a.583.583,0,0,1,.9-.36l1.61,1.11,1.83-1.83A3.394,3.394,0,0,0,11.395,193.146Zm0,0" transform="translate(6.543 -158.639)"/><path class="b" d="M123.66,57.1A16.785,16.785,0,1,0,97.819,71.23a5.347,5.347,0,0,1,2.529,4.478v3.768a2.8,2.8,0,0,0,2.8,2.8h7.46a2.8,2.8,0,0,0,2.8-2.8V75.785a5.493,5.493,0,0,1,2.583-4.59A16.771,16.771,0,0,0,123.66,57.1Zm0,0" transform="translate(-79.805 -35.619)"/><path class="c" d="M231.736,18.962l2.932-2.2-3.357-4.476-2.932,2.2a1.865,1.865,0,0,1-2.965-1.756l.518-3.627-5.539-.791-.518,3.626a1.865,1.865,0,0,1-3.338.856l-2.2-2.932-4.476,3.357,2.2,2.932a1.865,1.865,0,0,1-1.756,2.965l-3.627-.518-.792,5.539,3.628.518a1.865,1.865,0,0,1,.855,3.338l-2.931,2.2,3.357,4.476,2.931-2.2a1.865,1.865,0,0,1,2.966,1.756l-.522,3.626,5.539.792.522-3.628a1.865,1.865,0,0,1,3.338-.855l2.2,2.931,4.476-3.357-2.2-2.931a1.865,1.865,0,0,1,1.756-2.965l3.627.518.792-5.539-3.627-.518a1.865,1.865,0,0,1-.856-3.337ZM221.053,30a6.527,6.527,0,1,1,6.527-6.527A6.527,6.527,0,0,1,221.053,30Zm0,0" transform="translate(-178.494 -7.35)"/><path class="b" d="M194.105,416.313h9.325v1.865h-9.325Zm0,0" transform="translate(-171.698 -367.793)"/><path class="b" d="M226.105,352.313h1.865v2.8h-1.865Zm0,0" transform="translate(-199.968 -311.253)"/><path class="d" d="M136.077,118.307h-1.865a5.955,5.955,0,0,0-3.823-5.558,13.055,13.055,0,0,1-2.2-23.206l.989,1.578a11.19,11.19,0,0,0,1.885,19.893A7.8,7.8,0,0,1,136.077,118.307Zm0,0" transform="translate(-108.074 -79.112)"/><path class="b" d="M387.038,296.313H391.7a.932.932,0,1,1,0,1.865h-4.662a.932.932,0,0,1,0-1.865Zm0,0" transform="translate(-341.318 -261.78)"/><path class="b" d="M376.467,341.772a.932.932,0,0,1,1.313-.12l4.163,3.468a.933.933,0,1,1-1.194,1.433l-4.163-3.468A.932.932,0,0,1,376.467,341.772Zm0,0" transform="translate(-332.612 -301.644)"/><path class="b" d="M339.038,360.313a.932.932,0,0,1,.932.932v4.662a.932.932,0,0,1-1.865,0v-4.662A.932.932,0,0,1,339.038,360.313Zm0,0" transform="translate(-298.913 -318.32)"/><path class="b" d="M2.572,123.691l5.65-1.411a.932.932,0,1,1,.452,1.809L3.024,125.5a.932.932,0,1,1-.452-1.809Zm0,0" transform="translate(-1.865 -108.008)"/><path class="b" d="M16.786,45.36a.932.932,0,0,1,1.3-.216L23.1,48.722a.932.932,0,1,1-1.083,1.517L17,46.66A.932.932,0,0,1,16.786,45.36Zm0,0" transform="translate(-14.893 -39.734)"/><path class="b" d="M84.431.083a.932.932,0,0,1,1.134.673l1.445,5.653A.932.932,0,1,1,85.2,6.87L83.759,1.218A.933.933,0,0,1,84.431.083Zm0,0" transform="translate(-74.187 -0.054)"/></g></svg>