<svg xmlns="http://www.w3.org/2000/svg" xmlns:xlink="http://www.w3.org/1999/xlink" width="1645.797" height="869.051" viewBox="0 0 1645.797 869.051"><defs><style>.a{fill:#f8f8f8;}.b{clip-path:url(#a);}.c{fill:none;stroke:rgba(110,151,253,0.06);stroke-width:5px;}.d{fill:url(#b);}.e{fill:url(#c);}.f{fill:url(#d);}.g{fill:url(#e);}.h{fill:url(#f);}.i{fill:url(#g);}.j{fill:url(#h);}.k{fill:url(#i);}</style><clipPath id="a"><path class="a" d="M40,0H1605.8a40,40,0,0,1,40,40V858.857a0,0,0,0,1,0,0H0a0,0,0,0,1,0,0V40A40,40,0,0,1,40,0Z" transform="translate(137.102 3926.597)"/></clipPath><linearGradient id="b" y1="0.5" x2="1" y2="0.5" gradientUnits="objectBoundingBox"><stop offset="0" stop-color="#8f6e1e"/><stop offset="0.003" stop-color="#906f1f"/><stop offset="0.117" stop-color="#b59b4e"/><stop offset="0.217" stop-color="#d0bb6f"/><stop offset="0.301" stop-color="#e1ce84"/><stop offset="0.356" stop-color="#e7d58b"/><stop offset="0.744" stop-color="#ddb930"/><stop offset="1" stop-color="#a17c22"/></linearGradient><linearGradient id="c" x1="0" y1="0.5" x2="0.999" y2="0.5" xlink:href="#b"/><linearGradient id="d" x1="-0.001" y1="0.5" x2="1.001" y2="0.5" xlink:href="#b"/><linearGradient id="e" x1="0" y1="0.5" x2="1.001" y2="0.5" xlink:href="#b"/><linearGradient id="f" x1="0" y1="0.499" x2="1" y2="0.499" xlink:href="#b"/><linearGradient id="g" x1="0" y1="0.5" x2="1" y2="0.5" xlink:href="#b"/><linearGradient id="h" x1="0" y1="0.499" x2="1" y2="0.499" xlink:href="#b"/><linearGradient id="i" x1="0" y1="0.501" x2="1" y2="0.501" xlink:href="#b"/></defs><g transform="translate(-137.102 -3916.403)"><path class="a" d="M40,0H1605.8a40,40,0,0,1,40,40V869.051a0,0,0,0,1,0,0H0a0,0,0,0,1,0,0V40A40,40,0,0,1,40,0Z" transform="translate(137.102 3916.403)"/><g class="b" transform="translate(0 -10)"><path class="c" d="M3020.314-6055s477.131,148.014,736.75,113.909,344.811,18.881,405.081,61.181S4337.238-5660.251,4507.8-5650.2" transform="translate(-2724.898 9962.097)"/><path class="c" d="M3020.314-6055s477.131,148.014,736.75,113.909,344.811,18.881,405.081,61.181S4337.238-5660.251,4507.8-5650.2" transform="translate(-2724.898 9927.097)"/><path class="c" d="M3020.314-6055s477.131,148.014,736.75,113.909,344.811,18.881,405.081,61.181S4337.238-5660.251,4507.8-5650.2" transform="translate(-2724.898 9893.097)"/><path class="c" d="M3020.314-6055s477.131,148.014,736.75,113.909,344.811,18.881,405.081,61.181S4337.238-5660.251,4507.8-5650.2" transform="translate(-2724.898 9858.097)"/><path class="c" d="M3020.314-6055s477.131,148.014,736.75,113.909,344.811,18.881,405.081,61.181S4337.238-5660.251,4507.8-5650.2" transform="translate(-2724.898 9823.097)"/><path class="c" d="M3020.314-6055s477.131,148.014,736.75,113.909,344.811,18.881,405.081,61.181S4337.238-5660.251,4507.8-5650.2" transform="translate(-2724.898 9789.097)"/><path class="c" d="M3020.314-6055s477.131,148.014,736.75,113.909,344.811,18.881,405.081,61.181S4337.238-5660.251,4507.8-5650.2" transform="translate(-2724.898 9754.097)"/><g transform="translate(152.104 3947.366)"><path class="d" d="M5.944,0,0,14.093,12.368,18.6,18.312,4.506Z" transform="translate(905.226 0) rotate(90)"/><path class="e" d="M10.37,2.4,3.356,0,0,7.51l7,2.4Z" transform="translate(99.868 18.312) rotate(90)"/><path class="f" d="M9.571,1.694,1.087,0,0,7.382,8.5,9.076Z" transform="translate(78.139 448.823) rotate(90)"/><path class="g" d="M9.188,4.57l-.256-.959L7.973,0,0,1.678,1.79,8.469,9.763,6.791Z" transform="translate(44.888 143.36) rotate(90)"/><path class="h" d="M6.168,0,0,2.748l5.624,3.34,6.168-2.764Z" transform="translate(54.298 75.545) rotate(90)"/><path class="i" d="M9.779,6.791,7.973,0,0,1.694,1.806,8.485Z" transform="translate(193.711 50.086) rotate(90)"/><path class="j" d="M7.7,2.173,4.027,0,0,1.79,3.675,3.979Z" transform="translate(117.216 127.557) rotate(90)"/><path class="k" d="M0,1.694,1.79,8.469,9.779,6.791,7.973,0Z" transform="translate(8.469 412.983) rotate(90)"/><path class="d" d="M5.944,0,0,14.093,12.368,18.6,18.312,4.506Z" transform="translate(499.063 18.312) rotate(90)"/><path class="e" d="M10.37,2.4,3.356,0,0,7.51l7,2.4Z" transform="translate(739.868 18.312) rotate(90)"/><path class="f" d="M9.571,1.694,1.087,0,0,7.382,8.5,9.076Z" transform="translate(508.139 279.823) rotate(90)"/><path class="g" d="M9.188,4.57l-.256-.959L7.973,0,0,1.678,1.79,8.469,9.763,6.791Z" transform="translate(865.888 202.844) rotate(90)"/><path class="h" d="M6.168,0,0,2.748l5.624,3.34,6.168-2.764Z" transform="translate(844.298 43.183) rotate(90)"/><path class="i" d="M9.779,6.791,7.973,0,0,1.694,1.806,8.485Z" transform="translate(913.711 50.086) rotate(90)"/><path class="j" d="M7.7,2.173,4.027,0,0,1.79,3.675,3.979Z" transform="translate(882.216 123.706) rotate(90)"/><path class="k" d="M0,1.694,1.79,8.469,9.779,6.791,7.973,0Z" transform="translate(708.469 309.983) rotate(90)"/></g></g></g></svg>