<svg xmlns="http://www.w3.org/2000/svg" xmlns:xlink="http://www.w3.org/1999/xlink" width="134" height="134" viewBox="0 0 134 134"><defs><style>.a,.d{fill:none;}.a{stroke:#87a2fd;stroke-width:3px;opacity:0.896;}.b{fill:url(#a);}.c{stroke:none;}</style><linearGradient id="a" x1="0.5" x2="0.5" y2="1" gradientUnits="objectBoundingBox"><stop offset="0" stop-color="#4c7aec"/><stop offset="1" stop-color="#4255b4"/></linearGradient></defs><g class="a"><circle class="c" cx="67" cy="67" r="67"/><circle class="d" cx="67" cy="67" r="65.5"/></g><g transform="translate(35 34.999)"><path class="b" d="M34.787,4.7,5.446.237A4.732,4.732,0,0,0,1.655,1.278,4.774,4.774,0,0,0,0,4.855V61.108a2.678,2.678,0,0,0,2.67,2.67h8.677V49.761a4.66,4.66,0,0,1,4.672-4.672h6.674a4.66,4.66,0,0,1,4.672,4.672V63.777H38.712V9.314A4.675,4.675,0,0,0,34.787,4.7Zm-20.1,34.387h-4a2,2,0,0,1,0-4h4a2,2,0,1,1,0,4Zm0-8.009h-4a2,2,0,1,1,0-4h4a2,2,0,1,1,0,4Zm0-8.009h-4a2,2,0,0,1,0-4h4a2,2,0,0,1,0,4Zm0-8.009h-4a2,2,0,1,1,0-4h4a2,2,0,1,1,0,4ZM28.033,39.082h-4a2,2,0,0,1,0-4h4a2,2,0,1,1,0,4Zm0-8.009h-4a2,2,0,0,1,0-4h4a2,2,0,1,1,0,4Zm0-8.009h-4a2,2,0,0,1,0-4h4a2,2,0,0,1,0,4Zm0-8.009h-4a2,2,0,0,1,0-4h4a2,2,0,1,1,0,4Z" transform="translate(0 -0.178)"/><path class="b" d="M34.509,13.332,15.5,9.351v39.11H33.521a4.677,4.677,0,0,0,4.672-4.672V17.9A4.649,4.649,0,0,0,34.509,13.332Zm-6.327,27.12h-4a2,2,0,1,1,0-4h4a2,2,0,1,1,0,4Zm0-8.009h-4a2,2,0,1,1,0-4h4a2,2,0,0,1,0,4Zm0-8.009h-4a2,2,0,1,1,0-4h4a2,2,0,0,1,0,4Z" transform="translate(25.881 15.139)"/></g></svg>