<svg xmlns="http://www.w3.org/2000/svg" xmlns:xlink="http://www.w3.org/1999/xlink" width="134" height="134" viewBox="0 0 134 134"><defs><style>.a,.d{fill:none;}.a{stroke:#87a2fd;stroke-width:3px;opacity:0.896;}.b{fill:url(#a);}.c{stroke:none;}</style><linearGradient id="a" x1="0.5" x2="0.5" y2="1" gradientUnits="objectBoundingBox"><stop offset="0" stop-color="#4c7aec"/><stop offset="1" stop-color="#4255b4"/></linearGradient></defs><g class="a"><circle class="c" cx="67" cy="67" r="67"/><circle class="d" cx="67" cy="67" r="65.5"/></g><g transform="translate(47.471 33.229)"><path class="b" d="M39.51,0H10.9A4.949,4.949,0,0,0,5.951,4.953v58.1A4.947,4.947,0,0,0,10.9,68H39.51a4.95,4.95,0,0,0,4.948-4.948V4.953A4.952,4.952,0,0,0,39.51,0ZM18.145,3.008H32.269c.357,0,.647.533.647,1.192s-.29,1.194-.647,1.194H18.145c-.359,0-.644-.535-.644-1.194S17.786,3.008,18.145,3.008Zm7.062,60.1a3.159,3.159,0,1,1,3.154-3.162A3.164,3.164,0,0,1,25.207,63.111ZM40.751,52.285H9.66V8.358H40.751V52.285Z" transform="translate(-5.951)"/></g></svg>