<svg xmlns="http://www.w3.org/2000/svg" xmlns:xlink="http://www.w3.org/1999/xlink" width="105" height="105" viewBox="0 0 105 105"><defs><style>.a{fill:url(#a);}.b{fill:#fff;}.c{fill:#4C7AEC;}.c{opacity:0.582;}.d{fill:#4C7AEC;}</style><radialGradient id="a" cx="0.55" cy="0.458" r="0.573" gradientUnits="objectBoundingBox"><stop offset="0" stop-color="#6b23ea"/><stop offset="0.073" stop-color="#6635e7" stop-opacity="0.925"/><stop offset="0.305" stop-color="#576ade" stop-opacity="0.694"/><stop offset="0.521" stop-color="#4c94d6" stop-opacity="0.478"/><stop offset="0.715" stop-color="#44b2d1" stop-opacity="0.286"/><stop offset="0.882" stop-color="#3fc4ce" stop-opacity="0.118"/><stop offset="1" stop-color="#3dcbcd" stop-opacity="0"/></radialGradient><linearGradient id="b" x1="0.146" y1="0.854" x2="0.854" y2="0.146" gradientUnits="objectBoundingBox"><stop offset="0" stop-color="#4c7aec"/><stop offset="1" stop-color="#4255b4"/></linearGradient></defs><circle class="a" cx="52.5" cy="52.5" r="52.5"/><circle class="b" cx="52.5" cy="52.5" r="52.5"/><g transform="translate(25.803 24.803)"><g class="c" transform="translate(8.156 7.057)"><path class="d" d="M0,0H13.974V1.876H0Z" transform="translate(1.841 4.779) rotate(-19.993)"/><path class="d" d="M0,0H1.876V21.22H0Z" transform="translate(21.187 2.987) rotate(-45)"/><path class="d" d="M0,0H1.875V11.36H0Z" transform="matrix(0.136, -0.991, 0.991, 0.136, 23.601, 18.87)"/><path class="d" d="M0,0H1.876V16.777H0Z" transform="translate(0.794 9.262) rotate(-63.435)"/><path class="d" d="M0,0H1.877V15.022H0Z" transform="matrix(0.448, -0.894, 0.894, 0.448, 1.423, 33.969)"/><path class="d" d="M31,33h1.876V48.943H31Z" transform="translate(-12.896 -11.922)"/><path class="d" d="M0,0H29.049V1.876H0Z" transform="matrix(0.544, -0.839, 0.839, 0.544, 0.035, 27.126)"/><path class="d" d="M0,0H21.413V1.876H0Z" transform="matrix(0.691, -0.723, 0.723, 0.691, 21.512, 37.753)"/><path class="d" d="M0,0H1.876V30.252H0Z" transform="matrix(0.86, -0.511, 0.511, 0.86, 0, 11.496)"/></g><path class="d" d="M16.13,43.565a6.418,6.418,0,0,1-.694,2.935,6.563,6.563,0,1,1,.694-2.935Z" transform="translate(-3 -5.114)"/><path class="d" d="M36.545,49.3a6.474,6.474,0,0,1,1.585,4.267,6.565,6.565,0,1,1-12.764-2.157A6.556,6.556,0,0,1,36.545,49.3Z" transform="translate(-4.368 -5.735)"/><path class="d" d="M53.565,25a6.565,6.565,0,0,1,0,13.13A6.592,6.592,0,0,1,47,31.565a5.5,5.5,0,0,1,.066-.882A6.55,6.55,0,0,1,53.565,25Z" transform="translate(-5.735 -4.368)"/><path class="d" d="M38.064,29.446A6.562,6.562,0,0,1,25,28.565a6.418,6.418,0,0,1,.694-2.935A6.564,6.564,0,0,1,38.13,28.565,5.5,5.5,0,0,1,38.064,29.446Z" transform="translate(-4.368 -4.181)"/><path class="d" d="M31.565,3a6.565,6.565,0,1,1,0,13.13A6.563,6.563,0,0,1,25,9.565,6.56,6.56,0,0,1,31.565,3Z" transform="translate(-4.368 -3)"/><path class="d" d="M15.736,15.323a6.547,6.547,0,0,1,.394,2.241,6.418,6.418,0,0,1-.694,2.935,6.563,6.563,0,1,1,.3-5.177Z" transform="translate(-3 -3.497)"/></g></svg>