<svg xmlns="http://www.w3.org/2000/svg" xmlns:xlink="http://www.w3.org/1999/xlink" width="105" height="105" viewBox="0 0 105 105"><defs><style>.a{fill:url(#a);}.b{fill:url(#b);}.c{fill:#fff;}.d{fill:url(#c);}.e{fill:#d3deff;}</style><radialGradient id="a" cx="0.55" cy="0.458" r="0.573" gradientUnits="objectBoundingBox"><stop offset="0" stop-color="#6b23ea"/><stop offset="0.073" stop-color="#6635e7" stop-opacity="0.925"/><stop offset="0.305" stop-color="#576ade" stop-opacity="0.694"/><stop offset="0.521" stop-color="#4c94d6" stop-opacity="0.478"/><stop offset="0.715" stop-color="#44b2d1" stop-opacity="0.286"/><stop offset="0.882" stop-color="#3fc4ce" stop-opacity="0.118"/><stop offset="1" stop-color="#3dcbcd" stop-opacity="0"/></radialGradient><linearGradient id="b" x1="0.146" y1="0.854" x2="0.854" y2="0.146" gradientUnits="objectBoundingBox"><stop offset="0" stop-color="#4c7aec"/><stop offset="1" stop-color="#4255b4"/></linearGradient><linearGradient id="c" x1="0.5" y1="0" x2="0.5" y2="1" xlink:href="#b"/></defs><circle class="a" cx="52.5" cy="52.5" r="52.5"/><circle class="b" cx="52.5" cy="52.5" r="52.5"/><g transform="translate(31.18 25.662)"><path class="c" d="M142.191,1.821A3.606,3.606,0,0,0,139.036,0h-10.4a3.606,3.606,0,0,0-3.155,1.821,3.606,3.606,0,0,0,0,3.643,1.565,1.565,0,0,0,.786.7A4.937,4.937,0,0,1,128.7,9.2a1.674,1.674,0,0,0,1.607,1.2h0l7.057-.006a1.675,1.675,0,0,0,1.605-1.2A4.936,4.936,0,0,1,141.4,6.165a1.565,1.565,0,0,0,.786-.7,3.606,3.606,0,0,0,0-3.643Z" transform="translate(-114.383 0)"/><path class="c" d="M59.332,123.343c-1.314-1.572-2.554-3.056-3.475-4.335a1.674,1.674,0,0,0-1.358-.7l-10.1,0h0a1.675,1.675,0,0,0-1.358.694c-.915,1.267-2.144,2.738-3.444,4.3-4.276,5.119-9.6,11.491-9.6,17.524,0,6.065,2.761,10.485,7.985,12.78,3.852,1.693,8.152,1.91,11.468,1.91s7.616-.217,11.468-1.91c5.224-2.3,7.985-6.715,7.985-12.78C68.906,134.8,63.6,128.447,59.332,123.343Z" transform="translate(-30 -105.1)"/><path class="d" d="M168.493,221.172c-1.6-1.246-3.684-1.44-4.148-2.278a.863.863,0,0,1,.366-1.02,1.991,1.991,0,0,1,1.97.145,1.674,1.674,0,1,0,2.271-2.462,4.618,4.618,0,0,0-1.888-1.02V214.4a1.675,1.675,0,1,0-3.349,0v.247a4.2,4.2,0,0,0-2.3,5.868c1.238,2.234,3.825,2.366,5.019,3.3a1.269,1.269,0,0,1-.347,2.238,3.569,3.569,0,0,1-2.906-.421,1.675,1.675,0,0,0-1.834,2.8,7.134,7.134,0,0,0,2.367.958v.209a1.675,1.675,0,1,0,3.349,0v-.338a4.9,4.9,0,0,0,3.247-4.014A4.488,4.488,0,0,0,168.493,221.172Z" transform="translate(-146.012 -188.979)"/><circle class="e" cx="12" cy="12" r="12" transform="translate(23.82 30.338)"/><path class="d" d="M307.468,330.464l-7.1,7.1a1.675,1.675,0,1,0,2.368,2.368l7.1-7.1a1.675,1.675,0,1,0-2.368-2.368Z" transform="translate(-269.745 -293.136)"/><path class="d" d="M302.03,332.059a1.669,1.669,0,1,0-2.36,0A1.669,1.669,0,0,0,302.03,332.059Z" transform="translate(-269.13 -292.457)"/><path class="d" d="M363.379,393.409a1.669,1.669,0,1,0,2.36,0A1.669,1.669,0,0,0,363.379,393.409Z" transform="translate(-325.727 -349.055)"/><path class="c" d="M143.616,88.045h-11.9a2.419,2.419,0,0,1,0-4.837h11.9a2.419,2.419,0,1,1,0,4.837Z" transform="translate(-118.214 -73.919)"/></g></svg>