<svg xmlns="http://www.w3.org/2000/svg" xmlns:xlink="http://www.w3.org/1999/xlink" width="105" height="105" viewBox="0 0 105 105"><defs><style>.a{fill:url(#a);}.b{fill:url(#b);}.c{fill:#fff;}.d{fill:url(#c);}</style><radialGradient id="a" cx="0.55" cy="0.458" r="0.573" gradientUnits="objectBoundingBox"><stop offset="0" stop-color="#6b23ea"/><stop offset="0.073" stop-color="#6635e7" stop-opacity="0.925"/><stop offset="0.305" stop-color="#576ade" stop-opacity="0.694"/><stop offset="0.521" stop-color="#4c94d6" stop-opacity="0.478"/><stop offset="0.715" stop-color="#44b2d1" stop-opacity="0.286"/><stop offset="0.882" stop-color="#3fc4ce" stop-opacity="0.118"/><stop offset="1" stop-color="#3dcbcd" stop-opacity="0"/></radialGradient><linearGradient id="b" x1="0.146" y1="0.854" x2="0.854" y2="0.146" gradientUnits="objectBoundingBox"><stop offset="0" stop-color="#4c7aec"/><stop offset="1" stop-color="#4255b4"/></linearGradient><linearGradient id="c" x1="0.5" y1="0" x2="0.5" y2="1" xlink:href="#b"/></defs><circle class="a" cx="52.5" cy="52.5" r="52.5"/><circle class="b" cx="52.5" cy="52.5" r="52.5"/><g transform="translate(26.557 23.557)"><g transform="translate(0 25.443)"><path class="c" d="M7.454,264.945H4.472A4.477,4.477,0,0,1,0,260.472v-2.982a1.491,1.491,0,1,1,2.982,0v2.982a1.493,1.493,0,0,0,1.491,1.491H7.454a1.491,1.491,0,0,1,0,2.982Z" transform="translate(0 -256)"/></g><g transform="translate(5.963 15.007)"><path class="c" d="M103.431,165.908h-1.948a15.1,15.1,0,0,0-5.605-8.885v-4.532A1.476,1.476,0,0,0,94.387,151a10.32,10.32,0,0,0-7.245,2.982H75.007a14.9,14.9,0,0,0-5.963,28.6v2.8a1.476,1.476,0,0,0,1.491,1.491H76.5a1.476,1.476,0,0,0,1.491-1.491V183.9h5.963v1.491a1.476,1.476,0,0,0,1.491,1.491h5.963a1.476,1.476,0,0,0,1.491-1.491v-2.8a15,15,0,0,0,5.963-4.751h4.572a1.476,1.476,0,0,0,1.491-1.491V167.4A1.476,1.476,0,0,0,103.431,165.908Z" transform="translate(-60 -151)"/></g><g transform="translate(17.989)"><path class="c" d="M188.454,0A7.542,7.542,0,0,0,181,7.553a7.454,7.454,0,0,0,14.908,0A7.542,7.542,0,0,0,188.454,0Z" transform="translate(-181)"/></g><g transform="translate(35.878 26.933)"><path class="d" d="M362.491,276.963A1.49,1.49,0,0,1,361,275.472v-2.982a1.491,1.491,0,0,1,2.982,0v2.982A1.49,1.49,0,0,1,362.491,276.963Z" transform="translate(-361 -271)"/></g><g transform="translate(17.989 23.952)"><path class="d" d="M195.908,242.491a1.476,1.476,0,0,1-1.491,1.491H182.491a1.491,1.491,0,1,1,0-2.982h11.926A1.476,1.476,0,0,1,195.908,242.491Z" transform="translate(-181 -241)"/></g><path class="d" d="M263.454,242.491a1.476,1.476,0,0,1-1.491,1.491H256V241h5.963A1.476,1.476,0,0,1,263.454,242.491Z" transform="translate(-230.557 -217.048)"/></g></svg>