<svg xmlns="http://www.w3.org/2000/svg" xmlns:xlink="http://www.w3.org/1999/xlink" width="105" height="105" viewBox="0 0 105 105"><defs><style>.a{fill:url(#a);}.b{fill:#fff;}.c{fill:#4C7AEC;}</style><radialGradient id="a" cx="0.55" cy="0.458" r="0.573" gradientUnits="objectBoundingBox"><stop offset="0" stop-color="#6b23ea"/><stop offset="0.073" stop-color="#6635e7" stop-opacity="0.925"/><stop offset="0.305" stop-color="#576ade" stop-opacity="0.694"/><stop offset="0.521" stop-color="#4c94d6" stop-opacity="0.478"/><stop offset="0.715" stop-color="#44b2d1" stop-opacity="0.286"/><stop offset="0.882" stop-color="#3fc4ce" stop-opacity="0.118"/><stop offset="1" stop-color="#3dcbcd" stop-opacity="0"/></radialGradient><linearGradient id="b" x1="0.146" y1="0.854" x2="0.854" y2="0.146" gradientUnits="objectBoundingBox"><stop offset="0" stop-color="#4c7aec"/><stop offset="1" stop-color="#4255b4"/></linearGradient></defs><circle class="a" cx="52.5" cy="52.5" r="52.5"/><circle class="b" cx="52.5" cy="52.5" r="52.5"/><g transform="translate(22.291 25.291)"><path class="c" d="M103.023,78.394q0,.8-.05,1.582a24.633,24.633,0,0,1-23,23q-.786.049-1.582.05a24.637,24.637,0,0,1-23.5-17.242A1.581,1.581,0,0,1,56.4,83.726h9.353a1.584,1.584,0,0,1,1.388.821,12.826,12.826,0,0,0,11.252,6.67,12.638,12.638,0,0,0,1.582-.1A12.847,12.847,0,0,0,91.119,79.976a12.638,12.638,0,0,0,.1-1.582,12.828,12.828,0,0,0-6.67-11.252,1.584,1.584,0,0,1-.821-1.388V56.4a1.581,1.581,0,0,1,2.055-1.509A24.637,24.637,0,0,1,103.023,78.394Z" transform="translate(-49.041 -49.041)"/><path class="c" d="M348.227,79.976q.049-.786.05-1.582a24.637,24.637,0,0,0-17.242-23.5A1.581,1.581,0,0,0,328.98,56.4v9.353a1.584,1.584,0,0,0,.821,1.388,12.828,12.828,0,0,1,6.67,11.252,12.638,12.638,0,0,1-.1,1.582,12.792,12.792,0,0,1-3.662,7.481l8.353,8.353A24.444,24.444,0,0,0,348.227,79.976Z" transform="translate(-294.294 -49.041)"/><path class="c" d="M29.354,0A29.354,29.354,0,0,0,0,29.354a1.582,1.582,0,0,0,1.582,1.582H29.354a1.582,1.582,0,0,0,1.582-1.582V1.582A1.582,1.582,0,0,0,29.354,0Z" transform="translate(0)"/><path class="c" d="M79.976,336.373v11.854q-.786.049-1.582.05a24.637,24.637,0,0,1-23.5-17.242A1.581,1.581,0,0,1,56.4,328.98h9.353a1.584,1.584,0,0,1,1.388.821,12.827,12.827,0,0,0,11.252,6.67A12.638,12.638,0,0,0,79.976,336.373Z" transform="translate(-49.041 -294.294)"/><path class="c" d="M103.882,1.582A1.582,1.582,0,0,0,102.3,0,29.161,29.161,0,0,0,81.544,8.6l21.874,21.874a1.577,1.577,0,0,0,.463-1.118Z" transform="translate(-72.946)"/><path class="c" d="M329.8,67.143a12.828,12.828,0,0,1,6.67,11.252,12.638,12.638,0,0,1-.1,1.582h11.854q.049-.786.05-1.582a24.637,24.637,0,0,0-17.242-23.5A1.581,1.581,0,0,0,328.98,56.4v9.353A1.584,1.584,0,0,0,329.8,67.143Z" transform="translate(-294.294 -49.041)"/></g></svg>