<svg xmlns="http://www.w3.org/2000/svg" xmlns:xlink="http://www.w3.org/1999/xlink" width="105" height="105" viewBox="0 0 105 105"><defs><style>.a{fill:url(#a);}.b{fill:url(#b);}.c{fill:#fff;}</style><radialGradient id="a" cx="0.55" cy="0.458" r="0.573" gradientUnits="objectBoundingBox"><stop offset="0" stop-color="#6b23ea"/><stop offset="0.073" stop-color="#6635e7" stop-opacity="0.925"/><stop offset="0.305" stop-color="#576ade" stop-opacity="0.694"/><stop offset="0.521" stop-color="#4c94d6" stop-opacity="0.478"/><stop offset="0.715" stop-color="#44b2d1" stop-opacity="0.286"/><stop offset="0.882" stop-color="#3fc4ce" stop-opacity="0.118"/><stop offset="1" stop-color="#3dcbcd" stop-opacity="0"/></radialGradient><linearGradient id="b" x1="0.5" x2="0.5" y2="1" gradientUnits="objectBoundingBox"><stop offset="0" stop-color="#4c7aec"/><stop offset="1" stop-color="#4255b4"/></linearGradient></defs><circle class="a" cx="52.5" cy="52.5" r="52.5"/><circle class="b" cx="52.5" cy="52.5" r="52.5"/><g transform="translate(25.555 27.074)"><path class="c" d="M228.4,308.241q.018,6.727.066,13.454a1.209,1.209,0,0,0,1.187,1.208q3.063.016,6.126,0a1.209,1.209,0,0,0,1.187-1.208q.017-2.4.031-4.805Q232.736,312.587,228.4,308.241Z" transform="translate(-206.267 -275.146)"/><path class="c" d="M235.777,232.94q-3.124,0-6.248,0a1.2,1.2,0,0,0-1.2,1.2q0,5.285.01,10.571a8.637,8.637,0,0,0,8.6,8.649q.054-9.61.046-19.22A1.2,1.2,0,0,0,235.777,232.94Z" transform="translate(-206.208 -211.618)"/><path class="c" d="M368.986,170.85q.123,6.657.123,13.314a1.192,1.192,0,0,0,1.2,1.187l6.25-.012a1.192,1.192,0,0,0,1.2-1.175q0-2.345-.023-4.691-4.366-4.26-8.755-8.623Z" transform="translate(-324.874 -159.238)"/><path class="c" d="M374.485,96.833q-3.049-.139-6.1-.243a1.089,1.089,0,0,0-1.132,1.15q.173,5.231.27,10.461a8.814,8.814,0,0,0,8.755,8.623q-.094-9.382-.562-18.764A1.321,1.321,0,0,0,374.485,96.833Z" transform="translate(-323.413 -96.589)"/><path class="c" d="M87.6,322q.144,6.567.472,13.135a1.321,1.321,0,0,0,1.233,1.227q3.049.139,6.1.243a1.09,1.09,0,0,0,1.132-1.15q-.079-2.378-.142-4.755Q92.013,326.318,87.6,322Z" transform="translate(-87.486 -286.754)"/><path class="c" d="M94.329,248.409l-6.25.012a1.192,1.192,0,0,0-1.2,1.175q0,5.16.113,10.32a9.12,9.12,0,0,0,8.793,8.7q-.252-9.51-.252-19.02A1.192,1.192,0,0,0,94.329,248.409Z" transform="translate(-86.875 -224.67)"/><path class="c" d="M157.6,262.1q.008,6.676.122,13.352a1.242,1.242,0,0,0,1.212,1.212q3.1.048,6.192.075a1.173,1.173,0,0,0,1.181-1.191q-.018-2.4-.03-4.8-4.333-4.34-8.678-8.647Z" transform="translate(-146.544 -236.219)"/><path class="c" d="M165.088,186.964q-3.111.019-6.223.052a1.229,1.229,0,0,0-1.211,1.206q-.06,5.245-.054,10.491a8.734,8.734,0,0,0,8.678,8.647q-.048-9.6,0-19.2A1.183,1.183,0,0,0,165.088,186.964Z" transform="translate(-146.541 -172.832)"/><path class="c" d="M298.918,231.439q.013,6.721-.02,13.442a1.183,1.183,0,0,0,1.19,1.194q3.111-.019,6.223-.052a1.229,1.229,0,0,0,1.211-1.206q.027-2.384.041-4.768Q303.264,235.778,298.918,231.439Z" transform="translate(-265.745 -210.353)"/><path class="c" d="M306.081,156.357q-3.1-.048-6.192-.075a1.173,1.173,0,0,0-1.181,1.191q.039,5.281.05,10.561a8.6,8.6,0,0,0,8.645,8.609q.054-9.537-.109-19.074A1.242,1.242,0,0,0,306.081,156.357Z" transform="translate(-265.585 -146.948)"/></g></svg>