<svg xmlns="http://www.w3.org/2000/svg" xmlns:xlink="http://www.w3.org/1999/xlink" width="105" height="105" viewBox="0 0 105 105"><defs><style>.a{fill:url(#a);}.b{fill:url(#b);}.c{fill:#fff;}.d{fill:url(#c);}</style><radialGradient id="a" cx="0.55" cy="0.458" r="0.573" gradientUnits="objectBoundingBox"><stop offset="0" stop-color="#6b23ea"/><stop offset="0.073" stop-color="#6635e7" stop-opacity="0.925"/><stop offset="0.305" stop-color="#576ade" stop-opacity="0.694"/><stop offset="0.521" stop-color="#4c94d6" stop-opacity="0.478"/><stop offset="0.715" stop-color="#44b2d1" stop-opacity="0.286"/><stop offset="0.882" stop-color="#3fc4ce" stop-opacity="0.118"/><stop offset="1" stop-color="#3dcbcd" stop-opacity="0"/></radialGradient><linearGradient id="b" x1="0.146" y1="0.854" x2="0.854" y2="0.146" gradientUnits="objectBoundingBox"><stop offset="0" stop-color="#4c7aec"/><stop offset="1" stop-color="#4255b4"/></linearGradient><linearGradient id="c" x1="0.5" y1="0" x2="0.5" y2="1" xlink:href="#b"/></defs><circle class="a" cx="52.5" cy="52.5" r="52.5"/><path class="b" d="M52.5,0A52.5,52.5,0,1,1,0,52.5,52.5,52.5,0,0,1,52.5,0Z"/><g transform="translate(30.831 24.343)"><g transform="translate(20.519 32.696)"><path class="c" d="M242.63,317.524A1.635,1.635,0,0,1,241,315.889V301.635a1.635,1.635,0,1,1,3.27,0v14.254A1.635,1.635,0,0,1,242.63,317.524Z" transform="translate(-240.995 -300)"/></g><g transform="translate(0)"><path class="c" d="M74.875,35.965A17.983,17.983,0,1,0,56.893,17.983,18,18,0,0,0,74.875,35.965Zm21.76-1.282a1.633,1.633,0,0,0-1.459-.556C94.67,34.2,82.715,35.85,77,40.751a11.493,11.493,0,0,0-2.121,2.372,11.49,11.49,0,0,0-2.121-2.372c-5.719-4.9-17.674-6.556-18.18-6.624a1.635,1.635,0,0,0-1.786,2.083c.145.49,3.608,12.052,9.327,16.953a9.987,9.987,0,0,0,8.825,2.421,10.989,10.989,0,0,0,3.935-1.656,10.989,10.989,0,0,0,3.935,1.656,9.987,9.987,0,0,0,8.825-2.421c5.719-4.9,9.182-16.463,9.327-16.953a1.634,1.634,0,0,0-.326-1.527Z" transform="translate(-52.721)"/></g></g><path class="d" d="M2.706-24.919l-.564,1.691H8.6a2.588,2.588,0,0,1-1.05,1.537,6.265,6.265,0,0,1-3.612.845H2.347v2a2.847,2.847,0,0,1,1.64.538,5.124,5.124,0,0,1,1.306,1.281l4.585,6.046h4.073L8.418-17.951a9.781,9.781,0,0,0-1.153-1.332,6.494,6.494,0,0,0,3.253-1.691,4.454,4.454,0,0,0,1.1-2.254h2.664l.564-1.691H11.672a5.213,5.213,0,0,0-.973-2.664h3.561l.564-1.691H2.655l-.564,1.691H4.832a4.307,4.307,0,0,1,2.869.82,2.922,2.922,0,0,1,.948,1.844Z" transform="translate(43.83 63.492)"/></svg>