<svg xmlns="http://www.w3.org/2000/svg" xmlns:xlink="http://www.w3.org/1999/xlink" width="105" height="105" viewBox="0 0 105 105"><defs><style>.a{fill:#fff;}.b{fill:url(#a);}</style><linearGradient id="a" x1="0.5" x2="0.5" y2="1" gradientUnits="objectBoundingBox"><stop offset="0" stop-color="#4c7aec"/><stop offset="1" stop-color="#4255b4"/></linearGradient></defs><path class="a" d="M52.5,0A52.5,52.5,0,1,1,0,52.5,52.5,52.5,0,0,1,52.5,0Z"/><g transform="translate(26.34 33.571)"><g transform="translate(0)"><path class="b" d="M139.214,69.066a2.935,2.935,0,0,0,2.857.129L159.7,60.383a2.938,2.938,0,0,0,0-5.255l-17.624-8.812a2.938,2.938,0,0,0-4.251,2.628V66.568A2.938,2.938,0,0,0,139.214,69.066Zm30.917,9.251H131.75V75.38a2.937,2.937,0,1,0-5.875,0v2.937h-2.937a2.937,2.937,0,0,0,0,5.875h47.194a2.937,2.937,0,0,0,0-5.875Z" transform="translate(-120 -46.007)"/></g></g></svg>