<svg xmlns="http://www.w3.org/2000/svg" xmlns:xlink="http://www.w3.org/1999/xlink" width="105" height="105" viewBox="0 0 105 105"><defs><style>.a{fill:url(#a);}.b{fill:url(#b);}.c{fill:#fff;}.d{fill:url(#c);}</style><radialGradient id="a" cx="0.55" cy="0.458" r="0.573" gradientUnits="objectBoundingBox"><stop offset="0" stop-color="#6b23ea"/><stop offset="0.073" stop-color="#6635e7" stop-opacity="0.925"/><stop offset="0.305" stop-color="#576ade" stop-opacity="0.694"/><stop offset="0.521" stop-color="#4c94d6" stop-opacity="0.478"/><stop offset="0.715" stop-color="#44b2d1" stop-opacity="0.286"/><stop offset="0.882" stop-color="#3fc4ce" stop-opacity="0.118"/><stop offset="1" stop-color="#3dcbcd" stop-opacity="0"/></radialGradient><linearGradient id="b" x1="0.146" y1="0.854" x2="0.854" y2="0.146" gradientUnits="objectBoundingBox"><stop offset="0" stop-color="#4c7aec"/><stop offset="1" stop-color="#4255b4"/></linearGradient><linearGradient id="c" x1="0.5" y1="1" x2="0.5" y2="0" xlink:href="#b"/></defs><circle class="a" cx="52.5" cy="52.5" r="52.5"/><path class="b" d="M52.5,0A52.5,52.5,0,1,1,0,52.5,52.5,52.5,0,0,1,52.5,0Z"/><g transform="translate(31.05 24.184)"><g transform="translate(0 0)"><path class="c" d="M103.211,9.188C93.865,9.188,84.18.525,84.084.438a1.689,1.689,0,0,0-2.269,0c-.1.087-9.756,8.75-19.127,8.75A1.688,1.688,0,0,0,61,10.876V31.1c0,16.38,12.183,22.926,21.347,26.424a1.689,1.689,0,0,0,1.2,0C96.4,52.616,104.9,44.964,104.9,31.1V10.876A1.688,1.688,0,0,0,103.211,9.188Z" transform="translate(-61 0)"/></g><g transform="translate(10.131 16.997)"><g transform="translate(0)"><path class="d" d="M162.819,151a11.819,11.819,0,1,0,11.819,11.819A11.832,11.832,0,0,0,162.819,151Zm4.571,11.324-5.065,5.065a1.688,1.688,0,0,1-2.388,0l-1.688-1.688a1.688,1.688,0,0,1,2.388-2.388l.495.494L165,159.937a1.688,1.688,0,1,1,2.388,2.388Z" transform="translate(-151 -151)"/></g></g></g></svg>