<svg xmlns="http://www.w3.org/2000/svg" width="80.358" height="54.868" viewBox="0 0 80.358 54.868"><defs><style>.a{fill:#fff;}.b{fill:#bfa161;}.b,.c{fill-rule:evenodd;}.c,.d{fill:#1f1917;}.e,.f{stroke:none;}.f{fill:#eaeaea;}</style></defs><g transform="translate(0 0)"><g class="a" transform="translate(0 0)"><path class="e" d="M 73.21525573730469 54.36768341064453 L 7.142948150634766 54.36768341064453 C 3.48001503944397 54.36768341064453 0.5000038743019104 50.65381622314453 0.5000038743019104 46.08884811401367 L 0.5000038743019104 8.778826713562012 C 0.5000038743019104 4.213871002197266 3.48001503944397 0.5000045299530029 7.142948150634766 0.5000045299530029 L 73.21525573730469 0.5000045299530029 C 76.87818908691406 0.5000045299530029 79.85820007324219 4.213871002197266 79.85820007324219 8.778826713562012 L 79.85820007324219 46.08884811401367 C 79.85820007324219 50.65381622314453 76.87818908691406 54.36768341064453 73.21525573730469 54.36768341064453 Z"/><path class="f" d="M 7.142951965332031 0.9999923706054688 C 3.755714416503906 0.9999923706054688 1.000007629394531 4.489559173583984 1.000007629394531 8.778827667236328 L 1.000007629394531 46.08884811401367 C 1.000007629394531 50.37810516357422 3.755714416503906 53.86767196655273 7.142951965332031 53.86767196655273 L 73.21525573730469 53.86767196655273 C 76.60249328613281 53.86767196655273 79.35820007324219 50.37810516357422 79.35820007324219 46.08884811401367 L 79.35820007324219 8.778827667236328 C 79.35820007324219 4.489559173583984 76.60249328613281 0.9999923706054688 73.21525573730469 0.9999923706054688 L 7.142951965332031 0.9999923706054688 M 7.142951965332031 -7.62939453125e-06 L 73.21525573730469 -7.62939453125e-06 C 77.16020202636719 -7.62939453125e-06 80.35820007324219 3.930416107177734 80.35820007324219 8.778827667236328 L 80.35820007324219 46.08884811401367 C 80.35820007324219 50.93727111816406 77.16020202636719 54.86767196655273 73.21525573730469 54.86767196655273 L 7.142951965332031 54.86767196655273 C 3.198005676269531 54.86767196655273 7.62939453125e-06 50.93727111816406 7.62939453125e-06 46.08884811401367 L 7.62939453125e-06 8.778827667236328 C 7.62939453125e-06 3.930416107177734 3.198005676269531 -7.62939453125e-06 7.142951965332031 -7.62939453125e-06 Z"/></g></g><g transform="translate(19 13)"><g transform="translate(0 0)"><path class="b" d="M364.159-1163.948a1.678,1.678,0,0,1-1.626.173.773.773,0,0,1-.262-.19c-.109-.129-2.854-3.087-2.854-3.087l-.009-.009a2.323,2.323,0,0,0,2.258-.948,2.073,2.073,0,0,0,.009-2.3,2.7,2.7,0,0,0-2.484-.862,3.751,3.751,0,0,0-2.98,2.871,7.275,7.275,0,0,0,.452,4.4,3.745,3.745,0,0,0,.506.854,7.129,7.129,0,0,1-3.793-3.578,6.7,6.7,0,0,1,.172-5.88,7.027,7.027,0,0,1,3.847-3.259,7.473,7.473,0,0,1,5.906.379,6.832,6.832,0,0,1,3.7,5.716,6.732,6.732,0,0,1-2.845,5.724" transform="translate(-340.776 1176.205)"/><path class="b" d="M385.309-1116.529a2.726,2.726,0,0,1-.939-2.957,9.835,9.835,0,0,0,.984-2.656,13.188,13.188,0,0,0,1.02,2.871,2.292,2.292,0,0,1-.063,1.431,4.173,4.173,0,0,1-.939,1.379Z" transform="translate(-367.832 1129.657)"/><path class="c" d="M274-1064.861h-2.091q-.7-1.041-1.258-1.8t-1.217-1.563h-.794v2.354a.816.816,0,0,0,.06.321.415.415,0,0,0,.258.21,1.617,1.617,0,0,0,.344.068c.164.021.3.034.417.037v.371H266.43v-.371c.088-.007.215-.019.381-.037a1.278,1.278,0,0,0,.348-.068.462.462,0,0,0,.237-.2.663.663,0,0,0,.075-.334v-5.364a.868.868,0,0,0-.056-.325.388.388,0,0,0-.256-.214,2.3,2.3,0,0,0-.357-.086,3.522,3.522,0,0,0-.372-.05v-.371h3.587a4.244,4.244,0,0,1,.925.1,2.578,2.578,0,0,1,.783.31,1.605,1.605,0,0,1,.542.546,1.557,1.557,0,0,1,.2.814,1.954,1.954,0,0,1-.138.758,1.574,1.574,0,0,1-.4.569,2.4,2.4,0,0,1-.593.389,4.538,4.538,0,0,1-.761.28q.574.728.955,1.224c.254.33.564.733.934,1.206a2.467,2.467,0,0,0,.436.464,2.349,2.349,0,0,0,.385.243,1.406,1.406,0,0,0,.357.105,2.982,2.982,0,0,0,.355.041v.371Zm-2.88-5.531a1.422,1.422,0,0,0-.405-1.069,1.574,1.574,0,0,0-1.144-.394h-.931v3.183h.718a1.782,1.782,0,0,0,1.258-.462A1.621,1.621,0,0,0,271.118-1070.392Zm7.835,4.318a2.681,2.681,0,0,1-.908.983,2.366,2.366,0,0,1-1.309.366,2.77,2.77,0,0,1-1.142-.22,2.208,2.208,0,0,1-.807-.6,2.511,2.511,0,0,1-.475-.878,3.592,3.592,0,0,1-.155-1.062,3.033,3.033,0,0,1,.166-.985,2.737,2.737,0,0,1,.492-.87,2.352,2.352,0,0,1,.774-.6,2.319,2.319,0,0,1,1.038-.228,2.576,2.576,0,0,1,1.013.178,1.775,1.775,0,0,1,.684.485,1.94,1.94,0,0,1,.375.691,2.9,2.9,0,0,1,.123.862v.346h-3.575a3.876,3.876,0,0,0,.1.919,2.128,2.128,0,0,0,.322.728,1.51,1.51,0,0,0,.557.478,1.809,1.809,0,0,0,.822.175,1.579,1.579,0,0,0,.841-.218,2.183,2.183,0,0,0,.681-.782Zm-1.209-1.965a3.986,3.986,0,0,0-.052-.628,1.893,1.893,0,0,0-.166-.558,1.092,1.092,0,0,0-.346-.393.966.966,0,0,0-.564-.151,1.191,1.191,0,0,0-.955.457,2.073,2.073,0,0,0-.413,1.274Zm4.262,3.178h-2.543v-.332l.26-.024a1.14,1.14,0,0,0,.227-.038.383.383,0,0,0,.222-.158.524.524,0,0,0,.074-.295l-.083-5.5a2,2,0,0,0-.064-.366.35.35,0,0,0-.048-.119.424.424,0,0,0-.046-.057c-.091-.078.022.03-.063-.042-.056-.048.023-.018-.146-.052a3.345,3.345,0,0,0-.551.034l-.009-.363,1.9-.1.09.074.007,6.433a.551.551,0,0,0,.069.29.428.428,0,0,0,.222.174,1.2,1.2,0,0,0,.229.076,1.7,1.7,0,0,0,.257.036Zm3.267,0h-2.589v-.342l.257-.021a.96.96,0,0,0,.23-.043.379.379,0,0,0,.226-.162.569.569,0,0,0,.074-.3v-3.156a.609.609,0,0,0-.08-.3.665.665,0,0,0-.221-.23.949.949,0,0,0-.3-.106,2.19,2.19,0,0,0-.358-.055v-.336l1.89-.115.076.073v4.168a.573.573,0,0,0,.072.3.433.433,0,0,0,.232.175,1.9,1.9,0,0,0,.234.076,1.59,1.59,0,0,0,.254.039Zm-.684-7.188a.729.729,0,0,1-.2.515.656.656,0,0,1-.5.221.648.648,0,0,1-.48-.211.673.673,0,0,1-.2-.479.7.7,0,0,1,.2-.5.645.645,0,0,1,.48-.212.682.682,0,0,1,.508.2A.645.645,0,0,1,284.589-1072.049Zm6.459,7.094c-.172.059-.321.107-.45.144a1.658,1.658,0,0,1-.441.056,1.116,1.116,0,0,1-.682-.191.874.874,0,0,1-.325-.557h-.034a2.664,2.664,0,0,1-.765.575,2.228,2.228,0,0,1-.981.2,1.432,1.432,0,0,1-1-.355,1.2,1.2,0,0,1-.393-.93,1.535,1.535,0,0,1,.088-.534,1.292,1.292,0,0,1,.264-.424,1.326,1.326,0,0,1,.361-.279,3.219,3.219,0,0,1,.422-.2c.164-.059.5-.169,1-.33a7.634,7.634,0,0,0,1.017-.376v-.517a1.962,1.962,0,0,0-.03-.26,1.074,1.074,0,0,0-.129-.366,1.025,1.025,0,0,0-.31-.337.951.951,0,0,0-.566-.144,1.29,1.29,0,0,0-.467.082.854.854,0,0,0-.3.17,1.33,1.33,0,0,0,.053.308,1.509,1.509,0,0,1,.052.377.444.444,0,0,1-.172.333.7.7,0,0,1-.48.152.457.457,0,0,1-.4-.186.709.709,0,0,1-.129-.416.725.725,0,0,1,.178-.46,1.744,1.744,0,0,1,.464-.391,2.624,2.624,0,0,1,.6-.25,2.459,2.459,0,0,1,.684-.1,4.793,4.793,0,0,1,.8.06,1.5,1.5,0,0,1,.62.259,1.208,1.208,0,0,1,.424.524,2.148,2.148,0,0,1,.146.855c0,.5-.006.94-.017,1.326s-.017.807-.017,1.263a.6.6,0,0,0,.075.323.6.6,0,0,0,.226.205.6.6,0,0,0,.26.052q.179.005.364.005v.334Zm-1.91-2.76c-.31.087-.583.173-.817.257a3.276,3.276,0,0,0-.65.314,1.445,1.445,0,0,0-.434.421,1.034,1.034,0,0,0-.159.576.8.8,0,0,0,.239.639.9.9,0,0,0,.6.2,1.3,1.3,0,0,0,.686-.18,1.935,1.935,0,0,0,.5-.426Zm8.409,2.855H294.9v-.344l.276-.021a1.091,1.091,0,0,0,.251-.043.386.386,0,0,0,.226-.164.558.558,0,0,0,.075-.305v-2.652a1.216,1.216,0,0,0-.271-.846.863.863,0,0,0-.66-.3,1.588,1.588,0,0,0-.533.085,1.9,1.9,0,0,0-.426.212,1.192,1.192,0,0,0-.288.259,2.289,2.289,0,0,0-.155.221v2.965a.508.508,0,0,0,.077.293.479.479,0,0,0,.23.177,1.079,1.079,0,0,0,.249.078,2.311,2.311,0,0,0,.277.037v.344h-2.645v-.344l.26-.021a1.04,1.04,0,0,0,.234-.043.385.385,0,0,0,.226-.164.554.554,0,0,0,.075-.305v-3.183a.664.664,0,0,0-.081-.326.661.661,0,0,0-.221-.244.8.8,0,0,0-.247-.091,2.282,2.282,0,0,0-.307-.039v-.339l1.8-.116.077.073v.726h.026c.088-.082.2-.184.329-.3a2.92,2.92,0,0,1,.372-.285,2.023,2.023,0,0,1,.482-.209,2.221,2.221,0,0,1,.63-.084,1.4,1.4,0,0,1,1.153.462,1.894,1.894,0,0,1,.374,1.231v2.682a.569.569,0,0,0,.068.3.419.419,0,0,0,.224.175,1.428,1.428,0,0,0,.226.073,1.788,1.788,0,0,0,.265.032v.344Zm3.161.136a2.338,2.338,0,0,1-1.835-.742,2.879,2.879,0,0,1-.662-1.991,2.891,2.891,0,0,1,.177-1.017,2.809,2.809,0,0,1,.518-.86,2.408,2.408,0,0,1,.811-.6,2.472,2.472,0,0,1,1.062-.228,2.134,2.134,0,0,1,1.292.364,1.161,1.161,0,0,1,.5.99.823.823,0,0,1-.131.462.477.477,0,0,1-.434.2.732.732,0,0,1-.5-.158.46.46,0,0,1-.178-.35,1.929,1.929,0,0,1,.065-.484,2.393,2.393,0,0,0,.076-.364.476.476,0,0,0-.293-.216,1.5,1.5,0,0,0-.419-.055,1.216,1.216,0,0,0-.5.107,1.278,1.278,0,0,0-.462.394,2.069,2.069,0,0,0-.329.707,3.928,3.928,0,0,0-.127,1.06,2.615,2.615,0,0,0,.453,1.588,1.406,1.406,0,0,0,1.185.614,1.541,1.541,0,0,0,.892-.247,2.446,2.446,0,0,0,.664-.737l.351.22a2.754,2.754,0,0,1-.953.978A2.313,2.313,0,0,1,300.707-1064.725Zm7.392-1.349a2.677,2.677,0,0,1-.908.983,2.366,2.366,0,0,1-1.308.366,2.771,2.771,0,0,1-1.142-.22,2.213,2.213,0,0,1-.808-.6,2.521,2.521,0,0,1-.474-.878,3.6,3.6,0,0,1-.155-1.062,3.024,3.024,0,0,1,.167-.985,2.741,2.741,0,0,1,.491-.87,2.357,2.357,0,0,1,.774-.6,2.318,2.318,0,0,1,1.037-.228,2.574,2.574,0,0,1,1.013.178,1.769,1.769,0,0,1,.684.485,1.93,1.93,0,0,1,.376.691,2.9,2.9,0,0,1,.124.862v.346h-3.576a3.866,3.866,0,0,0,.1.919,2.124,2.124,0,0,0,.322.728,1.511,1.511,0,0,0,.557.478,1.809,1.809,0,0,0,.822.175,1.58,1.58,0,0,0,.841-.218,2.187,2.187,0,0,0,.68-.782Zm-1.209-1.965a3.989,3.989,0,0,0-.052-.628,1.89,1.89,0,0,0-.166-.558,1.1,1.1,0,0,0-.346-.393.969.969,0,0,0-.565-.151,1.191,1.191,0,0,0-.955.457,2.072,2.072,0,0,0-.413,1.274Z" transform="translate(-266.43 1087.099)"/><path class="d" d="M267.966-988.147h-1.521v-.153l.186-.013a.71.71,0,0,0,.171-.026.238.238,0,0,0,.115-.076.227.227,0,0,0,.035-.135v-2.215a.265.265,0,0,0-.026-.126.21.21,0,0,0-.123-.085,1.424,1.424,0,0,0-.179-.049,1.4,1.4,0,0,0-.178-.027v-.153h1.521v.153a1.629,1.629,0,0,0-.177.016,1.269,1.269,0,0,0-.179.035.186.186,0,0,0-.121.084.266.266,0,0,0-.031.129v2.213a.233.233,0,0,0,.034.126.231.231,0,0,0,.118.087,1.119,1.119,0,0,0,.163.038,1.3,1.3,0,0,0,.192.023Z" transform="translate(-266.443 1016.921)"/><path class="d" d="M283.263-982.731h-1.149v-.142l.12-.009a.487.487,0,0,0,.109-.018.167.167,0,0,0,.1-.067.22.22,0,0,0,.033-.126v-1.093a.485.485,0,0,0-.118-.348.385.385,0,0,0-.287-.123.72.72,0,0,0-.232.035.838.838,0,0,0-.185.088.5.5,0,0,0-.125.107.886.886,0,0,0-.067.091v1.222a.2.2,0,0,0,.033.121.2.2,0,0,0,.1.073.491.491,0,0,0,.108.032,1.03,1.03,0,0,0,.12.015v.142h-1.149v-.142l.113-.009a.468.468,0,0,0,.1-.018.166.166,0,0,0,.1-.067.218.218,0,0,0,.033-.126v-1.312a.263.263,0,0,0-.035-.135.276.276,0,0,0-.1-.1.344.344,0,0,0-.107-.038,1,1,0,0,0-.133-.016v-.14l.78-.048.033.03v.3h.011c.038-.034.086-.076.143-.123a1.263,1.263,0,0,1,.161-.118.909.909,0,0,1,.21-.086,1.024,1.024,0,0,1,.274-.034.626.626,0,0,1,.5.19.753.753,0,0,1,.163.507v1.105a.226.226,0,0,0,.029.122.18.18,0,0,0,.1.072.637.637,0,0,0,.1.03.758.758,0,0,0,.115.013Z" transform="translate(-278.67 1011.505)"/><path class="d" d="M304.957-989.906l-.818.048-.036-.03v-.2l-.019,0a.971.971,0,0,1-.306.2.921.921,0,0,1-.374.08.966.966,0,0,1-.387-.081.968.968,0,0,1-.325-.227,1.1,1.1,0,0,1-.222-.357,1.256,1.256,0,0,1-.082-.461,1.112,1.112,0,0,1,.088-.437,1.158,1.158,0,0,1,.243-.362,1.076,1.076,0,0,1,.356-.231,1.125,1.125,0,0,1,.43-.086,1.394,1.394,0,0,1,.322.038,1.232,1.232,0,0,1,.272.1v-.739a.391.391,0,0,0-.033-.165.25.25,0,0,0-.093-.113.5.5,0,0,0-.18-.059c-.075-.012-.157-.02-.244-.027v-.134l.958-.049.036.032v2.865a.238.238,0,0,0,.033.129.261.261,0,0,0,.094.089.3.3,0,0,0,.131.032c.057,0,.109.008.157.009v.14Zm-.859-.373v-1.242a.508.508,0,0,0-.062-.121.542.542,0,0,0-.107-.119.608.608,0,0,0-.162-.09.61.61,0,0,0-.216-.035.526.526,0,0,0-.263.067.662.662,0,0,0-.213.192.919.919,0,0,0-.14.307,1.561,1.561,0,0,0-.051.413,1.334,1.334,0,0,0,.038.329.815.815,0,0,0,.128.274.628.628,0,0,0,.214.194.617.617,0,0,0,.308.074.6.6,0,0,0,.315-.076.952.952,0,0,0,.21-.166" transform="translate(-297.389 1018.641)"/><path class="d" d="M325.33-982.57l-.764.047-.036-.03v-.27h-.014c-.038.036-.081.075-.129.116a.89.89,0,0,1-.164.111,1.084,1.084,0,0,1-.207.088,1.02,1.02,0,0,1-.283.03.6.6,0,0,1-.475-.183.788.788,0,0,1-.163-.536v-1.017a.247.247,0,0,0-.032-.13.28.28,0,0,0-.094-.092.335.335,0,0,0-.106-.037,1.122,1.122,0,0,0-.136-.016v-.14l.782-.051.036.03v1.476a.477.477,0,0,0,.114.347.372.372,0,0,0,.274.116.686.686,0,0,0,.233-.037.673.673,0,0,0,.171-.086.81.81,0,0,0,.113-.1.526.526,0,0,0,.075-.094v-1.2a.231.231,0,0,0-.033-.126.281.281,0,0,0-.092-.093.279.279,0,0,0-.128-.032l-.189-.01v-.14l.852-.051.036.03v1.687a.229.229,0,0,0,.033.125.289.289,0,0,0,.093.088.278.278,0,0,0,.1.032c.04,0,.084.008.132.009v.14Z" transform="translate(-314.901 1011.305)"/><path class="d" d="M345.927-983.8a.55.55,0,0,1,.15.179.536.536,0,0,1,.052.248.582.582,0,0,1-.243.482,1.007,1.007,0,0,1-.632.187,1.02,1.02,0,0,1-.377-.067,1.068,1.068,0,0,1-.247-.123l-.047.14H344.4l-.024-.739h.164a.771.771,0,0,0,.081.2.923.923,0,0,0,.149.2.835.835,0,0,0,.223.159.65.65,0,0,0,.292.065.574.574,0,0,0,.352-.094.317.317,0,0,0,.123-.269.3.3,0,0,0-.039-.156.369.369,0,0,0-.116-.116.969.969,0,0,0-.193-.089c-.076-.026-.161-.053-.254-.078-.075-.021-.158-.048-.249-.083a.992.992,0,0,1-.234-.124.624.624,0,0,1-.171-.184.489.489,0,0,1-.066-.259.559.559,0,0,1,.214-.442.859.859,0,0,1,.573-.181,1.3,1.3,0,0,1,.282.032,1.091,1.091,0,0,1,.235.078l.054-.113h.172l.036.683h-.164a.664.664,0,0,0-.216-.371.591.591,0,0,0-.4-.144.483.483,0,0,0-.307.088.264.264,0,0,0-.112.213.318.318,0,0,0,.037.162.313.313,0,0,0,.111.109,1,1,0,0,0,.179.081c.072.025.162.053.268.085a2.487,2.487,0,0,1,.3.105.982.982,0,0,1,.23.134" transform="translate(-333.545 1011.534)"/><path class="d" d="M360.936-986.506c-.1.039-.2.071-.292.1a1.235,1.235,0,0,1-.338.04.534.534,0,0,1-.415-.135.549.549,0,0,1-.12-.38v-1.439h-.424v-.207h.433v-.661h.434v.661h.673v.207h-.669v1.188a1.883,1.883,0,0,0,.011.223.366.366,0,0,0,.051.156.233.233,0,0,0,.114.095.537.537,0,0,0,.2.032c.04,0,.1,0,.174-.01a.814.814,0,0,0,.163-.025Z" transform="translate(-346.431 1015.187)"/><path class="d" d="M374.937-984.542a.34.34,0,0,1-.059.2.209.209,0,0,1-.184.084.294.294,0,0,1-.2-.062.182.182,0,0,1-.071-.138.452.452,0,0,1,.008-.086c.005-.026.011-.052.015-.078a.562.562,0,0,0-.261.082.743.743,0,0,0-.254.233v1.237a.214.214,0,0,0,.032.122.194.194,0,0,0,.1.071.689.689,0,0,0,.154.032c.063.007.117.012.162.015v.142h-1.237v-.142l.113-.009a.452.452,0,0,0,.1-.018.167.167,0,0,0,.1-.067.22.22,0,0,0,.033-.126v-1.312a.277.277,0,0,0-.035-.132.273.273,0,0,0-.1-.1.348.348,0,0,0-.107-.037,1,1,0,0,0-.133-.016v-.14l.78-.048.033.03v.3h.011a1.034,1.034,0,0,1,.329-.265.749.749,0,0,1,.331-.091.341.341,0,0,1,.244.088.312.312,0,0,1,.094.237" transform="translate(-358.285 1011.465)"/><path class="d" d="M389.217-989.428h-1.134v-.142l.113-.009a.443.443,0,0,0,.1-.017.165.165,0,0,0,.1-.068.225.225,0,0,0,.033-.126V-991.1a.244.244,0,0,0-.035-.127.284.284,0,0,0-.1-.1.436.436,0,0,0-.131-.044,1.059,1.059,0,0,0-.157-.023v-.14l.829-.047.033.03v1.733a.232.232,0,0,0,.032.125.189.189,0,0,0,.1.073.845.845,0,0,0,.1.031.746.746,0,0,0,.111.016Zm-.3-2.988a.294.294,0,0,1-.089.214.3.3,0,0,1-.22.092.293.293,0,0,1-.21-.088.274.274,0,0,1-.089-.2.282.282,0,0,1,.089-.207.29.29,0,0,1,.21-.089.307.307,0,0,1,.222.083.26.26,0,0,1,.087.193" transform="translate(-371.108 1018.202)"/><path class="d" d="M401.706-983.246a1.126,1.126,0,0,1-.394.405,1.07,1.07,0,0,1-.568.151,1.26,1.26,0,0,1-.5-.09.964.964,0,0,1-.351-.246,1.019,1.019,0,0,1-.206-.362,1.408,1.408,0,0,1-.067-.437,1.188,1.188,0,0,1,.072-.406,1.107,1.107,0,0,1,.213-.359,1.022,1.022,0,0,1,.336-.246,1.056,1.056,0,0,1,.451-.094,1.176,1.176,0,0,1,.44.074.77.77,0,0,1,.3.2.781.781,0,0,1,.163.285,1.136,1.136,0,0,1,.054.355v.142H400.1a1.514,1.514,0,0,0,.044.379.849.849,0,0,0,.14.3.644.644,0,0,0,.242.2.82.82,0,0,0,.358.072.713.713,0,0,0,.365-.09.917.917,0,0,0,.3-.322Zm-.525-.81a1.582,1.582,0,0,0-.022-.259.751.751,0,0,0-.072-.23.458.458,0,0,0-.15-.162.437.437,0,0,0-.245-.062.528.528,0,0,0-.415.188.825.825,0,0,0-.18.525Z" transform="translate(-381.107 1011.52)"/><path class="d" d="M418.972-983.8a.545.545,0,0,1,.15.179.534.534,0,0,1,.052.248.582.582,0,0,1-.244.482,1.007,1.007,0,0,1-.632.187,1.02,1.02,0,0,1-.377-.067,1.064,1.064,0,0,1-.247-.123l-.047.14h-.179l-.024-.739h.164a.766.766,0,0,0,.081.2.917.917,0,0,0,.149.2.832.832,0,0,0,.222.159.649.649,0,0,0,.292.065.574.574,0,0,0,.352-.094.317.317,0,0,0,.124-.269.3.3,0,0,0-.039-.156.366.366,0,0,0-.115-.116.968.968,0,0,0-.193-.089c-.076-.026-.161-.053-.254-.078-.075-.021-.158-.048-.249-.083a.991.991,0,0,1-.235-.124.627.627,0,0,1-.171-.184.488.488,0,0,1-.067-.259.558.558,0,0,1,.214-.442.859.859,0,0,1,.573-.181,1.3,1.3,0,0,1,.282.032,1.1,1.1,0,0,1,.234.078l.054-.113h.171l.036.683h-.164a.663.663,0,0,0-.216-.371.591.591,0,0,0-.4-.144.482.482,0,0,0-.307.088.263.263,0,0,0-.112.213.319.319,0,0,0,.037.162.312.312,0,0,0,.111.109,1,1,0,0,0,.179.081c.072.025.162.053.268.085a2.5,2.5,0,0,1,.3.105.98.98,0,0,1,.23.134" transform="translate(-396.436 1011.534)"/><path class="d" d="M444.171-989.056l-.071.909h-2.638v-.153l.166-.015a.6.6,0,0,0,.151-.028.2.2,0,0,0,.1-.082.261.261,0,0,0,.032-.138v-2.189a.285.285,0,0,0-.028-.129.194.194,0,0,0-.108-.09.933.933,0,0,0-.154-.051,1.046,1.046,0,0,0-.163-.029v-.153h1.425v.153a1.177,1.177,0,0,0-.172.021,1.456,1.456,0,0,0-.154.034.173.173,0,0,0-.111.089.311.311,0,0,0-.029.134v2.053a1.178,1.178,0,0,0,.016.221.2.2,0,0,0,.072.122.349.349,0,0,0,.163.05,2.958,2.958,0,0,0,.3.012c.059,0,.12,0,.184,0s.123-.009.181-.018a1.1,1.1,0,0,0,.153-.035.248.248,0,0,0,.1-.057,1.976,1.976,0,0,0,.227-.3,2.111,2.111,0,0,0,.18-.326h.169Z" transform="translate(-417.13 1016.921)"/><path class="d" d="M463.726-989.428h-1.134v-.142l.113-.009a.441.441,0,0,0,.1-.017.166.166,0,0,0,.1-.068.225.225,0,0,0,.032-.126V-991.1a.241.241,0,0,0-.035-.127.281.281,0,0,0-.1-.1.436.436,0,0,0-.131-.044,1.061,1.061,0,0,0-.157-.023v-.14l.829-.047.033.03v1.733a.228.228,0,0,0,.032.125.188.188,0,0,0,.1.073.852.852,0,0,0,.1.031.749.749,0,0,0,.112.016Zm-.3-2.988a.294.294,0,0,1-.089.214.294.294,0,0,1-.22.092.292.292,0,0,1-.21-.088.274.274,0,0,1-.089-.2.282.282,0,0,1,.089-.207.289.289,0,0,1,.21-.089.308.308,0,0,1,.222.083.26.26,0,0,1,.087.193" transform="translate(-435.259 1018.202)"/><path class="d" d="M477.928-982.731h-1.144v-.142l.11-.009a.447.447,0,0,0,.1-.018.166.166,0,0,0,.1-.067.221.221,0,0,0,.033-.126v-1.1a.491.491,0,0,0-.113-.346.371.371,0,0,0-.282-.121.725.725,0,0,0-.219.032.71.71,0,0,0-.188.09.576.576,0,0,0-.115.1.915.915,0,0,0-.071.092v1.226a.245.245,0,0,0,.029.124.183.183,0,0,0,.1.074.757.757,0,0,0,.1.029.818.818,0,0,0,.115.014v.142h-1.121v-.142l.106-.009a.43.43,0,0,0,.094-.018.17.17,0,0,0,.1-.067.228.228,0,0,0,.032-.126v-1.1a.489.489,0,0,0-.113-.346.369.369,0,0,0-.282-.121.7.7,0,0,0-.219.033.758.758,0,0,0-.189.092.522.522,0,0,0-.116.107l-.072.089v1.218a.21.21,0,0,0,.034.123.2.2,0,0,0,.1.075.511.511,0,0,0,.1.032.846.846,0,0,0,.117.015v.142H473.91v-.142l.113-.009a.463.463,0,0,0,.1-.018.169.169,0,0,0,.1-.067.223.223,0,0,0,.032-.126v-1.321a.226.226,0,0,0-.035-.124.312.312,0,0,0-.1-.094.449.449,0,0,0-.112-.042.768.768,0,0,0-.138-.021v-.14l.785-.048.033.03v.3h.016l.146-.127a1.316,1.316,0,0,1,.159-.118.79.79,0,0,1,.209-.086,1.021,1.021,0,0,1,.27-.034.688.688,0,0,1,.393.111.654.654,0,0,1,.236.268l.151-.132a1.239,1.239,0,0,1,.172-.122.809.809,0,0,1,.213-.09,1.025,1.025,0,0,1,.273-.034.631.631,0,0,1,.471.176.752.752,0,0,1,.174.543v1.079a.238.238,0,0,0,.028.124.178.178,0,0,0,.1.074.632.632,0,0,0,.108.029,1.181,1.181,0,0,0,.12.014Z" transform="translate(-445.037 1011.505)"/><path class="d" d="M506.562-989.428h-1.134v-.142l.113-.009a.443.443,0,0,0,.1-.017.165.165,0,0,0,.1-.068.225.225,0,0,0,.033-.126V-991.1a.241.241,0,0,0-.035-.127.282.282,0,0,0-.1-.1.437.437,0,0,0-.131-.044,1.054,1.054,0,0,0-.157-.023v-.14l.828-.047.033.03v1.733a.23.23,0,0,0,.031.125.189.189,0,0,0,.1.073.828.828,0,0,0,.1.031.741.741,0,0,0,.111.016Zm-.3-2.988a.293.293,0,0,1-.09.214.293.293,0,0,1-.22.092.293.293,0,0,1-.21-.088.273.273,0,0,1-.089-.2.281.281,0,0,1,.089-.207.289.289,0,0,1,.21-.089.307.307,0,0,1,.222.083.259.259,0,0,1,.087.193" transform="translate(-472.14 1018.202)"/><path class="d" d="M517.545-986.506c-.1.039-.2.071-.292.1a1.236,1.236,0,0,1-.338.04.534.534,0,0,1-.415-.135.55.55,0,0,1-.12-.38v-1.439h-.424v-.207h.433v-.661h.434v.661h.673v.207h-.669v1.188a1.9,1.9,0,0,0,.011.223.364.364,0,0,0,.051.156.233.233,0,0,0,.113.095.541.541,0,0,0,.205.032c.04,0,.1,0,.174-.01a.8.8,0,0,0,.163-.025Z" transform="translate(-481.269 1015.187)"/><path class="d" d="M531.995-983.246a1.127,1.127,0,0,1-.395.405,1.068,1.068,0,0,1-.568.151,1.259,1.259,0,0,1-.5-.09.96.96,0,0,1-.351-.246,1.016,1.016,0,0,1-.206-.362,1.416,1.416,0,0,1-.067-.437,1.194,1.194,0,0,1,.072-.406,1.116,1.116,0,0,1,.214-.359,1.023,1.023,0,0,1,.336-.246,1.054,1.054,0,0,1,.451-.094,1.174,1.174,0,0,1,.44.074.765.765,0,0,1,.3.2.777.777,0,0,1,.163.285,1.135,1.135,0,0,1,.054.355v.142h-1.554a1.52,1.52,0,0,0,.044.379.858.858,0,0,0,.14.3.645.645,0,0,0,.242.2.819.819,0,0,0,.357.072.714.714,0,0,0,.365-.09.921.921,0,0,0,.3-.322Zm-.525-.81a1.554,1.554,0,0,0-.023-.259.744.744,0,0,0-.072-.23.46.46,0,0,0-.15-.162.438.438,0,0,0-.245-.062.528.528,0,0,0-.415.188.827.827,0,0,0-.18.525Z" transform="translate(-493.284 1011.52)"/><path class="d" d="M550.267-989.906l-.819.048-.036-.03v-.2l-.018,0a.974.974,0,0,1-.306.2.922.922,0,0,1-.374.08.968.968,0,0,1-.387-.081.966.966,0,0,1-.324-.227,1.094,1.094,0,0,1-.223-.357,1.255,1.255,0,0,1-.082-.461,1.11,1.11,0,0,1,.088-.437,1.156,1.156,0,0,1,.243-.362,1.075,1.075,0,0,1,.355-.231,1.127,1.127,0,0,1,.43-.086,1.39,1.39,0,0,1,.322.038,1.224,1.224,0,0,1,.272.1v-.739a.39.39,0,0,0-.033-.165.248.248,0,0,0-.092-.113.5.5,0,0,0-.18-.059c-.076-.012-.157-.02-.244-.027v-.134l.958-.049.036.032v2.865a.236.236,0,0,0,.033.129.26.26,0,0,0,.094.089.306.306,0,0,0,.131.032c.057,0,.109.008.157.009v.14Zm-.859-.373v-1.242a.5.5,0,0,0-.062-.121.54.54,0,0,0-.107-.119.609.609,0,0,0-.162-.09.61.61,0,0,0-.216-.035.526.526,0,0,0-.263.067.664.664,0,0,0-.213.192.928.928,0,0,0-.14.307,1.56,1.56,0,0,0-.051.413,1.321,1.321,0,0,0,.039.329.813.813,0,0,0,.128.274.63.63,0,0,0,.214.194.618.618,0,0,0,.308.074.6.6,0,0,0,.315-.076.95.95,0,0,0,.21-.166" transform="translate(-508.599 1018.641)"/></g></g></svg>