<svg xmlns="http://www.w3.org/2000/svg" width="178.036" height="114.919" viewBox="0 0 178.036 114.919"><defs><style>.a{fill:none;stroke:#fff;}.b{fill:#ff1616;}.c{fill:#2eff90;}.d{fill:#e2ab86;}.e{fill:#ba8b6a;}.f{fill:#3f2e0f;}.g{fill:#f09;}.h{fill:#d9d9d9;}.i{fill:#fff;}.j{fill:#ea008c;}.k{fill:#ff3fb2;}.l{fill:#77afcc;}</style></defs><g transform="translate(-689.452 -181.989)"><g transform="translate(261 -1178)"><line class="a" y1="29.624" transform="translate(604 1385.256)"/><line class="a" y2="20.855" transform="translate(595.468 1381.608)"/><line class="a" y2="20.855" transform="translate(586.937 1381.608)"/><line class="a" y2="23.281" transform="translate(578.405 1412.18)"/><line class="a" y2="39.499" transform="translate(552.811 1397.427)"/><line class="a" y2="32.349" transform="translate(518.684 1389.615)"/><line class="a" y2="27.846" transform="translate(501.961 1395.677)"/><line class="a" y2="25.959" transform="translate(492.929 1416.245)"/><line class="a" y2="39.704" transform="translate(484.398 1416.245)"/><line class="a" y2="43.665" transform="translate(475.866 1431.243)"/><line class="a" y2="28.214" transform="translate(510.152 1377.576)"/><line class="a" y2="84.006" transform="translate(535.747 1359.989)"/><line class="a" y2="54.744" transform="translate(527.216 1412.843)"/><line class="a" y2="18.841" transform="translate(561.342 1433.864)"/><line class="a" y2="21.988" transform="translate(544.279 1414.938)"/><line class="a" y2="23.281" transform="translate(569.874 1432.355)"/><rect class="b" width="4.977" height="20.855" transform="translate(601.512 1391.18)"/><rect class="c" width="4.977" height="8.769" transform="translate(592.98 1383.266)"/><rect class="b" width="4.977" height="36.91" transform="translate(584.449 1386.052)"/><rect class="b" width="4.977" height="27.818" transform="translate(567.385 1423.82)"/><rect class="c" width="4.977" height="10.309" transform="translate(558.854 1438.841)"/><rect class="c" width="4.977" height="6.849" transform="translate(550.322 1421.861)"/><rect class="b" width="4.977" height="10.266" transform="translate(541.791 1416.979)"/><rect class="b" width="4.977" height="15.641" transform="translate(499.472 1399.439)"/><rect class="c" width="4.977" height="13.685" transform="translate(490.441 1420.845)"/><rect class="b" width="4.977" height="11.976" transform="translate(481.91 1420.845)"/><rect class="b" width="4.977" height="21.906" transform="translate(473.378 1437.954)"/><rect class="c" width="4.977" height="51.012" transform="translate(533.259 1379.12)"/><rect class="c" width="4.977" height="33.363" transform="translate(524.727 1416.513)"/><rect class="c" width="4.977" height="10.823" transform="translate(516.196 1397.554)"/><rect class="c" width="4.977" height="2.345" transform="translate(507.664 1393.75)"/><rect class="b" width="4.977" height="3.92" transform="translate(575.917 1421.861)"/></g><g transform="translate(-13 -4)"><path class="d" d="M372.4,323.531c-.981-1.716-2.547-2.92-2.436-5.05a6.085,6.085,0,0,1,2.016-4.162,5.267,5.267,0,0,1,4.353-1.274c5.327.895,6.429,9.553,5.413,13.848-1.121,4.776-4.388,1.153-5.916.516a39.741,39.741,0,0,1,0,7.148c-1.99-.318-4.26-.8-6.254-1.083a31.018,31.018,0,0,0,3-9.951" transform="translate(352.499 -118.166)"/><path class="e" d="M386.257,329.731c.888-2.929,6.368-2.114,6.368-2.114a16.151,16.151,0,0,0-.15,4.655c-.866-1.891-2.165-1.911-2.92-1.232-.866.777-.344,1.165.955,3.643-1.528,1.06-2.484,3.655-5.095,5.665.105-2.63-1.446-4.216-3.206-5.69C384.2,334.224,385.608,331.868,386.257,329.731Z" transform="translate(337.943 -128.073)"/><path class="f" d="M370.2,306.954c.576-1.678,2.92-2.395,3.821-1.837.111-.478.78-3.146,1.812-3.977,0,0,0,.637.022,1.309a6.463,6.463,0,0,1,3.108-1.086,7.419,7.419,0,0,1,6.623,2.668l.15.191h0a12.293,12.293,0,0,0,3.041,1.659c-.385,1.573-3.184-.038-4.006,3.761,0,0-5.486-.812-6.368,2.114-.637,2.133-2.06,4.493-4.025,4.926C371.623,314.37,368.356,312.329,370.2,306.954Zm4.1-1.818V305.1l-.083.029Z" transform="translate(345.792 -110.098)"/><path class="f" d="M370.32,338.318,371,338a9.132,9.132,0,0,0,3.426,3.226c.955.449,1.041.516.987,1.274-.08,1.083-.637,4.139-1.643,4.334-.939.181-3.761-1.29-4.582-2.111s3.312-2.866,1.869-5.095A7.073,7.073,0,0,1,370.32,338.318Z" transform="translate(359.322 -135.221)"/><path class="d" d="M451.44,477.148c0,1.312.411,4.181-.181,4.174-.519,0-.879-1.452-1.14-2.547-2.289,1.025-8.686,3.038-7.149.834,1.06-1.519,5.814-2.866,6.193-5.455a21.769,21.769,0,0,1,2.286.1C451.542,473.5,451.44,477.148,451.44,477.148Z" transform="translate(259.717 -228.02)"/><path class="g" d="M390.523,403.931l5.623.933s2.067-10.724,4.875-15.6c1.745-3.025,12.1-17.4,8.852-19.567-3.528-2.363-12.641,10.712-15.539,15.663C389.259,394.028,390.523,403.931,390.523,403.931Z" transform="translate(317.467 -156.63)"/><path class="d" d="M388.995,417.93l-1.255,6.155,3.015.755,1.818-6.91Z" transform="translate(324.268 -126.853)"/><path class="h" d="M373.08,485.41s-1.723,17-2.7,22.786c-.844,5.015-3.5,19.866-3.5,19.866l4.926.551s7.983-15.029,10.094-19.958c2.516-5.868,8.413-23.245,8.413-23.245Z" transform="translate(345.137 -235.693)"/><path class="d" d="M306.6,418.07l1.255,6.158-3.015.755-1.818-6.913Z" transform="translate(435.964 -126.949)"/><path class="i" d="M323.456,284.29l7.27,43.2H324.72l-18.51-43.2Z" transform="translate(412.077 -35.767)"/><path class="j" d="M357.932,369.715c-2.738,2.547-3.684,8.244-5.123,15.138-2.229,10.654-1.229,26.7-1.452,27.543a59.287,59.287,0,0,0,12.039,1.127,55.233,55.233,0,0,0,12.584-1.911c-.857-3.184-5.413-19.217-7.9-28.658-2.866-10.791-1.77-11.8-3.436-13.3C363.253,368.415,358.607,369.087,357.932,369.715Z" transform="translate(364.424 -156.322)"/><path class="k" d="M367.1,374.53c-.837,4.458,3.184,13.536,6.1,17.456,2.4,3.232,3.423,2.837,6.827,4.12l.637,2.277s-5.7.831-8.626-3.576C368.942,390.168,364.328,377.934,367.1,374.53Z" transform="translate(354.985 -160.119)"/><path class="d" d="M298.92,399.1c.554-1.191,1.391-3.964,1.911-3.71.468.226.185,1.688-.038,2.786,2.509.035,9.158.907,6.836,2.258-1.592.93-7.906.751-9.336,2.939-.739-.3-1.029-2.5-1.732-2.866C296.159,401.161,298.92,399.1,298.92,399.1Z" transform="translate(449.741 -174.329)"/><path class="g" d="M348.424,389.218l-2.2-6.543s-10.645,6.327-13.768,1.36c-1.942-3.089-6.808-15.255-10.737-12.991-4.28,2.465,1.7,14.73,4.853,19.828C332.089,399.783,348.424,389.218,348.424,389.218Z" transform="translate(401.88 -157.552)"/><path class="l" d="M403.011,628.57c.551-.016,2.273,1.818,8.32,1.965,1.86.045,1.91,3.009.175,3.375H399.569c-1.242-.592-1.006-4.693-.232-4.6.509-.064.443.758,1.761.615S402.371,628.576,403.011,628.57Z" transform="translate(312.55 -333.268)"/><path class="l" d="M315.108,628.57c.551-.016,2.274,1.818,8.323,1.965,1.86.045,1.911,3.009.175,3.375H311.669c-1.242-.592-1.006-4.693-.232-4.6.509-.064.443.758,1.761.615S314.465,628.576,315.108,628.57Z" transform="translate(428.439 -333.268)"/></g></g></svg>