<svg xmlns="http://www.w3.org/2000/svg" width="71.185" height="65.951" viewBox="0 0 71.185 65.951"><defs><style>.a{fill:#fcdd62;}</style></defs><g transform="translate(49.58 -10.507) rotate(40)"><path class="a" d="M1.737,16.86A10.19,10.19,0,0,1,.663,7.505,13.719,13.719,0,0,1,7.225,0s3.434,4.665,1.513,9.968A11.816,11.816,0,0,1,1.737,16.86Z" transform="translate(27.856 10.695)"/><path class="a" d="M9.926,15.234a11.861,11.861,0,0,1-8.359-5.176C-1.476,5.31.85,0,.85,0A13.763,13.763,0,0,1,8.911,5.873,10.182,10.182,0,0,1,9.926,15.234Z" transform="translate(11.238 15.11)"/><path class="a" d="M8.751,6.871a10.191,10.191,0,0,1-.213,9.416A11.858,11.858,0,0,1,.924,10.068C-1.464,4.96,1.531,0,1.531,0A13.738,13.738,0,0,1,8.751,6.871Z" transform="translate(11.874 29.747)"/><path class="a" d="M2.118,0A13.74,13.74,0,0,1,8.66,7.526a10.182,10.182,0,0,1-1.1,9.351A11.857,11.857,0,0,1,.575,9.965C-1.333,4.658,2.118,0,2.118,0Z" transform="translate(6.498 40.84)"/><path class="a" d="M4.72,17.731A11.848,11.848,0,0,1,.013,9.1C-.282,3.468,4.37,0,4.37,0a13.765,13.765,0,0,1,4.1,9.09A10.182,10.182,0,0,1,4.72,17.731Z" transform="translate(0.062 51.749)"/><path class="a" d="M6.471,17.072A10.19,10.19,0,0,1,.4,9.886,13.735,13.735,0,0,1,1.69,0S7.137,1.976,8.482,7.457A11.829,11.829,0,0,1,6.471,17.072Z" transform="translate(16.346 0)"/><path class="a" d="M.438,14.493A10.212,10.212,0,0,1,2.17,5.238,13.753,13.753,0,0,1,10.657,0s1.911,5.475-1.489,9.975A11.832,11.832,0,0,1,.438,14.493Z" transform="translate(29.158 25.01)"/><path class="a" d="M.037,11.885A10.218,10.218,0,0,1,3.786,3.241,13.733,13.733,0,0,1,13.219.023s.645,5.766-3.667,9.4A11.864,11.864,0,0,1,.037,11.885Z" transform="translate(25.663 39.864)"/><path class="a" d="M0,8.145a10.2,10.2,0,0,1,6.188-7.1A13.715,13.715,0,0,1,16.153.828S15.021,6.515,9.814,8.673A11.828,11.828,0,0,1,0,8.145Z" transform="translate(19.762 53.73)"/><path class="a" d="M6.981.5a13.776,13.776,0,0,1,9.924.978s-1.8,5.506-7.228,7.035A11.844,11.844,0,0,1,0,6.809,10.17,10.17,0,0,1,6.981.5Z" transform="translate(10.193 65.569)"/><path class="a" d="M22.235,1.218,24.718,0c.13.271,12.87,27.332-22.931,57.93L0,55.834C34.076,26.7,22.736,2.24,22.235,1.218Z" transform="translate(0 19.202)"/></g></svg>