<svg xmlns="http://www.w3.org/2000/svg" width="80.358" height="54.868" viewBox="0 0 80.358 54.868"><defs><style>.a{fill:#fff;}.b,.c{fill:#486aae;}.c{fill-rule:evenodd;}.d,.e{stroke:none;}.e{fill:#eaeaea;}</style></defs><g transform="translate(0 0)"><g class="a" transform="translate(0 0)"><path class="d" d="M 73.21525573730469 54.36768341064453 L 7.142948150634766 54.36768341064453 C 3.48001503944397 54.36768341064453 0.5000038743019104 50.65380477905273 0.5000038743019104 46.08883666992188 L 0.5000038743019104 8.778826713562012 C 0.5000038743019104 4.213871002197266 3.48001503944397 0.5000045299530029 7.142948150634766 0.5000045299530029 L 73.21525573730469 0.5000045299530029 C 76.87818908691406 0.5000045299530029 79.85820007324219 4.213871002197266 79.85820007324219 8.778826713562012 L 79.85820007324219 46.08883666992188 C 79.85820007324219 50.65380477905273 76.87818908691406 54.36768341064453 73.21525573730469 54.36768341064453 Z"/><path class="e" d="M 7.142951965332031 0.9999923706054688 C 3.755714416503906 0.9999923706054688 1.000007629394531 4.489559173583984 1.000007629394531 8.778827667236328 L 1.000007629394531 46.08883666992188 C 1.000007629394531 50.37810516357422 3.755714416503906 53.86767196655273 7.142951965332031 53.86767196655273 L 73.21525573730469 53.86767196655273 C 76.60249328613281 53.86767196655273 79.35820007324219 50.37810516357422 79.35820007324219 46.08883666992188 L 79.35820007324219 8.778827667236328 C 79.35820007324219 4.489559173583984 76.60249328613281 0.9999923706054688 73.21525573730469 0.9999923706054688 L 7.142951965332031 0.9999923706054688 M 7.142951965332031 -7.62939453125e-06 L 73.21525573730469 -7.62939453125e-06 C 77.16020202636719 -7.62939453125e-06 80.35820007324219 3.930416107177734 80.35820007324219 8.778827667236328 L 80.35820007324219 46.08883666992188 C 80.35820007324219 50.93725967407227 77.16020202636719 54.86767196655273 73.21525573730469 54.86767196655273 L 7.142951965332031 54.86767196655273 C 3.198005676269531 54.86767196655273 7.62939453125e-06 50.93725967407227 7.62939453125e-06 46.08883666992188 L 7.62939453125e-06 8.778827667236328 C 7.62939453125e-06 3.930416107177734 3.198005676269531 -7.62939453125e-06 7.142951965332031 -7.62939453125e-06 Z"/></g></g><g transform="translate(26 15.263)"><path class="b" d="M14.616,286.732h6.732v2.049H19.416V293.7H16.611v-4.923h-2Z" transform="translate(-14.616 -269.228)"/><path class="b" d="M109.746,289.549l-1.417,4.155h-2.694l2.642-6.972H111.2l2.706,6.972h-2.727Z" transform="translate(-99.605 -269.228)"/><path class="b" d="M220.805,286.732h6.731v2.049h-1.931V293.7h-2.8v-4.923h-2Z" transform="translate(-207.146 -269.228)"/><path class="b" d="M315.942,289.549l-1.418,4.155H311.83l2.643-6.972H317.4l2.7,6.972h-2.726Z" transform="translate(-292.14 -269.228)"/><path class="c" d="M96,27.2A6.242,6.242,0,0,0,95,25.79a9.761,9.761,0,0,0-3.776-2.4,15.4,15.4,0,0,0-10.28,0,9.76,9.76,0,0,0-3.777,2.4,6.248,6.248,0,0,0-.995,1.413,43.749,43.749,0,0,1,8.648-1.2.763.763,0,0,1,.66.269,3.2,3.2,0,0,1,.153,1.328l-.091,8.888c.18.006.361.01.542.01s.364,0,.544-.009L86.539,27.6a3.177,3.177,0,0,1,.153-1.328.763.763,0,0,1,.66-.269A43.727,43.727,0,0,1,96,27.2" transform="translate(-72.096 -22.504)"/><path class="c" d="M262.594,98.112a37.2,37.2,0,0,0-6.85-.9c-1.691-.094-1.713.51-1.544,1.664.011.07.025.159.041.26.567,3.36,1.273,6.251,1.395,6.741,4.123-.942,7.1-3.555,7.1-6.624a4.9,4.9,0,0,0-.137-1.145" transform="translate(-238.264 -92.257)"/><path class="c" d="M76.166,98.879c.169-1.154.147-1.758-1.543-1.664a37.186,37.186,0,0,0-6.853.9,4.9,4.9,0,0,0-.137,1.144,5.446,5.446,0,0,0,1.561,3.713,9.764,9.764,0,0,0,3.777,2.4,13.63,13.63,0,0,0,1.758.513c.114-.46.837-3.411,1.41-6.83.011-.066.02-.126.027-.176" transform="translate(-64.121 -92.257)"/></g></svg>